<svg width="100" height="100" viewBox="0 0 100 100" fill="none" xmlns="http://www.w3.org/2000/svg">
<rect x="1" y="1" width="98" height="98" rx="23" fill="url(#paint0_linear_132_339)"/>
<rect x="1" y="1" width="98" height="98" rx="23" stroke="url(#paint1_linear_132_339)" stroke-width="2"/>
<path d="M15.0151 70.3329C14.8378 70.154 16.2773 66.1184 16.4758 65.5312C20.3129 54.207 24.4931 42.9917 28.3123 31.6609L28.5873 28.8452L39.017 28.6842L39.4969 28.855L54.2157 70.1719L44.9833 70.1377L41.6699 60.4335L26.7167 60.4839L23.3919 70.3345H15.0151V70.3329ZM29.0036 52.6031H39.0071L39.1796 52.2729L34.1258 36.0103L29.0036 52.6031Z" fill="#7F8BF5"/>
<path d="M82.193 69.2756C82.0238 69.8612 78.961 70.6111 78.2941 70.7444C74.6034 71.4845 70.2132 71.5837 66.5778 70.5753C50.8747 66.2225 53.1666 39.2147 70.2295 38.281C80.3241 37.7296 85.5471 44.6735 84.955 54.3078C84.9306 54.7144 84.768 56.3638 84.62 56.5753C84.5143 56.7249 84.4214 56.8241 84.2262 56.8322C82.746 56.8778 81.3099 57.0128 79.8281 57.0014C79.4442 56.9982 79.0862 56.8274 78.7023 56.8257C74.1186 56.7997 69.5333 56.8583 64.9512 56.8339C66.067 65.4076 76.0185 64.4219 82.193 62.5253V69.2756ZM64.9512 51.1392H75.4427C75.6427 51.1392 76.2626 50.822 76.57 50.8334C77.0677 48.1398 74.6538 45.4478 72.0106 45.1387C68.0157 44.6719 65.4409 47.3785 64.9529 51.1392H64.9512Z" fill="#7F8BF5"/>
<defs>
<linearGradient id="paint0_linear_132_339" x1="50" y1="0" x2="50" y2="100" gradientUnits="userSpaceOnUse">
<stop stop-color="#080C30"/>
<stop offset="1"/>
</linearGradient>
<linearGradient id="paint1_linear_132_339" x1="50" y1="0" x2="50" y2="100" gradientUnits="userSpaceOnUse">
<stop stop-color="#7F8BF5"/>
<stop offset="1"/>
</linearGradient>
</defs>
</svg>
