<svg width="100" height="100" viewBox="0 0 100 100" fill="none" xmlns="http://www.w3.org/2000/svg">
<g clip-path="url(#clip0_121_215)">
<path d="M14.5907 0.0957121L84.7377 0C92.7008 1.10643 98.7339 7.3124 99.9846 15.1225L100.004 83.6639C98.6876 93.3231 91.6084 98.8629 82.0357 99.5329C61.1572 100.999 38.615 98.4303 17.5628 99.5521C8.68105 99.1462 0.895511 92.5881 0 83.6639L0.0578994 14.7779C1.20817 7.42726 7.19497 1.36294 14.5907 0.0957121ZM66.7966 72.3545L48.6201 27.4043C48.4271 26.9832 48.1183 26.876 47.6898 26.7956C45.0766 26.3208 41.2398 27.1631 38.4684 26.7726L20.4771 72.3545H30.513L34.041 62.0712L52.9432 62.2435L56.7607 72.3545H66.7966ZM73.6365 26.8874C69.3789 27.7527 69.7418 34.2343 74.4239 34.7665C80.843 35.4939 81.3988 25.3101 73.6365 26.8874ZM79.5345 39.4296H70.6566V72.3545H79.5345V39.4296Z" fill="url(#paint0_linear_121_215)"/>
<path d="M66.7971 72.3545H56.7612L52.9437 62.2435L34.0414 62.0712L30.5134 72.3545H20.4775L38.4688 26.7726C41.2403 27.1631 45.0771 26.3208 47.6903 26.7955C48.1226 26.8721 48.4314 26.9793 48.6205 27.4043L66.7971 72.3545ZM37.0754 54.3606H49.8132L43.4404 37.5115L37.0754 54.3606Z" fill="#E7B81B"/>
<path d="M79.5342 39.4296H70.6562V72.3545H79.5342V39.4296Z" fill="#E7B81B"/>
<path d="M73.6366 26.8874C81.3951 25.3063 80.8431 35.4939 74.424 34.7664C69.7419 34.2381 69.379 27.7565 73.6366 26.8874Z" fill="#E7B81B"/>
<path d="M37.0752 54.3606L43.4403 37.5115L49.8131 54.3606H37.0752Z" fill="url(#paint1_linear_121_215)"/>
</g>
<rect x="1" y="1" width="98" height="97.9984" rx="23" stroke="url(#paint2_linear_121_215)" stroke-width="2"/>
<defs>
<linearGradient id="paint0_linear_121_215" x1="50.0019" y1="0" x2="50.0019" y2="99.9984" gradientUnits="userSpaceOnUse">
<stop stop-color="#290D05"/>
<stop offset="1"/>
</linearGradient>
<linearGradient id="paint1_linear_121_215" x1="43.4441" y1="37.5115" x2="43.4441" y2="54.3606" gradientUnits="userSpaceOnUse">
<stop stop-color="#290D05"/>
<stop offset="1"/>
</linearGradient>
<linearGradient id="paint2_linear_121_215" x1="50" y1="0" x2="50" y2="99.9984" gradientUnits="userSpaceOnUse">
<stop stop-color="#E7B81B"/>
<stop offset="1"/>
</linearGradient>
<clipPath id="clip0_121_215">
<rect width="100" height="99.9984" rx="24" fill="white"/>
</clipPath>
</defs>
</svg>
