<svg width="100" height="100" viewBox="0 0 100 100" fill="none" xmlns="http://www.w3.org/2000/svg">
<rect x="1" y="1" width="98" height="98" rx="23" fill="url(#paint0_linear_128_199)"/>
<rect x="1" y="1" width="98" height="98" rx="23" stroke="url(#paint1_linear_128_199)" stroke-width="2"/>
<path d="M48.3323 42.5178L50.0593 44.475C55.9559 37.1942 64.831 30.8321 74.6026 34.64C88.4721 40.0451 88.4597 59.8985 74.6007 65.3516C64.9095 69.1652 55.7913 62.8165 50.0612 55.4196L46.9191 58.9376C40.5948 65.2566 31.9598 69.1268 23.4139 64.3965C12.8453 58.547 12.0722 43.4124 22.0074 36.4897C31.1858 30.0939 41.8128 34.8521 48.3323 42.5178ZM42.0338 45.0001C38.4554 41.5886 33.8102 38.8145 28.679 40.2064C20.5885 42.4016 18.629 53.21 25.3934 58.188C32.5148 63.428 40.4379 57.3567 44.9405 51.7221C45.1117 51.5081 46.147 50.1796 46.1699 50.0692C46.2034 49.9118 46.1403 49.8475 46.0771 49.7237C45.792 49.164 44.8123 48.0362 44.3664 47.5034C43.6737 46.676 42.8097 45.7401 42.0328 45.0001H42.0338ZM59.0482 55.8602C63.3566 59.5472 68.8045 61.9613 74.1175 58.5326C83.6557 52.3758 77.3026 37.2979 65.9724 40.1862C60.9847 41.4581 56.8495 45.9571 53.8558 49.9262C53.8137 50.1105 53.962 50.2295 54.05 50.3658C55.1723 52.0975 57.4638 54.5058 59.0482 55.8612V55.8602Z" fill="#60EDB7"/>
<path d="M37.1938 47.9335V50.8611C37.1938 50.8899 37.3153 50.935 37.2895 51.0051H27.7217V47.9335H37.1938Z" fill="#60EDB7"/>
<path d="M69.1497 44.6698V47.9335H72.3071V51.0051H69.1497V54.2687H65.9923V51.0051H62.835V47.9335H65.9923V44.6698H69.1497Z" fill="#60EDB7"/>
<defs>
<linearGradient id="paint0_linear_128_199" x1="50" y1="0" x2="50" y2="100" gradientUnits="userSpaceOnUse">
<stop stop-color="#132F25"/>
<stop offset="1"/>
</linearGradient>
<linearGradient id="paint1_linear_128_199" x1="50" y1="0" x2="50" y2="100" gradientUnits="userSpaceOnUse">
<stop stop-color="#60EDB7"/>
<stop offset="1"/>
</linearGradient>
</defs>
</svg>
