<svg width="100" height="100" viewBox="0 0 100 100" fill="none" xmlns="http://www.w3.org/2000/svg">
<rect x="1" y="1" width="98" height="98" rx="23" fill="url(#paint0_linear_129_207)"/>
<rect x="1" y="1" width="98" height="98" rx="23" stroke="url(#paint1_linear_129_207)" stroke-width="2"/>
<path d="M73.0769 50.5732V80H51.335V42.5477L73.0769 50.5732Z" fill="#B6ED0E"/>
<path d="M26.9229 57.4522V20H48.0926C48.1345 20 48.6647 20.5312 48.6647 20.5732V48.8535L26.9229 57.4522Z" fill="#B6ED0E"/>
<path d="M73.0769 20V47.5159L51.335 39.1082V20H73.0769Z" fill="#B6ED0E"/>
<path d="M26.9229 80V60.8917L47.8904 52.6484C48.1231 52.3121 48.6647 53.0115 48.6647 53.0573V79.4268C48.6647 79.4688 48.1345 80 48.0926 80H26.9229Z" fill="#B6ED0E"/>
<defs>
<linearGradient id="paint0_linear_129_207" x1="50" y1="0" x2="50" y2="100" gradientUnits="userSpaceOnUse">
<stop stop-color="#242F03"/>
<stop offset="1"/>
</linearGradient>
<linearGradient id="paint1_linear_129_207" x1="50" y1="0" x2="50" y2="100" gradientUnits="userSpaceOnUse">
<stop stop-color="#B6ED0E"/>
<stop offset="1"/>
</linearGradient>
</defs>
</svg>
