<svg width="100" height="100" viewBox="0 0 100 100" fill="none" xmlns="http://www.w3.org/2000/svg">
<rect x="1" y="1" width="98" height="98" rx="23" fill="url(#paint0_linear_121_246)"/>
<rect x="1" y="1" width="98" height="98" rx="23" stroke="url(#paint1_linear_121_246)" stroke-width="2"/>
<path d="M57.8348 33.9361L48.6564 26.4249C45.7061 23.1391 51.0702 20.4019 53.8795 21.9402C61.0963 27.4743 68.4624 32.8754 75.5859 38.5404C80.3076 42.2956 83.6011 46.3894 84.6734 52.5334C87.1693 66.8367 75.0017 78.0492 61.3828 78.4872C50.1696 78.8483 38.2087 71.2788 36.5798 59.5999C36.3992 58.306 36.4179 57.131 36.5686 55.8357L23.099 66.8957C17.3633 71.2571 11.9753 65.7282 16.9805 60.6171C25.2479 54.216 33.6205 47.9486 41.8745 41.5294C41.9999 41.4323 42.5841 41.0683 42.6125 41.0346C42.6207 41.0249 42.6401 40.8777 42.5752 40.8859C41.5052 40.9016 40.4337 40.8679 39.3637 40.8829C35.9075 40.933 32.0514 41.1737 28.6191 40.9636C23.7765 40.6676 24.1309 35.7673 28.0982 34.3068C28.4183 34.1887 29.2869 33.9346 29.592 33.9346H57.8341L57.8348 33.9361Z" fill="#E0461C"/>
<path d="M59.9834 40.9098C69.5282 40.4307 78.2978 48.9479 74.7535 58.6954C70.5034 70.3848 52.3337 70.9746 47.0771 59.774C42.6747 50.395 50.4922 41.3859 59.9834 40.9098Z" fill="#FEFEFE"/>
<path d="M59.9081 45.1703C66.1161 44.7106 71.9944 50.0863 69.6992 56.4733C67.0526 63.8409 55.8393 64.329 52.2249 57.5309C49.1232 51.6963 53.8143 45.621 59.9081 45.1703Z" fill="#1E465F"/>
<defs>
<linearGradient id="paint0_linear_121_246" x1="50" y1="0" x2="50" y2="100" gradientUnits="userSpaceOnUse">
<stop stop-color="#0F2330"/>
<stop offset="1"/>
</linearGradient>
<linearGradient id="paint1_linear_121_246" x1="50" y1="0" x2="50" y2="100" gradientUnits="userSpaceOnUse">
<stop stop-color="#B7DFF8"/>
<stop offset="0.3" stop-color="#F9DAD2"/>
<stop offset="1"/>
</linearGradient>
</defs>
</svg>
