<svg width="100" height="100" viewBox="0 0 100 100" fill="none" xmlns="http://www.w3.org/2000/svg">
<rect x="1" y="1" width="98" height="98" rx="23" fill="black"/>
<rect x="1" y="1" width="98" height="98" rx="23" stroke="url(#paint0_linear_132_317)" stroke-width="2"/>
<path d="M25.0849 28.4528C25.0802 28.1401 25.4762 28.1752 25.7007 28.2633C41.7768 28.1799 58.6278 28.1799 74.7276 28.2633C74.792 28.5712 74.8233 28.9179 74.8223 29.3054C73.7461 42.6559 72.4956 55.9941 71.318 69.3332C71.0309 72.5808 70.8869 75.8436 70.4502 79.076L70.3043 79.2143L50.1431 85L29.4163 79.2115L29.2268 79.022L25.084 28.4537L25.0849 28.4528Z" fill="#293EEE"/>
<path d="M53.8857 15V18.3158H51.4225C51.4964 18.6256 51.7645 18.9051 51.953 19.159C52.2031 19.4953 53.8857 21.4299 53.8857 21.5843V24.4738H46.3067V21.4422H48.7699L47.2948 19.1751C47.1621 18.9582 46.1172 17.7038 46.1172 17.6053V15H53.8857Z" fill="#EAECFD"/>
<path d="M64.5908 15V18.4106C64.5216 18.4361 64.4771 18.3158 64.4487 18.3158H62.1276L63.5107 20.2011C63.6083 20.4133 64.5908 21.4062 64.5908 21.4896V24.4738H57.1065V21.4422H59.5697C59.3679 20.8463 56.917 17.8867 56.917 17.6053V15H64.5908Z" fill="#EAECFD"/>
<path d="M42.9909 15V18.2211H38.5382V21.4422H42.9909V24.4738H35.2697C35.1636 24.4738 35.1314 24.2398 35.1219 24.1413C34.8614 21.3579 35.3323 18.1586 35.1229 15.3268C35.1021 15.2302 35.1911 15 35.2697 15L42.9909 15Z" fill="#EAECFD"/>
<path d="M74.9171 28.1686L74.8224 29.3054C74.6253 29.0155 74.7656 28.6034 74.7277 28.2633H25.7008C25.445 28.2633 25.175 28.2055 25.085 28.4528V28.1686H74.9171Z" fill="#293EEE"/>
<path d="M45.1693 38.9687C51.9677 38.7584 58.8504 38.6921 65.5181 38.8474L65.538 39.0635V45.0319C65.5674 45.1002 65.591 45.2138 65.5494 45.2328C61.3307 47.0366 56.8733 48.9266 52.5703 50.577C52.053 50.7759 51.5982 50.9426 51.0431 51.0004L52.0132 50.811H64.1898L64.3064 51.0004L64.4892 51.0829C63.97 57.4966 63.4158 63.9038 62.8266 70.3043C58.9527 71.6126 55.0495 72.8688 51.116 74.0729L50.9483 73.927L49.9791 74.0976L37.0313 70.507L36.1692 60.7575H42.3272L42.9079 65.4821L49.2194 67.0803C49.7215 67.1419 50.2511 66.9988 50.7589 66.9155L51.0923 66.7307C52.9349 66.2599 54.7966 65.9027 56.6762 65.6583C56.8306 63.6129 57.0438 61.5618 57.2768 59.5212C57.3251 59.1015 57.453 58.696 57.58 58.2943C57.6046 58.0063 57.6444 57.7278 57.6747 57.4417C55.15 57.4379 52.6205 57.4445 50.0957 57.4417H36.0745C35.8319 57.3053 35.8489 56.9879 35.8044 56.7169C35.5695 55.3063 35.2142 53.3784 35.1289 51.9923C35.1185 51.8256 35.1006 51.6513 35.1432 51.4883L49.7167 45.1257H34.8902L33.9902 38.9678C37.7153 38.9668 41.4452 38.9706 45.1693 38.9678V38.9687Z" fill="#EAECFD"/>
<path d="M45.1689 38.9687L50.1901 38.873L50.119 33.1386C50.174 32.8307 50.9612 33.0921 51.1744 33.0855C51.3193 33.0817 51.4775 32.9983 51.6547 32.9955C57.9481 32.8865 64.2766 33.0523 70.5644 33.0419L70.6591 33.2399L66.9502 75.2439L50.245 79.996C49.9172 79.4095 50.1834 78.7312 50.1957 78.1467C50.2128 77.3281 50.2118 76.4935 50.1957 75.675C50.191 75.4097 50.0243 74.3609 50.1853 74.2529C50.2829 74.1876 50.5927 74.2094 50.7632 74.1686C50.8058 74.1582 51.1554 73.9962 50.948 73.927L62.6841 70.2209L64.306 51.0004H51.0427L65.5376 45.032V39.0635L65.3102 38.964C58.5961 38.9773 51.8811 38.964 45.1689 38.9687Z" fill="#7F8BF5"/>
<path d="M50.7587 66.9164C50.8364 66.5024 50.2869 66.9117 50.1903 66.8217C50.1666 64.2315 50.2111 61.6054 50.195 59.0011C50.1921 58.5312 50.0387 58.0338 50.1988 57.5459L57.4851 57.5364L57.5798 58.2943C57.3638 60.7831 57.0701 63.2766 56.8039 65.7606C54.785 66.0912 52.7757 66.5848 50.7587 66.9155V66.9164Z" fill="#7F8BF5"/>
<path d="M50.0954 57.4426H36.0742C40.7467 57.4474 45.423 57.436 50.0954 57.4426Z" fill="#293EEE"/>
<defs>
<linearGradient id="paint0_linear_132_317" x1="50" y1="0" x2="50" y2="100" gradientUnits="userSpaceOnUse">
<stop stop-color="#EAECFD"/>
<stop offset="0.5" stop-color="#293EEE"/>
<stop offset="1"/>
</linearGradient>
</defs>
</svg>
