<svg width="100" height="100" viewBox="0 0 100 100" fill="none" xmlns="http://www.w3.org/2000/svg">
<rect x="1" y="1" width="98" height="98" rx="23" fill="url(#paint0_linear_132_286)"/>
<rect x="1" y="1" width="98" height="98" rx="23" stroke="url(#paint1_linear_132_286)" stroke-width="2"/>
<path d="M50.043 15.1555C50.249 22.9281 50.249 30.7017 50.043 38.4743L49.6226 38.6134C45.7567 38.6302 41.8898 38.6239 38.0218 38.5936L37.6003 38.4743C36.9217 38.2955 36.2127 38.2548 35.5278 38.0895C24.1789 35.3572 23.7888 18.8562 35.1733 15.603C38.6962 14.596 46.0798 15.1544 50.044 15.1544L50.043 15.1555Z" fill="#DF1A3F"/>
<path d="M62.3821 38.4743L62.1918 38.6741L60.3765 38.6699L60.1862 38.4754L58.1314 38.6845H50.1705L50.043 38.4754V15.1565C54.0699 15.1565 61.3029 14.6012 64.9148 15.6041C76.3055 18.7662 75.9091 35.4732 64.4745 38.1105C63.7823 38.2704 63.0712 38.3123 62.3821 38.4754V38.4743Z" fill="#CB431B"/>
<path d="M37.5987 38.4744C41.6048 38.261 45.9925 38.4744 50.0425 38.4744C50.124 38.4744 50.2495 38.4953 50.2516 38.5465C50.3708 41.694 50.2997 45.0685 50.0425 48.1993L50.238 48.3331C50.1564 49.4907 50.1564 50.6713 50.238 51.8299L50.0425 51.9638V61.6887L49.9703 61.8978H37.8298L37.7033 61.6887C30.0436 61.2286 24.9856 53.6881 27.3478 46.3662C28.7522 42.013 33.027 38.719 37.5987 38.4744Z" fill="#AF22EF"/>
<path d="M50.0425 61.6887C50.0425 65.7031 50.3322 70.3554 50.0415 74.2882C49.3314 83.8835 37.6051 88.4939 30.487 81.9249C22.8985 74.9219 27.6177 62.4175 37.7034 61.6897H50.0425V61.6887Z" fill="#B6ED0E"/>
<path d="M62.382 38.4743C72.7218 39.0641 77.0446 52.199 69.1235 58.9668C62.3987 64.7128 51.0959 60.7266 50.0429 51.9638C49.9467 51.1669 49.9467 48.9961 50.0429 48.1993C50.0324 45.6582 51.5685 43.3399 53.3483 41.625C55.1824 39.8568 57.575 38.4294 60.1861 38.4743C60.8072 38.4168 61.7483 38.4377 62.382 38.4743Z" fill="#4AAEEE"/>
<defs>
<linearGradient id="paint0_linear_132_286" x1="50" y1="0" x2="50" y2="100" gradientUnits="userSpaceOnUse">
<stop stop-color="#19191A"/>
<stop offset="1"/>
</linearGradient>
<linearGradient id="paint1_linear_132_286" x1="50" y1="0" x2="50" y2="100" gradientUnits="userSpaceOnUse">
<stop stop-color="white"/>
<stop offset="1"/>
</linearGradient>
</defs>
</svg>
