<svg width="100" height="100" viewBox="0 0 100 100" fill="none" xmlns="http://www.w3.org/2000/svg">
<rect x="1" y="1" width="98" height="98" rx="23" fill="url(#paint0_linear_132_2303)"/>
<rect x="1" y="1" width="98" height="98" rx="23" stroke="url(#paint1_linear_132_2303)" stroke-width="2"/>
<path d="M61.2788 82.4369C57.2154 80.3466 52.9855 78.319 49.8205 74.884C50.6398 71.7002 52.3284 68.6045 52.5613 65.0689C53.181 55.5093 46.4932 45.4513 37.1602 43.0593C37.3265 32.1257 43.2948 21.8289 51.5091 15.0007C58.0472 23.8271 66.8978 32.1216 72.6831 41.4214C81.9953 56.3807 77.6033 75.1688 61.2788 82.4411V82.4369Z" fill="#E0461C"/>
<path d="M36.7396 43.0593C36.2447 55.1072 40.7989 66.2921 49.1753 74.7457C47.2871 78.3861 43.6895 81.0797 40.0669 82.8558C27.5937 78.0384 21.2178 66.4303 22.7151 53.021C22.9147 51.2239 24.7032 44.7768 25.901 43.6625C27.5688 42.121 34.4147 42.565 36.7396 43.0593Z" fill="#E7B81B"/>
<path d="M61.2788 82.4369C53.7965 85.7715 47.6535 85.7882 40.0673 82.8559C43.6858 81.0797 47.2834 78.3861 49.1758 74.7457C40.8035 66.2879 36.2493 55.1072 36.7401 43.0593C36.8731 43.0887 37.027 43.0258 37.156 43.0593C46.4932 45.4513 53.1768 55.5094 52.5571 65.0689C52.3284 68.6045 50.6398 71.7045 49.8163 74.884C52.9814 78.3149 57.2112 80.3466 61.2746 82.4369H61.2788Z" fill="#862A11"/>
<defs>
<linearGradient id="paint0_linear_132_2303" x1="50" y1="0" x2="50" y2="100" gradientUnits="userSpaceOnUse">
<stop stop-color="#2D0E06"/>
<stop offset="1"/>
</linearGradient>
<linearGradient id="paint1_linear_132_2303" x1="50" y1="0" x2="50" y2="100" gradientUnits="userSpaceOnUse">
<stop stop-color="#E7B81B"/>
<stop offset="0.5" stop-color="#E0461C"/>
<stop offset="1"/>
</linearGradient>
</defs>
</svg>
