<svg width="100" height="100" viewBox="0 0 100 100" fill="none" xmlns="http://www.w3.org/2000/svg">
<rect x="1" y="1" width="98" height="98" rx="23" fill="url(#paint0_linear_121_233)"/>
<rect x="1" y="1" width="98" height="98" rx="23" stroke="url(#paint1_linear_121_233)" stroke-width="2"/>
<path d="M78.1293 25.9793L78.4727 28.719C78.7162 40.6375 78.7649 52.5997 78.4556 64.5205C78.4556 64.5764 78.3655 64.6298 78.251 64.6833C61.4685 64.8776 44.6422 64.931 27.7744 64.8412L27.4724 64.3554L26.9854 64.1854C26.9513 47.9799 26.9732 31.7818 27.0487 15.5886L27.4724 15.2898C27.6502 15.2388 27.9352 14.8963 28.2956 15.0299L75.2701 15.1052C76.2004 15.3068 77.1161 15.829 77.6057 16.6621C78.5384 18.2506 78.1098 23.8176 78.1293 25.9768V25.9793Z" fill="#B33816"/>
<path d="M78.1289 25.9792H82.9997V85.0008H25.4019C24.6981 85.0008 22.8325 83.0844 22.8593 82.193L22.8447 67.27C23.6435 65.8977 25.8841 64.3262 27.472 64.3554H78.1313C78.0461 51.5698 78.2409 38.7648 78.1313 25.9792H78.1289Z" fill="#5A1C0B"/>
<path d="M27.4723 15.2922V64.3554C25.8771 65.2152 24.3988 66.3543 22.845 67.27C20.9089 68.4116 18.9215 69.4973 17 70.6704V21.3644C20.3122 19.8561 23.4685 17.1527 26.6662 15.5691C26.9682 15.4185 27.1703 15.3797 27.4723 15.2922Z" fill="#E66B49"/>
<path d="M63.0292 25.9792V30.837H52.6786C52.6519 30.837 52.3133 31.1746 52.3133 31.2013V37.3949H61.3244V42.2527H52.3133V53.1826H45.4941V25.9792H63.0292Z" fill="#F9DAD2"/>
<path d="M61.2659 69.0334C66.1417 68.4043 66.3462 72.6961 65.9517 76.3783C65.4719 80.8474 58.4019 80.9106 57.9172 76.1306C57.6152 73.143 57.586 69.507 61.2659 69.0334Z" fill="#F9DAD2"/>
<path d="M56.4535 71.8824C55.8203 71.8217 55.0312 72.0136 54.4321 71.8363C53.7551 71.6347 53.8695 70.7603 52.4302 70.8939C51.1565 71.0105 51.003 72.2686 51.0956 73.3422C53.7453 72.1229 56.8481 73.0022 56.68 76.3443C56.4827 80.245 50.2383 80.828 48.9256 77.5684C48.5213 76.5653 48.5165 73.1746 48.6796 72.0282C49.2422 68.0667 55.8982 67.8554 56.4511 71.8849L56.4535 71.8824Z" fill="#F9DAD2"/>
<path d="M45.4948 74.0684C46.3034 74.1485 47.2093 74.9088 47.3896 75.7006C48.4782 80.4369 40.1393 81.1655 39.4062 76.745C40.0711 76.8397 41.0891 76.575 41.6809 76.7814C42.0292 76.9029 42.0755 77.3814 42.3458 77.5732C43.7291 78.5618 45.2269 77.3571 44.7155 75.6957C44.4135 74.7193 42.3677 74.9792 42.3141 74.6586C41.8831 72.0621 43.1958 73.6506 44.1772 72.8782C44.959 72.2637 44.6619 70.6243 43.2688 70.7918C42.2386 70.9157 42.1705 71.8241 41.9147 71.8873C41.3181 72.0354 40.3195 71.7755 39.6498 71.88C39.8568 67.9695 47.4675 68.0059 47.1899 71.9917C47.1168 73.0337 45.3706 73.9057 45.4948 74.0635V74.0684Z" fill="#F9DAD2"/>
<path d="M61.2519 70.9619C62.6182 70.5514 63.3708 71.212 63.4657 72.5625C63.5145 73.2523 63.5096 74.8918 63.4901 75.6204C63.4536 77.0073 62.6207 78.4987 61.0766 77.5927C60.4336 77.2138 60.441 72.6111 60.5993 71.7683C60.6723 71.3796 60.8525 71.0809 61.2495 70.9619H61.2519Z" fill="#5A1C0B"/>
<path d="M53.7167 77.413C51.8658 79.2541 49.4864 74.9525 52.4552 74.5615C54.3719 74.3089 54.4303 76.7013 53.7167 77.413Z" fill="#5A1C0B"/>
<defs>
<linearGradient id="paint0_linear_121_233" x1="50" y1="0" x2="50" y2="100" gradientUnits="userSpaceOnUse">
<stop stop-color="#2D0E06"/>
<stop offset="1"/>
</linearGradient>
<linearGradient id="paint1_linear_121_233" x1="50" y1="0" x2="50" y2="100" gradientUnits="userSpaceOnUse">
<stop stop-color="#F6C7BB"/>
<stop offset="0.3" stop-color="#E66B49"/>
<stop offset="1"/>
</linearGradient>
</defs>
</svg>
