<svg width="100" height="100" viewBox="0 0 100 100" fill="none" xmlns="http://www.w3.org/2000/svg">
<rect x="0.5" y="0.5" width="99" height="99" rx="23.5" fill="url(#paint0_linear_132_442)"/>
<rect x="0.5" y="0.5" width="99" height="99" rx="23.5" stroke="url(#paint1_linear_132_442)"/>
<path d="M41.5068 83.5629C40.7589 87.0701 33.3831 82.718 31.693 81.7066C-3.37185 60.7027 19.7264 4.83572 60.3538 16.6133C91.9996 25.7875 94.3437 71.3154 64.1581 83.8793C62.1248 84.7243 58.9451 86.3556 58.7444 82.8255C58.4757 78.0558 59.9877 73.1947 57.7601 68.487C57.4201 67.7692 56.4974 67.4135 56.7208 66.438C64.1385 66.2325 70.2157 62.4186 71.9803 54.8986C73.0779 50.2234 72.9711 45.7539 70.5881 41.5322C70.2061 40.8536 69.2122 40.3185 69.1118 39.4833C69.0277 38.7623 69.6073 37.4638 69.6623 36.5797C69.7336 35.3823 69.5747 31.3858 68.8624 30.5441C67.8846 29.3859 63.7371 31.089 62.5295 31.6762C61.665 32.0971 59.774 33.6435 59.0811 33.7511C57.8087 33.9469 52.2657 32.4852 50.0964 32.495C47.5806 32.5048 43.6112 33.8328 41.6491 33.7675C39.687 33.7023 34.5972 28.8476 31.4954 30.257C30.7863 32.6288 30.6667 35.0627 30.8415 37.5357C30.8869 38.1816 31.4922 39.007 31.3983 39.4736C31.1717 40.622 28.2902 43.4637 27.9276 46.3966C26.3929 58.8267 31.9684 64.2815 43.2746 66.4446C44.4564 66.6697 43.1255 67.4331 42.7305 68.1639C42.2545 69.048 41.6783 71.2894 41.3351 71.6515C40.1663 72.8945 36.5563 72.6531 35.0313 72.1311C30.3949 70.5423 30.453 64.3729 24.502 65.1233C23.8641 66.4512 25.9168 66.9633 26.7327 67.7692C29.0282 70.0333 29.3392 73.9549 32.2596 75.5764C35.2578 77.2402 38.2755 76.7801 41.497 76.5452C41.2056 78.5712 41.8953 81.6902 41.497 83.5596L41.5068 83.5629Z" fill="white"/>
<defs>
<linearGradient id="paint0_linear_132_442" x1="50" y1="0" x2="50" y2="100" gradientUnits="userSpaceOnUse">
<stop stop-color="#460E60"/>
<stop offset="1"/>
</linearGradient>
<linearGradient id="paint1_linear_132_442" x1="50" y1="0" x2="50" y2="100" gradientUnits="userSpaceOnUse">
<stop stop-color="#F7E9FD"/>
<stop offset="0.5" stop-color="#AF22EF"/>
<stop offset="1"/>
</linearGradient>
</defs>
</svg>
