<svg width="100" height="100" viewBox="0 0 100 100" fill="none" xmlns="http://www.w3.org/2000/svg">
<rect x="1" y="1" width="98" height="98" rx="23" fill="url(#paint0_linear_132_229)"/>
<rect x="1" y="1" width="98" height="98" rx="23" stroke="url(#paint1_linear_132_229)" stroke-width="2"/>
<path d="M68.5397 29.9512C68.5397 29.9481 68.5422 29.9455 68.5452 29.9453C69.5526 29.8599 69.8799 28.6776 70.5848 28.0453C72.619 26.2182 76.3847 24.0323 79.0488 23.4287C79.3188 23.3689 79.8749 22.9475 79.9895 23.5619C80.0904 24.103 79.4414 24.1682 79.1196 24.3205C76.7691 25.4542 71.1902 27.8577 69.8841 30.0681C69.1342 31.3378 70.9475 32.4634 70.3858 34.3747C70.0258 35.5982 68.3816 35.0871 68.248 36.0658C68.0735 37.3518 69.4123 37.727 70.4294 37.9826C72.6 38.5237 74.915 38.298 77.0828 37.8276C77.3473 37.7705 77.1237 36.8081 78.2308 37.5449C80.4831 39.0457 77.1401 38.7901 76.622 38.9587C76.1039 39.1272 75.9294 40.3534 74.9123 40.4704C73.57 40.6218 69.6951 38.4757 67.5414 38.8823C66.0537 39.1632 66.1404 41.192 66.222 42.7039C66.5176 48.1759 68.9638 53.3079 72.304 57.6523C72.413 57.7939 72.5224 57.9366 72.6326 58.0802C72.9369 58.4763 74.2029 59.4583 74.4112 60.1002C74.4734 60.292 74.3337 60.4674 74.1805 60.5985C73.9699 60.7786 73.6959 60.8803 73.4661 60.7254C72.3659 59.9837 70.1174 56.7343 69.4941 56.0438C68.0244 54.4152 64.6322 51.8976 64.4332 49.6573C64.2972 48.1243 65.3446 46.6263 65.003 45.0099C64.9739 44.8721 64.8999 44.7485 64.8018 44.6474L64.7866 44.6317C64.634 44.4744 64.4237 44.3862 64.2045 44.3876C63.8751 44.3896 63.5815 44.5927 63.4541 44.8966C61.8954 48.6128 59.212 52.1548 55.9746 54.5322C54.2159 55.8236 49.5449 58.121 48.5142 59.8719C47.1235 62.2355 44.7772 64.0011 43.58 66.4682C42.14 69.4357 40.7209 72.4134 39.2294 75.3557C38.8422 76.1224 38.0732 76.9924 37.7869 77.7455C37.5415 78.3872 37.7705 79.0886 37.7187 79.1376C37.6478 79.2028 37.0644 79.1539 36.6227 79.5536C36.2712 79.8691 34.7551 82.6706 33.492 84.1277C32.7059 85.0345 32.0282 84.215 32.5978 83.1587C33.9176 80.7254 36.0882 78.2676 37.4979 75.8097C39.0851 73.0378 40.4713 70.0713 41.8664 67.114C44.0595 62.4651 48.0384 58.927 51.7197 55.3396C53.2499 53.8483 54.7311 52.2826 56.4109 50.8943C58.2234 49.3985 57.749 49.1911 55.8022 50.5073L50.7338 53.934C49.9516 54.3428 49.1196 54.6512 48.2667 54.8322C45.8256 55.3503 45.028 53.5611 46.2945 51.4109C47.4234 49.4969 47.8925 47.6861 49.5013 45.6361C50.5153 44.3452 49.8773 42.7749 48.2452 42.9509C47.9639 42.9812 47.6868 43.0041 47.4152 43.0125C44.6545 43.0993 41.9496 42.9641 39.242 43.0795C36.2074 43.2089 33.5743 44.8107 31.1554 46.6475C30.0892 47.4577 26.3617 50.4321 25.5191 50.8128C24.1431 51.4321 22.1269 50.7235 20.4879 50.825C20.2327 50.8408 20 50.6474 20 50.3918C20 50.2033 20.129 50.0359 20.3168 50.0188C21.3262 49.9272 22.4503 50.4582 23.3403 50.2935C24.6274 50.057 30.1082 46.2098 31.3107 45.1685C32.3578 44.2658 33.6613 41.982 34.9211 41.6993C36.7971 41.2779 40.0992 41.7808 42.2234 41.6394C44.8902 41.4627 47.5624 40.4839 50.1365 40.2855C51.4427 40.1849 53.0106 40.4595 54.2376 40.2963C55.8628 40.0816 57.9107 36.558 59.1187 35.3753C59.7077 34.7989 62.2762 33.2111 62.418 32.9365C62.8788 32.0447 60.7548 29.1247 62.3636 29.1709C63.0864 29.1907 63.059 29.1573 63.2095 28.4501C63.2877 28.0821 63.5944 27.9116 64.2133 28.2531C64.2805 28.2902 64.328 28.3569 64.3445 28.4319C64.4164 28.7584 65.9827 29.3047 66.316 29.2782C66.6507 29.2517 67.0134 29.2429 67.3704 29.1782C67.5585 29.1441 67.6787 28.967 67.6644 28.7764L66.8144 17.4449C66.7146 16.1157 67.7258 15.4811 67.9671 16.792L68.5397 29.9512Z" fill="white"/>
<defs>
<linearGradient id="paint0_linear_132_229" x1="50" y1="0" x2="50" y2="100" gradientUnits="userSpaceOnUse">
<stop stop-color="#242F03"/>
<stop offset="1"/>
</linearGradient>
<linearGradient id="paint1_linear_132_229" x1="50" y1="0" x2="50" y2="100" gradientUnits="userSpaceOnUse">
<stop stop-color="#B6ED0E"/>
<stop offset="0.5" stop-color="#D3F46E"/>
<stop offset="1"/>
</linearGradient>
</defs>
</svg>
