<svg width="100" height="100" viewBox="0 0 100 100" fill="none" xmlns="http://www.w3.org/2000/svg">
<rect x="1" y="1" width="98" height="98" rx="23" fill="url(#paint0_linear_132_421)"/>
<rect x="1" y="1" width="98" height="98" rx="23" stroke="url(#paint1_linear_132_421)" stroke-width="2"/>
<path d="M25.0073 53.5864C24.7898 53.5395 24.6448 53.222 24.7014 53.0094C25.1183 51.8132 25.1853 50.2401 25.6119 49.0832C25.7458 48.7209 25.9522 48.6484 26.316 48.6139C29.0266 48.3606 32.1272 48.8106 34.8792 48.6146C35.2809 48.6822 35.4128 48.7816 35.4003 49.2033L34.4589 53.3055C34.1973 53.7949 33.1826 53.5043 32.7125 53.5954C31.5039 57.7693 29.4442 61.7645 24.7781 62.6066C19.1063 63.6302 15.3568 60.6953 15.0296 54.9352C14.6659 48.5235 17.6368 38.8269 24.8319 37.3974C30.2042 36.3303 33.5533 39.239 33.8107 44.5753C33.8301 44.9804 33.9439 45.9406 33.4821 46.0475L28.0409 46.0655C27.5218 45.9958 27.7088 45.3097 27.6557 44.9321C27.4383 43.3818 26.6735 42.3278 24.9941 43.0809C23.1532 43.9064 21.6747 48.052 21.2792 49.9267C20.8754 51.8436 20.1748 57.3869 23.3534 57.1771C24.7753 57.0832 25.9149 55.8539 26.4547 54.619C26.5127 54.4865 26.8992 53.5857 26.6639 53.5857C26.2449 53.5857 25.3538 53.6603 25.0073 53.5857V53.5864Z" fill="#B6ED0E"/>
<path d="M59.4851 59.3844H53.9286C53.7284 59.3844 52.8829 61.8092 52.6896 62.1488C52.6102 62.2882 52.5412 62.4035 52.379 62.4594L46.7541 62.4864C46.4476 62.4449 46.3358 62.1992 46.3717 61.9107L57.1479 38.1007C57.3336 37.75 57.3425 37.6099 57.7905 37.5699C60.1173 37.3614 62.7521 37.7341 65.112 37.5712C65.3529 37.5864 65.618 37.7583 65.6318 38.0178L65.6139 62.0964C65.5455 62.2876 65.4047 62.4912 65.1831 62.4939C63.49 62.3711 61.5986 62.6451 59.9303 62.4939C59.6397 62.4677 59.445 62.4021 59.3836 62.0874L59.4851 59.3851V59.3844ZM59.6232 54.0005L60.0718 44.1293C58.7245 47.3562 57.4316 50.6107 56.1305 53.8576C56.0746 53.9031 56.1968 54.0005 56.2064 54.0005H59.6232Z" fill="#B6ED0E"/>
<path d="M70.1841 57.4524L70.2538 57.6926C70.8888 58.1192 71.889 58.4215 72.4847 58.8439C72.611 58.9337 72.7166 59.0303 72.7794 59.176L72.1195 62.2517C72.0098 62.3649 71.9145 62.5002 71.7406 62.494C70.1385 62.3393 68.1851 62.6872 66.6265 62.494C66.3905 62.4643 66.1592 62.3159 66.1868 62.0515L71.7799 37.8232C71.9021 37.6154 72.1368 37.5913 72.3556 37.5706C74.3208 37.3876 77.9598 37.505 79.8476 38.022C87.4245 40.0968 85.6533 50.5858 80.8843 54.7266C77.8741 57.3399 74.0191 57.6215 70.1848 57.4524H70.1841ZM77.1895 42.9565C76.0637 42.8385 74.7474 43.0442 73.6002 42.9565C73.4317 43.1208 73.3723 43.1105 73.5698 43.263L76.0008 44.54L76.1037 44.7291L74.5313 51.86C76.9382 51.9933 78.2441 49.6892 78.6949 47.6371C79.0248 46.1351 79.3016 43.1774 77.1887 42.9559L77.1895 42.9565Z" fill="#B6ED0E"/>
<path d="M42.4905 37.1792C47.0944 36.7906 50.427 38.7233 50.652 43.6095C50.6727 44.054 50.7845 44.9555 50.204 45.0307L45.1072 45.0128C44.9712 44.9824 44.8194 44.863 44.7649 44.7339C44.6351 44.4288 44.6903 43.7441 44.5384 43.3037C44.0263 41.8155 41.7926 42.1793 41.6145 43.8269C41.3695 46.0896 44.5702 48.2638 45.8451 49.9356C49.6056 54.8688 47.492 62.4028 40.8159 62.8391C36.5219 63.12 33.0768 61.4655 32.7724 56.796C32.7379 56.2631 32.5646 54.9226 33.288 54.8971L38.3828 54.9137C38.9916 55.0497 38.6996 56.1596 38.8652 56.709C39.2752 58.0674 41.0216 57.9369 41.4206 56.611C42.2054 54.0018 38.3241 51.439 36.9664 49.4276C33.5289 44.3343 36.2347 37.7093 42.4905 37.1805V37.1792Z" fill="#B6ED0E"/>
<defs>
<linearGradient id="paint0_linear_132_421" x1="50" y1="0" x2="50" y2="100" gradientUnits="userSpaceOnUse">
<stop stop-color="#121801"/>
<stop offset="1"/>
</linearGradient>
<linearGradient id="paint1_linear_132_421" x1="50" y1="0" x2="50" y2="100" gradientUnits="userSpaceOnUse">
<stop stop-color="#B6ED0E"/>
<stop offset="1"/>
</linearGradient>
</defs>
</svg>
