<svg width="100" height="100" viewBox="0 0 100 100" fill="none" xmlns="http://www.w3.org/2000/svg">
<rect x="1" y="1" width="98" height="98" rx="23" fill="url(#paint0_linear_129_263)"/>
<rect x="1" y="1" width="98" height="98" rx="23" stroke="url(#paint1_linear_129_263)" stroke-width="2"/>
<path d="M75 28.7422L70.4178 79.4201L49.8786 85L29.5822 79.4201L25 28.7422H75Z" fill="#E0461C"/>
<path d="M53.786 15C54.0393 15.2515 55.7468 18.3707 55.9374 18.2411L57.7677 15H61.162V24.464H58.0288V19.9265C57.538 20.2104 56.1124 22.9783 55.8735 23.0379C55.6842 23.0846 55.6594 22.9187 55.568 22.824C54.8696 22.0889 54.4218 20.6369 53.5902 19.9265V24.464H50.457V15H53.786Z" fill="white"/>
<path d="M32.8334 15V18.1115H35.7054V15H38.9691V24.464H35.9012C35.8869 24.464 35.7054 24.2838 35.7054 24.2695V21.2229H33.0292C33.0148 21.2229 32.8334 21.4031 32.8334 21.4174V24.464H29.7002V15H32.8334Z" fill="white"/>
<path d="M49.1517 15V18.1115H46.2796V24.464H43.1465V18.1115H40.2744V15H49.1517Z" fill="white"/>
<path d="M65.9922 15V21.3526H70.4309V24.464H62.7285V15H65.9922Z" fill="white"/>
<path d="M34.3995 40.2806C34.1214 39.972 34.3251 39.3912 34.2689 38.9841H50.0653V32.8909H70.4308L66.4974 76.1738L50.0666 80.5999C49.9399 78.6876 50.2311 76.5783 50.0744 74.6881C50.0522 74.4275 50.0561 74.3705 49.8042 74.246C49.7755 73.9427 49.8381 73.8752 49.9752 74.1514L50.3264 74.1164L50.3447 73.8428L62.5392 70.5421C63.1671 64.3749 63.7467 58.1857 64.2768 51.9771L51.8773 51.9485C51.265 51.9174 50.6619 51.8306 50.0666 51.688C49.9648 51.7541 49.8616 51.815 49.7507 51.8604C49.6397 51.9058 49.5379 51.9447 49.4321 51.9485C47.0248 52.0276 44.6057 52.0497 42.1997 51.9667C41.564 52.0691 41.0862 51.395 41.7115 51.1694C41.8668 51.1136 42.0039 51.159 42.1214 51.3055L49.9099 51.299L50.0666 51.5583C49.9634 51.5466 49.812 51.5129 49.8055 51.439C49.6762 49.8846 49.6684 47.1686 49.8055 45.6206L50.0666 45.465L49.9465 45.7243H41.4765L41.3211 45.465C41.6762 45.7982 41.6802 46.1716 41.3211 46.5022C40.8603 46.4283 40.799 45.2071 41.2794 45.0748L49.9308 45.0281L50.141 45.2459L65.0809 45.2058C64.9804 45.1967 64.8277 45.1604 64.829 45.0969C64.8551 43.5995 65.0379 40.7953 65.3303 39.3718L65.6031 39.2421L50.0026 39.2097L49.7559 39.4353L34.7585 39.3731C34.7415 39.7944 34.6227 40.0978 34.4021 40.2793L34.3995 40.2806Z" fill="#E66B49"/>
<path d="M65.6001 39.2434L65.51 39.5027H50.0923L49.9343 39.2434L50.108 39.2538C50.2111 41.1531 50.2398 43.0874 50.1954 45.0554L49.9343 45.207L50.0257 44.9478H64.9187L65.0792 45.207L41.1889 45.3354L41.3195 46.5035L41.4931 46.5579C41.5962 47.9931 41.7346 49.4425 41.9095 50.9036L41.7111 51.1707C41.7672 51.369 41.5309 51.6659 41.903 51.6905C44.4866 51.8643 47.4382 51.6828 50.0662 51.6905L50.3247 51.8163L50.2255 57.5258L57.7137 57.531C58.1288 57.6995 58.0923 58.5098 57.638 58.5617C57.3456 58.4346 57.2424 58.1183 57.5466 58.0846C55.0087 58.257 52.4644 58.1961 49.9356 57.9135C45.2816 57.907 40.621 57.9186 35.967 57.9135L34.4004 40.2819V39.1138L65.6014 39.2447L65.6001 39.2434Z" fill="#E5E5E6"/>
<path d="M49.8039 74.2473L37.1564 70.7301L36.3574 61.0236H42.6237L43.0363 65.9281C45.1786 66.4272 47.3796 67.2686 49.5428 67.6355C49.8522 67.5693 50.0702 67.6121 50.1955 67.7651C50.0062 69.9042 50.0506 72.0226 50.3261 74.1177L49.8039 74.2473Z" fill="#E5E5E6"/>
<path d="M49.9343 57.9122C52.4996 57.9161 55.0714 57.9096 57.6379 57.9122C57.6314 58.1274 57.6484 58.3465 57.6379 58.5617C57.7633 58.786 57.8364 59.0258 57.8533 59.2825L57.168 66.0396C54.9617 66.7721 52.711 67.4177 50.416 67.9765L50.1967 67.7664C49.9343 67.8818 49.6849 67.6601 49.5439 67.6368L50.0674 67.4462L49.9356 57.9135L49.9343 57.9122Z" fill="#E66B49"/>
<path d="M50.0657 51.6893C54.8934 51.701 59.7341 51.6258 64.5579 51.7554L62.8425 70.7288L50.3268 74.1164C49.8699 74.132 49.9665 74.1968 49.9352 73.7988C49.8164 72.3001 49.8033 69.6981 49.926 68.2059C49.9469 67.9453 49.9443 67.8883 50.1963 67.7638L56.9717 65.9372C57.0618 63.4752 57.5109 61.0146 57.6375 58.5591L57.7681 57.7813H49.9339L50.0657 51.688V51.6893Z" fill="white"/>
<path d="M65.6004 39.2434L65.0782 45.207H49.9346V39.2434H65.6004Z" fill="white"/>
<path d="M41.3184 46.5035C41.3236 46.1587 41.3145 45.8112 41.3184 45.4664H50.0651V51.5596L41.9228 51.5674C41.8771 51.5545 41.7348 51.2433 41.71 51.1707C41.4607 50.433 41.304 47.4033 41.3184 46.5035Z" fill="#E0461C"/>
<defs>
<linearGradient id="paint0_linear_129_263" x1="50" y1="0" x2="50" y2="100" gradientUnits="userSpaceOnUse">
<stop stop-color="#5A1C0B"/>
<stop offset="1"/>
</linearGradient>
<linearGradient id="paint1_linear_129_263" x1="50" y1="0" x2="50" y2="100" gradientUnits="userSpaceOnUse">
<stop stop-color="white"/>
<stop offset="0.5" stop-color="#E0461C"/>
<stop offset="1"/>
</linearGradient>
</defs>
</svg>
