<svg width="100" height="100" viewBox="0 0 100 100" fill="none" xmlns="http://www.w3.org/2000/svg">
<g clip-path="url(#clip0_129_228)">
<path d="M15.4466 0.0489493L84.2609 0C92.9705 1.09786 99.4269 8.21125 99.9915 17.2179L100 82.6055C99.563 91.6856 92.7579 99.1766 83.931 100H15.9006C7.12476 99.0123 0.578143 91.8167 0.0102025 82.7716L0 17.5571C0.491421 8.45775 6.64524 1.33911 15.4466 0.0489493ZM73.5517 21.8489H64.6245C64.6789 22.0202 64.4544 22.2282 64.4544 22.2859V35.5722C64.4544 35.6089 64.7095 35.7697 64.6245 35.8327C62.4479 35.8694 60.2595 35.7103 58.1017 36.0337C48.7459 37.4323 42.3796 45.4442 42.8523 55.1607C43.5869 70.2615 57.0389 73.4939 69.287 70.2615C69.9859 70.0762 73.6435 68.9521 73.8934 68.5291L73.5517 21.8506V21.8489ZM36.2274 70.7982L36.406 69.4941L36.3567 26.3487C36.224 25.7823 36.2376 25.5848 35.6425 25.5096C34.1699 25.3225 29.254 25.3103 27.8019 25.5096C27.5774 25.5411 27.0452 25.7334 27.0452 25.9554V70.5342L27.3002 70.7965H36.2274V70.7982Z" fill="url(#paint0_linear_129_228)"/>
<path d="M73.5512 21.8489L73.893 68.5273C73.6447 68.9504 69.9871 70.0762 69.2865 70.2598C57.0384 73.4922 43.5864 70.2598 42.8518 55.1589C42.3791 45.4442 48.7455 37.4323 58.1012 36.032C60.2607 35.7085 62.4475 35.8694 64.624 35.8309C64.709 35.768 64.4539 35.6071 64.4539 35.5704V22.2842C64.4539 22.2265 64.6784 22.0185 64.624 21.8471H73.5512V21.8489ZM64.4539 62.9314V44.1383C62.6345 43.3481 59.9444 43.6628 58.0757 44.3988C52.7585 46.4949 51.2468 52.5768 53.0577 57.7777C54.8381 62.8877 59.7574 63.6149 64.4539 62.9314Z" fill="#DF1A3F"/>
<path d="M36.2272 70.7982H27.3L27.0449 70.536V25.9571C27.0449 25.7351 27.5772 25.5428 27.8016 25.5113C29.2521 25.3103 34.1697 25.3243 35.6422 25.5113C36.2374 25.5865 36.2238 25.7858 36.3564 26.3505L36.4057 69.4958L36.2272 70.8V70.7982Z" fill="#DF1A3F"/>
<path d="M64.4541 62.9314C59.7576 63.6149 54.8383 62.8877 53.0579 57.7777C51.247 52.5786 52.7587 46.4949 58.0759 44.3988C59.9446 43.6628 62.6347 43.3481 64.4541 44.1383V62.9314Z" fill="url(#paint1_linear_129_228)"/>
</g>
<rect x="1" y="1" width="98" height="98" rx="23" stroke="url(#paint2_linear_129_228)" stroke-width="2"/>
<defs>
<linearGradient id="paint0_linear_129_228" x1="50" y1="0" x2="50" y2="100" gradientUnits="userSpaceOnUse">
<stop stop-color="#2D050D"/>
<stop offset="1"/>
</linearGradient>
<linearGradient id="paint1_linear_129_228" x1="58.3906" y1="43.6765" x2="58.3906" y2="63.1484" gradientUnits="userSpaceOnUse">
<stop stop-color="#2D050D"/>
<stop offset="1"/>
</linearGradient>
<linearGradient id="paint2_linear_129_228" x1="50" y1="0" x2="50" y2="100" gradientUnits="userSpaceOnUse">
<stop stop-color="#DF1A3F"/>
<stop offset="1"/>
</linearGradient>
<clipPath id="clip0_129_228">
<rect width="100" height="100" rx="24" fill="white"/>
</clipPath>
</defs>
</svg>
