<svg width="100" height="100" viewBox="0 0 100 100" fill="none" xmlns="http://www.w3.org/2000/svg">
<rect x="1" y="1" width="98" height="98" rx="23" fill="url(#paint0_linear_132_191)"/>
<rect x="1" y="1" width="98" height="98" rx="23" stroke="url(#paint1_linear_132_191)" stroke-width="2"/>
<path d="M76.308 20.046V22.1344C74.7115 38.8156 73.3721 55.522 71.7945 72.2059C71.7413 72.7673 71.6845 73.3322 71.6077 73.8909L50.0728 80L28.5939 73.9541L23.6924 20L76.308 20.0478V20.046Z" fill="#E7B81B"/>
<path d="M50.2889 75.686C50.2564 75.695 50.1635 75.7807 50.1445 75.7094V24.7986H71.748L67.619 70.9812C65.7084 71.5443 63.7878 72.0723 61.8583 72.5651C61.5198 72.705 61.1642 72.8015 60.8023 72.853C60.638 72.9423 60.4612 72.9911 60.2744 72.9974C59.0569 73.3791 57.8213 73.7167 56.5777 74.0055C54.4974 74.6147 52.3954 75.1815 50.2889 75.686Z" fill="#F1D476"/>
<path d="M48.1282 31.6154V66.9479L32.6221 62.6997V56.4832C34.197 56.8902 35.7584 57.3496 37.327 57.7792C38.1879 57.9408 39.0336 58.1953 39.8711 58.4516C40.844 58.7124 41.8079 59.0265 42.7989 59.2196L42.8954 31.6163H48.1282V31.6154Z" fill="#FDF8E8"/>
<path d="M56.5773 74.0055C56.6252 74.0019 56.6423 74.0046 56.6252 74.0533C54.5945 74.6075 52.562 75.1706 50.5278 75.7085C50.4691 75.7239 50.2416 75.8457 50.2886 75.6851C52.3698 75.0804 54.4853 74.5732 56.5773 74.0046V74.0055Z" fill="#E7B81B"/>
<path d="M67.6188 70.9811L67.6675 71.0281C65.7425 71.5362 63.8265 72.0876 61.9059 72.6138C61.8581 72.6174 61.8409 72.6147 61.858 72.566C63.7777 72.0434 65.6901 71.4739 67.6188 70.982V70.9811Z" fill="#E7B81B"/>
<path d="M60.2738 72.9974C60.3217 72.9938 60.3388 72.9965 60.3217 73.0453C59.0907 73.3819 57.856 73.7176 56.625 74.0534L56.5771 74.0055C57.801 73.6734 59.0428 73.3323 60.2738 72.9974Z" fill="#E7B81B"/>
<path d="M37.3262 57.7792C37.3749 57.6854 37.4859 57.7476 37.5554 57.7648C38.3388 57.9624 39.1095 58.216 39.8965 58.4011L39.8703 58.4507C39.0238 58.2242 38.1718 58.0103 37.3262 57.7783V57.7792Z" fill="#E7B81B"/>
<path d="M61.8583 72.5651L61.9062 72.6129C61.5551 72.7095 61.2013 72.8051 60.8502 72.9008C60.8024 72.9044 60.7852 72.9017 60.8024 72.853C61.1535 72.7573 61.5073 72.6607 61.8583 72.5651Z" fill="#E7B81B"/>
<path d="M60.8023 72.853L60.8502 72.9008C60.6742 72.9486 60.4974 72.9965 60.3223 73.0452L60.2744 72.9974C60.4495 72.9495 60.6264 72.9008 60.8023 72.853Z" fill="#E7B81B"/>
<path d="M57.4418 47.1223L67.9551 45.9698L66.5581 63.2475L52.3056 66.9487L52.2307 60.7052L62.4832 57.948L62.6268 52.8587L52.4499 54.6105L52.209 31.6632L69.1077 31.5675L68.6032 37.905H57.514C57.5086 37.905 57.4418 37.9717 57.4418 37.9772V47.1223Z" fill="#FDF8E8"/>
<defs>
<linearGradient id="paint0_linear_132_191" x1="50" y1="0" x2="50" y2="100" gradientUnits="userSpaceOnUse">
<stop stop-color="#2E2505"/>
<stop offset="1"/>
</linearGradient>
<linearGradient id="paint1_linear_132_191" x1="50" y1="0" x2="50" y2="100" gradientUnits="userSpaceOnUse">
<stop stop-color="#E7B81B"/>
<stop offset="1"/>
</linearGradient>
</defs>
</svg>
