<svg width="100" height="100" viewBox="0 0 100 100" fill="none" xmlns="http://www.w3.org/2000/svg">
<rect x="1" y="1" width="98" height="98" rx="23" fill="url(#paint0_linear_132_402)"/>
<rect x="1" y="1" width="98" height="98" rx="23" stroke="url(#paint1_linear_132_402)" stroke-width="2"/>
<rect x="15" y="15" width="70" height="70" rx="35" fill="#EDF7FD"/>
<path d="M52.0573 35.0397C53.4944 34.9549 56.3507 37.4042 57.5193 38.3527C58.5833 39.2184 59.9098 40.3504 60.8849 41.3009C61.6824 42.0778 64.1776 44.6296 64.3217 45.5585C64.7323 48.2266 63.1393 55.6926 62.2155 58.416C61.266 61.2083 60.3658 61.2103 57.8154 62.3028C55.265 63.3953 50.8944 64.9926 48.198 65.3141C46.4865 65.5172 46.0424 65.04 44.7317 64.1447C42.2859 62.4744 38.0161 58.7867 36.204 56.4933C35.7914 55.9707 35.3947 55.5073 35.3138 54.819C34.992 52.143 36.7133 43.1585 37.9391 40.6698C38.6695 39.1889 42.2898 37.9544 43.9026 37.3588C45.8943 36.6252 50.0734 35.158 52.0592 35.0397H52.0573Z" fill="url(#paint2_linear_132_402)"/>
<path d="M65.6999 77.6076C65.7749 77.935 65.7573 78.215 65.5224 78.4812C65.2223 78.8184 61.754 80.3053 61.0828 80.5538C54.766 82.8907 47.6654 83.1095 41.1986 81.2835C39.6708 80.8516 37.7658 80.5025 36.996 78.9742C36.311 77.6195 35.7149 74.8429 35.3813 73.2909C34.572 69.5263 34.0312 65.4581 34.2266 61.6107C34.3825 61.3858 34.5464 61.4115 34.7853 61.4489C35.4327 61.5515 37.2269 63.7109 37.8843 64.2827C45.8119 71.1868 55.3306 75.7026 65.704 77.6076H65.6999Z" fill="url(#paint3_linear_132_402)"/>
<path d="M66.4476 22.198C66.8641 22.0935 68.6684 23.4601 69.1343 23.7914C75.0109 27.9563 79.6911 34.882 81.4104 41.8965C81.7579 43.3104 82.3957 45.3455 81.6001 46.6234C80.1216 48.9977 74.699 53.3617 72.2927 55.0735C71.5978 55.5665 68.5676 57.6844 67.9873 57.6922C67.6221 57.6962 67.3064 57.6075 67.2985 57.1934C67.2906 56.7063 68.0663 54.3576 68.2203 53.5688C70.2456 43.2177 69.7008 32.7246 65.9521 22.8291L66.4476 22.198Z" fill="url(#paint4_linear_132_402)"/>
<path d="M30.3271 24.3929C32.2419 23.9965 37.8815 26.002 39.9049 26.7632C41.8848 27.5087 44.3602 28.5164 46.1783 29.5674C46.6974 29.8672 47.8226 30.301 47.7338 30.9202C47.5798 31.5039 43.9299 32.3342 43.1107 32.6241C33.4776 36.0494 26.7759 40.8552 19.7169 48.1024C17.9344 49.9324 17.3263 51.1117 17.5414 47.1124C17.8928 40.5811 21.3434 33.2393 25.6487 28.3921C26.4738 27.4633 29.2592 24.6118 30.3271 24.3909V24.3929Z" fill="url(#paint5_linear_132_402)"/>
<path d="M81.6468 50.2025C81.8738 50.1453 82.0495 50.2006 82.2153 50.3583L82.4996 50.8809C82.1147 59.6426 78.1114 68.7533 71.3465 74.4406C70.5392 75.119 69.8067 75.7855 68.6677 75.7263C65.6949 75.5705 59.5301 73.1923 56.6994 71.9065C56.0361 71.6048 52.4041 69.8537 52.1889 69.5105C52.0882 69.3508 52.0507 69.2147 52.1079 69.0313C52.2283 68.627 57.0785 67.2585 57.9233 66.9469C65.537 64.1329 72.8645 59.4237 78.5535 53.6378C79.0233 53.1586 81.3548 50.2794 81.6489 50.2045L81.6468 50.2025Z" fill="url(#paint6_linear_132_402)"/>
<path d="M31.7125 42.3283C32.1231 42.2612 32.5338 42.2612 32.5457 42.77C31.9535 45.1226 31.3356 47.5048 31.002 49.9146C29.8926 57.9387 30.5004 65.669 32.6521 73.4526C32.8811 74.2789 33.886 76.5644 33.8959 77.1402C33.8978 77.2901 33.8741 77.4006 33.7577 77.5051L33.2464 77.789C26.3078 73.9692 20.8871 66.7438 18.7493 59.1417C18.2558 57.3826 17.3873 54.748 18.4513 53.1566C19.914 50.9676 25.0958 46.718 27.358 45.095C28.0508 44.5981 31.1381 42.4269 31.7106 42.3322L31.7125 42.3283Z" fill="url(#paint7_linear_132_402)"/>
<path d="M49.0945 17.5046C52.5727 17.4396 58.0072 18.0607 61.1735 19.52C63.0705 20.3936 63.1476 21.6873 63.6865 23.5173C64.7208 27.0216 66.1459 34.3614 65.7254 37.8657C65.4787 39.9264 62.806 36.4458 62.1664 35.8818C54.2112 28.891 44.6551 24.3376 34.2185 22.3912C34.0883 22.2098 34.0882 21.9219 34.1572 21.7148C34.2757 21.354 37.4894 19.9479 38.0856 19.7172C41.4868 18.3999 45.4388 17.5736 49.0966 17.5046H49.0945Z" fill="url(#paint8_linear_132_402)"/>
<defs>
<linearGradient id="paint0_linear_132_402" x1="50" y1="0" x2="50" y2="100" gradientUnits="userSpaceOnUse">
<stop stop-color="#071118"/>
<stop offset="1"/>
</linearGradient>
<linearGradient id="paint1_linear_132_402" x1="50" y1="0" x2="50" y2="100" gradientUnits="userSpaceOnUse">
<stop stop-color="#DBEFFC"/>
<stop offset="1"/>
</linearGradient>
<linearGradient id="paint2_linear_132_402" x1="49.8312" y1="35.0376" x2="49.8312" y2="65.3605" gradientUnits="userSpaceOnUse">
<stop stop-color="#323234"/>
<stop offset="1" stop-color="#071118"/>
</linearGradient>
<linearGradient id="paint3_linear_132_402" x1="49.963" y1="61.4242" x2="49.963" y2="82.5" gradientUnits="userSpaceOnUse">
<stop stop-color="#4AAEEE"/>
<stop offset="1" stop-color="#2C688F"/>
</linearGradient>
<linearGradient id="paint4_linear_132_402" x1="73.9674" y1="22.1923" x2="73.9674" y2="57.6924" gradientUnits="userSpaceOnUse">
<stop stop-color="#4AAEEE"/>
<stop offset="1" stop-color="#2C688F"/>
</linearGradient>
<linearGradient id="paint5_linear_132_402" x1="32.6194" y1="24.3415" x2="32.6194" y2="49.794" gradientUnits="userSpaceOnUse">
<stop stop-color="#4AAEEE"/>
<stop offset="1" stop-color="#2C688F"/>
</linearGradient>
<linearGradient id="paint6_linear_132_402" x1="67.2903" y1="50.1805" x2="67.2903" y2="75.73" gradientUnits="userSpaceOnUse">
<stop stop-color="#4AAEEE"/>
<stop offset="1" stop-color="#2C688F"/>
</linearGradient>
<linearGradient id="paint7_linear_132_402" x1="25.9206" y1="42.2973" x2="25.9206" y2="77.789" gradientUnits="userSpaceOnUse">
<stop stop-color="#4AAEEE"/>
<stop offset="1" stop-color="#2C688F"/>
</linearGradient>
<linearGradient id="paint8_linear_132_402" x1="49.9561" y1="17.5" x2="49.9561" y2="38.5114" gradientUnits="userSpaceOnUse">
<stop stop-color="#4AAEEE"/>
<stop offset="1" stop-color="#2C688F"/>
</linearGradient>
</defs>
</svg>
