<svg width="100" height="100" viewBox="0 0 100 100" fill="none" xmlns="http://www.w3.org/2000/svg">
<rect x="1" y="1" width="98" height="98" rx="23" fill="url(#paint0_linear_132_224)"/>
<rect x="1" y="1" width="98" height="98" rx="23" stroke="url(#paint1_linear_132_224)" stroke-width="2"/>
<path d="M72.7463 15.0207C75.7359 15.3793 78.2114 17.5864 78.7657 20.5359C79.7162 20.6613 79.7162 22.9311 78.7657 23.044C79.5156 23.7763 78.6478 25.1407 78.1286 25.9182C75.4801 29.8884 68.7785 29.748 66.2228 25.7552C65.7463 25.0128 64.9388 23.6785 65.7238 23.044C64.8786 22.8734 64.8811 20.7064 65.7238 20.5359C66.1652 17.5388 69.1398 15.3693 71.9939 15.0207C72.2146 14.9931 72.5256 14.9931 72.7463 15.0207Z" fill="#E0461C"/>
<path d="M65.7242 20.5359C65.6439 21.0726 65.6439 22.5072 65.7242 23.044L65.5511 23.5456H19.3829L19.0744 23.044L19.576 23.2195V82.1563L19.0744 82.4673L19.2499 81.9657H80.464L80.7725 82.4673L80.2709 82.2917V23.7312C79.5636 23.6785 79.0595 23.4503 78.7661 23.044C78.9993 21.8075 78.9968 21.7724 78.7661 20.5359C80.5668 20.6764 83.0748 19.8036 83.5438 22.1536V83.1094C83.6492 83.927 83.0798 84.3759 82.5205 84.8424L18.1789 84.9879C17.3613 85.0907 16.9124 84.5214 16.4434 83.9646V21.5442L17.3212 20.6663L65.7216 20.5359H65.7242Z" fill="#19258F"/>
<path d="M65.7245 23.0439C66.7277 29.7881 77.387 30.39 78.7664 23.0439H80.7753V82.4673H19.0771V23.0439H65.727H65.7245Z" fill="#293EEE"/>
<path d="M35.8789 29.0633C35.139 29.8558 34.1232 32.1883 34.1232 33.2016V47.3671L45.264 33.0561C46.1017 31.8397 46.2798 30.5155 46.1619 29.0658H62.4642L60.5756 30.5631C55.1858 36.9085 49.4348 43.4445 44.4187 50.0758C44.0325 50.5874 43.0845 51.6734 43.1371 52.2478L58.4588 73.5035L60.1969 75.5852L62.4617 77.7095H45.9085C46.1242 75.841 45.5323 74.2409 44.5065 72.716L34.1206 58.6533V73.822C34.1206 74.8052 35.1063 76.8116 35.6255 77.7095H20.828C21.0537 76.9044 21.7308 76.3376 21.9992 75.4949C22.1898 74.898 22.2601 74.2058 22.3428 73.5813C21.5904 60.5143 23.3109 46.3864 22.3428 33.4449C22.2149 31.7168 21.7208 30.3725 20.5771 29.0683H35.8763L35.8789 29.0633Z" fill="white"/>
<path d="M78.0137 42.1002V74.8203C78.0137 75.4974 78.9166 77.0474 79.2678 77.7045H65.2227C65.3405 77.3358 65.7494 77.1427 65.9375 76.7891C66.5519 75.6304 66.6698 72.9944 66.74 71.5723C67.0861 64.3391 67.1312 54.9439 66.74 47.7308C66.6672 46.4191 66.5168 44.1016 65.9399 43.0131C65.7518 42.6595 65.3405 42.4688 65.2251 42.0977H78.0162L78.0137 42.1002Z" fill="white"/>
<defs>
<linearGradient id="paint0_linear_132_224" x1="50" y1="0" x2="50" y2="100" gradientUnits="userSpaceOnUse">
<stop stop-color="#080C30"/>
<stop offset="1"/>
</linearGradient>
<linearGradient id="paint1_linear_132_224" x1="50" y1="0" x2="50" y2="100" gradientUnits="userSpaceOnUse">
<stop stop-color="#E66B49"/>
<stop offset="0.3" stop-color="#5465F1"/>
<stop offset="1"/>
</linearGradient>
</defs>
</svg>
