<svg width="100" height="100" viewBox="0 0 100 100" fill="none" xmlns="http://www.w3.org/2000/svg">
<rect x="1" y="1" width="98" height="98" rx="23" fill="url(#paint0_linear_132_298)"/>
<rect x="1" y="1" width="98" height="98" rx="23" stroke="url(#paint1_linear_132_298)" stroke-width="2"/>
<path d="M28.4798 15.0009H74.9523C76.1656 14.9542 78.1268 16.7794 78.1268 17.9175V25.8896L82.923 26.0193C82.9295 26.0802 82.9308 26.1398 82.9127 26.1917C82.8388 26.4133 78.6764 26.3472 78.2785 26.2785L78.1268 26.0193L78.3861 26.1437V63.9678L78.1268 64.1299L78.0037 64.3891C61.2391 64.3438 44.5081 64.3684 27.8122 64.463L27.5737 64.2595L27.3145 64.1351L27.4415 15.3638C27.6878 15.1266 28.0352 15.0048 28.4811 15.0009H28.4798Z" fill="#3B8BBE"/>
<path d="M82.9222 26.0193V85H25.9512C24.9337 85 23.5324 83.8178 23.1396 82.8858C22.6561 81.7373 22.9569 81.3419 22.9115 80.2621C22.896 79.8952 22.7793 79.5738 22.7702 79.2367C22.6626 75.2442 22.8609 71.2335 22.7754 67.241L22.8298 66.9026C24.2505 65.8656 25.7322 64.931 27.2735 64.0975L27.5729 64.2582C27.8788 64.1467 28.3364 64.1662 28.6669 64.1247L78.1274 64.1286V26.018H82.9235L82.9222 26.0193Z" fill="#1E465F"/>
<path d="M28.4794 15.0008L27.6991 15.2043L27.572 64.2594C26.22 64.7494 24.0812 66.4553 22.7758 67.2408C20.8872 68.3764 18.935 69.4303 17.0723 70.6112V21.4173L27.5786 15.0721L28.4794 15.0008Z" fill="#6EBEF1"/>
<path d="M47.404 26.0192L52.9767 47.7967L58.6815 26.0192H66.9777V53.2411H60.4963V36.0006L55.9542 53.2359L49.5572 53.2489L44.6818 35.2228V53.2411H38.8486V26.0192H47.404Z" fill="#EDF7FD"/>
<path d="M46.9501 79.426C46.3163 79.3119 46.3733 77.6125 46.0454 77.2197C45.7991 76.9255 43.4178 77.1653 42.8799 77.1057C42.7645 77.4388 42.4819 79.1525 42.3212 79.2705C42.0632 79.461 39.9101 79.5025 39.7559 79.2951L42.6699 69.1828C42.8656 68.9223 45.6021 69.0726 46.1141 69.1154L49.1992 79.1279C49.3184 79.286 48.9166 79.4273 48.8959 79.4273C48.3476 79.4273 47.4337 79.5142 46.9515 79.4273L46.9501 79.426Z" fill="#EDF7FD"/>
<path d="M63.8024 79.426C63.7142 79.4118 63.3953 79.2847 63.3461 79.2031C63.1918 78.9503 62.8639 77.1031 62.755 77.0849L59.5947 77.0979C59.5351 77.4881 59.2616 79.0734 59.0386 79.264C58.6886 79.5647 57.1085 79.4195 56.6133 79.2886L59.6491 69.0454L62.9469 69.0675L65.9412 79.4247C65.2788 79.3521 64.4376 79.5233 63.8024 79.4247V79.426Z" fill="#EDF7FD"/>
<path d="M51.0348 69.0558L52.9779 73.3335L54.8588 69.0558H57.2569C57.2776 69.1997 57.2465 69.3164 57.1998 69.4512C56.8602 70.4182 54.1458 74.7361 54.1458 75.2131V79.2964C54.0188 79.2549 53.8645 79.426 53.8218 79.426H51.7477C51.7335 79.426 51.5533 79.2459 51.5533 79.2316V75.2131C51.5533 74.7141 48.8428 70.4273 48.4993 69.4512C48.4513 69.3164 48.4215 69.1997 48.4422 69.0558H51.0348Z" fill="#EDF7FD"/>
<path d="M44.5525 71.0002L45.4599 75.1483C44.9634 75.1483 44.4644 75.1509 43.9666 75.1483C43.7475 75.1483 43.4105 75.4205 43.4131 74.9875C43.417 74.3964 44.0833 71.8959 44.2907 71.1907C44.3464 71.0015 44.2155 70.9652 44.5525 71.0002Z" fill="#1E465F"/>
<path d="M62.1812 75.2779C61.9426 75.239 61.7249 75.156 61.476 75.143C61.1753 75.1275 60.1408 75.3103 60.1084 75.0821L61.2102 70.8718L62.1812 75.2779Z" fill="#1E465F"/>
<defs>
<linearGradient id="paint0_linear_132_298" x1="50" y1="0" x2="50" y2="100" gradientUnits="userSpaceOnUse">
<stop stop-color="#071118"/>
<stop offset="1"/>
</linearGradient>
<linearGradient id="paint1_linear_132_298" x1="50" y1="0" x2="50" y2="100" gradientUnits="userSpaceOnUse">
<stop stop-color="#EDF7FD"/>
<stop offset="1"/>
</linearGradient>
</defs>
</svg>
