<svg width="100" height="100" viewBox="0 0 100 100" fill="none" xmlns="http://www.w3.org/2000/svg">
<rect x="1" y="1" width="98" height="98" rx="23" fill="url(#paint0_linear_132_414)"/>
<rect x="1" y="1" width="98" height="98" rx="23" stroke="url(#paint1_linear_132_414)" stroke-width="2"/>
<path d="M76.4004 17.5239C79.3907 17.4337 82.1598 19.8522 82.5454 22.7931L82.5382 77.3704C81.1921 84.2912 71.5285 84.086 70.5986 77.0852L70.6059 22.6578C71.0177 19.8988 73.6225 17.6084 76.4004 17.5254V17.5239Z" fill="#60EDB7"/>
<path d="M63.6808 37.6546C64.3865 38.5612 64.7794 39.5041 64.9351 40.6915L64.9206 77.3587C63.4291 84.2416 54.2266 84.1267 52.8646 77.2103L52.8545 40.8458C53.4889 35.3438 60.1462 33.1145 63.6822 37.6546H63.6808Z" fill="#60EDB7"/>
<path d="M41.0405 17.5254C44.8602 17.3857 47.2205 20.5405 47.2918 24.11C47.5086 34.9233 47.1347 45.8705 47.1682 56.7129C47.1696 57.2455 47.334 57.7301 47.3296 58.3122C47.2656 66.3272 36.5964 67.1261 35.2373 59.4777L35.2562 22.6679C35.7728 19.8944 38.1767 17.6302 41.0405 17.5254Z" fill="#60EDB7"/>
<path d="M22.8407 52.8873C25.9926 52.4958 29.2812 54.9434 29.5766 58.155C30.1412 64.3161 29.1707 71.3722 29.536 77.625C28.2612 84.2693 18.2409 83.8663 17.6327 77.2293C17.0652 71.0521 18.062 64.0018 17.6473 57.733C18.1828 55.3087 20.3598 53.1943 22.8422 52.8873H22.8407Z" fill="#60EDB7"/>
<path d="M19.2878 45.3772C18.5195 44.5928 17.7497 43.11 17.6377 42.007L17.6712 22.3986C19.2617 15.9232 28.0945 16.0032 29.5308 22.5471L29.5336 42.2645C28.5383 46.9647 22.722 48.8797 19.2878 45.3772Z" fill="#60EDB7"/>
<path d="M63.4188 19.5815C68.6137 25.4531 59.8244 33.2105 54.5044 27.6242C49.0053 21.8501 58.122 13.5949 63.4188 19.5815Z" fill="#60EDB7"/>
<path d="M41.0404 70.4933C46.7053 70.2882 49.5166 77.6484 44.9169 81.2223C40.0741 84.9839 33.3062 79.7772 35.7116 74.1996C36.5992 72.1435 38.7864 70.5748 41.039 70.4933H41.0404Z" fill="#60EDB7"/>
<defs>
<linearGradient id="paint0_linear_132_414" x1="50" y1="0" x2="50" y2="100" gradientUnits="userSpaceOnUse">
<stop stop-color="#0A1812"/>
<stop offset="1"/>
</linearGradient>
<linearGradient id="paint1_linear_132_414" x1="50" y1="0" x2="50" y2="100" gradientUnits="userSpaceOnUse">
<stop stop-color="#60EDB7"/>
<stop offset="1"/>
</linearGradient>
</defs>
</svg>
