<svg width="100" height="100" viewBox="0 0 100 100" fill="none" xmlns="http://www.w3.org/2000/svg">
<rect x="1" y="1" width="98" height="98" rx="23" fill="url(#paint0_linear_121_230)"/>
<rect x="1" y="1" width="98" height="98" rx="23" stroke="url(#paint1_linear_121_230)" stroke-width="2"/>
<path d="M34.169 30.3915C36.8498 30.0854 39.3896 30.6635 41.5619 32.2633C44.1224 34.1495 46.3555 39.1922 49.7842 39.3858C53.4897 39.5951 55.5701 34.7133 58.0025 32.6426C64.0796 27.4705 73.8234 31.4641 74.548 39.4629C74.9258 43.6331 71.5877 50.872 74.4328 54.2298C75.8923 55.9525 77.2301 55.4358 79.1411 55.6177C86.2675 56.2939 86.9765 66.7023 80.8088 69.1732C75.4368 71.325 70.4841 66.3687 71.9409 60.8617C72.2566 59.6675 72.9372 58.7126 73.0161 57.3718C73.5026 49.0864 55.7461 49.2068 55.9298 56.7047C55.9751 58.5791 57.3194 59.984 57.4837 61.8153C58.2872 70.7508 45.0332 72.4905 42.8027 64.4929C41.677 60.4588 44.3954 59.245 44.0163 55.9408C43.2102 48.9112 24.4226 49.2447 27.3764 59.0291C27.8732 60.6747 28.5033 61.4464 28.3726 63.3811C27.7813 72.1112 14.1198 71.949 15.0449 61.156C15.3037 58.1383 18.3351 55.8217 21.1906 55.5967C22.2438 55.5143 22.967 55.7249 24.0461 55.3443C26.7476 54.3933 26.8343 51.1702 26.6997 48.728C26.5108 45.3087 25.0462 42.4689 25.565 38.958C26.1951 34.6872 29.8786 30.8807 34.169 30.3915ZM49.048 41.7717C40.6252 42.8025 41.712 56.1618 50.563 55.4672C59.5732 54.7609 58.4722 40.618 49.048 41.7717Z" fill="white"/>
<defs>
<linearGradient id="paint0_linear_121_230" x1="50" y1="0" x2="50" y2="100" gradientUnits="userSpaceOnUse">
<stop stop-color="#DF1A3F"/>
<stop offset="1"/>
</linearGradient>
<linearGradient id="paint1_linear_121_230" x1="50" y1="0" x2="50" y2="100" gradientUnits="userSpaceOnUse">
<stop stop-color="#FCE8EC"/>
<stop offset="1"/>
</linearGradient>
</defs>
</svg>
