<svg width="100" height="100" viewBox="0 0 100 100" fill="none" xmlns="http://www.w3.org/2000/svg">
<rect x="1" y="1" width="98" height="98" rx="23" fill="url(#paint0_linear_132_383)"/>
<rect x="1" y="1" width="98" height="98" rx="23" stroke="url(#paint1_linear_132_383)" stroke-width="2"/>
<path d="M76.0499 65.3866C76.1988 65.2326 76.2027 64.9206 76.2182 64.7122L76.1496 34.7393L50.4185 19.8259C50.1156 19.6732 49.7545 19.6745 49.4541 19.8259L24.0026 34.5011L23.6622 34.9373L23.7166 65.1718L23.8823 65.4255C26.1139 66.5439 28.2278 68.0559 30.4335 69.195C33.0095 70.5257 35.8417 70.9955 36.9808 67.6727L37.0196 37.6803C37.1698 37.2725 37.3821 36.9929 37.8274 36.9346C38.3931 36.8609 40.8047 36.8466 41.325 36.945C41.8454 37.0434 42.0421 37.701 42.046 38.1657C41.6913 47.566 42.5017 57.2912 42.046 66.6539C41.7548 72.642 38.9885 75.5662 32.7868 74.9953C30.2691 74.7636 23.8966 71.0991 21.6274 69.5859C20.188 68.6267 19.2689 67.3542 18.9996 65.6119L18.9932 34.5412C19.1964 32.9607 20.0623 31.7115 21.2869 30.7511L47.6898 15.4727C49.9849 14.5264 51.6379 15.1193 53.6482 16.2079C62.1294 20.8019 70.2585 26.104 78.7152 30.7511C79.9203 31.6986 80.8575 32.9723 81.0077 34.5425L80.9714 65.9717C80.5676 67.4539 79.765 68.7031 78.4563 69.5406L53.1291 84.2119C51.5615 85.0791 49.5836 85.263 47.906 84.6015C44.9495 82.7815 41.6357 81.1712 38.7659 79.2438C36.9627 78.0322 38.907 77.9739 39.9659 77.5221C40.8966 77.1247 41.7405 76.5487 42.701 76.2251L49.3661 80.1654C49.6625 80.3337 50.0082 80.3673 50.3279 80.2482L76.0499 65.3906V65.3866Z" fill="#B6ED0E"/>
<path d="M55.2155 36.0739C60.2419 35.7075 67.0895 36.5165 69.0946 41.9221C69.4195 42.7972 70.3916 45.7797 69.0195 45.9945C68.5121 46.0735 65.7472 46.0657 65.3718 45.9052C64.7893 45.6566 64.577 44.0114 64.1977 43.3254C63.087 41.3138 60.5331 40.8297 58.4128 40.6963C56.3197 40.5643 51.5147 40.6472 50.6099 42.9875C49.2973 46.3803 52.9593 46.6948 55.3488 47.1272C61.5182 48.2443 71.589 47.711 70.7606 56.666C70.0253 64.6113 59.4535 65.3245 53.4046 64.3472C49.0332 63.6405 45.0269 61.4425 44.3862 56.6672C44.346 56.3721 44.2321 55.3663 44.2463 55.1359C44.2722 54.7152 44.6709 54.3347 45.0774 54.2816C45.7647 54.1923 47.7517 54.2039 48.452 54.2855C49.4824 54.4072 49.208 55.3197 49.4578 56.1275C50.1581 58.4031 51.5082 59.2548 53.7929 59.6885C56.541 60.2114 64.0411 60.5713 65.3265 57.4413C66.2494 55.1916 65.2721 54.0589 63.21 53.3794C57.5145 51.5024 45.3686 53.369 45.1499 44.6418C45.0049 38.8427 50.1995 36.4415 55.2207 36.0751L55.2155 36.0739Z" fill="#B6ED0E"/>
<defs>
<linearGradient id="paint0_linear_132_383" x1="50" y1="0" x2="50" y2="100" gradientUnits="userSpaceOnUse">
<stop stop-color="#121801"/>
<stop offset="1"/>
</linearGradient>
<linearGradient id="paint1_linear_132_383" x1="50" y1="0" x2="50" y2="100" gradientUnits="userSpaceOnUse">
<stop stop-color="#F8FDE7"/>
<stop offset="0.5" stop-color="#B6ED0E"/>
<stop offset="1"/>
</linearGradient>
</defs>
</svg>
