<svg width="100" height="100" viewBox="0 0 100 100" fill="none" xmlns="http://www.w3.org/2000/svg">
<rect x="1" y="1" width="98" height="98" rx="23" fill="url(#paint0_linear_132_378)"/>
<rect x="1" y="1" width="98" height="98" rx="23" stroke="url(#paint1_linear_132_378)" stroke-width="2"/>
<path d="M17.2686 33.2787C17.4578 33.2425 17.5875 33.3215 17.7508 33.3799C19.3634 33.9645 22.3928 35.695 24.0131 36.5803C24.6185 36.9109 25.776 37.4385 26.1403 37.9531C30.0848 46.2933 34.0073 54.6426 37.8988 63.0088C38.0167 63.2615 38.1814 63.7191 38.3992 63.8695V44.0365L47.7323 48.7679V84.8691C45.1152 83.1852 42.1713 81.723 39.628 79.9458C38.0894 78.8712 37.5358 77.7927 36.6466 76.1867L25.566 54.9252V73.2026L17.2699 68.7305V33.2774L17.2686 33.2787Z" fill="#293EEE"/>
<path d="M66.2679 62.7041V78.2594L52.5273 85V69.4447L66.2679 62.7041Z" fill="#4AAEEE"/>
<path d="M66.2679 41.9638V57.195L52.5273 64.13V48.7692L66.2679 41.9638Z" fill="#4AAEEE"/>
<path d="M82.7307 54.408V69.8984L70.9346 75.7965V60.2412L82.7307 54.408Z" fill="#4AAEEE"/>
<path d="M70.9346 54.9265V39.5009L82.7307 33.6676V48.8988L70.9346 54.9265Z" fill="#4AAEEE"/>
<path d="M38.0098 38.5909L38.1757 38.3031L50.3982 31.9838C54.5256 33.888 58.6425 35.9413 62.6351 38.1398L49.9783 44.5278L38.0098 38.5922V38.5909Z" fill="#4AAEEE"/>
<path d="M45.0086 29.3873L32.6201 35.7391C28.5524 33.9282 24.6079 31.7608 20.6426 29.7127L33.4083 23.3052L44.7118 28.9738L45.01 29.386L45.0086 29.3873Z" fill="#4AAEEE"/>
<path d="M66.6229 23.4465C66.8095 23.4089 66.9741 23.4323 67.1388 23.5269L79.3588 29.714L68.5659 35.2517L68.1486 35.3606C64.0238 33.4369 59.96 31.2851 55.9014 29.1955L66.6241 23.4465H66.6229Z" fill="#4AAEEE"/>
<path d="M61.3419 20.5766L61.1746 20.8656L50.518 26.5368L39.2158 20.8592L38.915 20.5118L49.713 15.1011L50.1213 15L61.3419 20.5766Z" fill="#4AAEEE"/>
<defs>
<linearGradient id="paint0_linear_132_378" x1="50" y1="0" x2="50" y2="100" gradientUnits="userSpaceOnUse">
<stop stop-color="#0F2330"/>
<stop offset="1"/>
</linearGradient>
<linearGradient id="paint1_linear_132_378" x1="50" y1="0" x2="50" y2="100" gradientUnits="userSpaceOnUse">
<stop stop-color="#6EBEF1"/>
<stop offset="0.5" stop-color="#293EEE"/>
<stop offset="1"/>
</linearGradient>
</defs>
</svg>
