<svg width="100" height="100" viewBox="0 0 100 100" fill="none" xmlns="http://www.w3.org/2000/svg">
<rect x="1" y="1" width="98" height="98" rx="23" fill="url(#paint0_linear_132_347)"/>
<rect x="1" y="1" width="98" height="98" rx="23" stroke="url(#paint1_linear_132_347)" stroke-width="2"/>
<path d="M22.3107 68.2807V83.8279L22.1386 84H16.1721L16 83.8279V46.8244H21.9665V50.1519C22.1523 50.192 22.2006 50.0888 22.3141 49.9832C24.2062 48.2334 24.6697 47.2868 27.4235 46.4871C39.1659 43.0747 46.5093 56.8733 40.8756 66.4793C36.9767 73.1285 27.1665 74.6683 22.3096 68.2796L22.3107 68.2807ZM28.2519 51.2166C20.5426 52.138 19.814 65.4547 28.0201 66.9887C38.6863 68.9829 39.5675 49.8639 28.2519 51.2166Z" fill="white"/>
<path d="M67.9769 35.0062V40.6285H53.0608L52.7177 48.4307C53.3465 48.324 53.9741 48.1531 54.6121 48.0877C63.9232 47.1307 71.356 52.7495 69.301 62.6619C67.1061 73.2512 51.9765 76.0118 45.7232 67.7586C45.5454 67.5246 44.9809 66.8786 45.0417 66.6399L49.4465 62.4301C50.3449 64.2258 51.4143 65.7656 53.327 66.5791C57.7617 68.4666 62.832 66.0203 63.1636 60.9993C63.8085 51.227 52.7154 52.1047 46.5218 54.9698L47.2664 35.0051H67.9769V35.0062Z" fill="white"/>
<path d="M81.5163 34.7767V38.391L81.7538 38.5173L85.1145 37.5213L86.0003 40.0995L82.5501 41.318L84.6073 44.5744L82.4709 46.1199C82.1543 46.1681 80.4549 43.5199 80.082 43.1527C79.7894 43.0758 78.1165 45.9203 77.7677 46.0109C77.4935 46.082 75.925 44.6925 75.559 44.4608L77.731 41.318L74.2246 40.0559C74.1397 39.9217 74.7731 37.7164 74.9199 37.5293C75.0255 37.3951 75.0863 37.4169 75.2355 37.4341C76.1316 37.5362 77.5807 38.3681 78.5342 38.5631V34.9488L78.7063 34.7767H81.5174H81.5163Z" fill="white"/>
<defs>
<linearGradient id="paint0_linear_132_347" x1="50" y1="0" x2="50" y2="100" gradientUnits="userSpaceOnUse">
<stop stop-color="#DF21AE"/>
<stop offset="1"/>
</linearGradient>
<linearGradient id="paint1_linear_132_347" x1="50" y1="0" x2="50" y2="100" gradientUnits="userSpaceOnUse">
<stop stop-color="white"/>
<stop offset="0.3" stop-color="#EC7ACE"/>
<stop offset="1"/>
</linearGradient>
</defs>
</svg>
