<svg width="100" height="100" viewBox="0 0 100 100" fill="none" xmlns="http://www.w3.org/2000/svg">
<rect x="1" y="1" width="98" height="98" rx="23" fill="url(#paint0_linear_132_305)"/>
<rect x="1" y="1" width="98" height="98" rx="23" stroke="url(#paint1_linear_132_305)" stroke-width="2"/>
<path d="M30.1819 58.3354V72.4161L29.9617 72.642H21.4458L21.2256 72.4161V27.9904C21.7086 27.5702 22.5617 27.8067 23.2063 27.763C29.6343 27.3278 39.1295 26.6155 44.9644 29.5446C54.6123 34.3862 55.4227 49.4759 46.5251 55.4455C41.8502 58.5824 35.5837 58.6471 30.1819 58.3354ZM30.3288 50.3538H35.9816C37.231 50.3538 40.1529 49.256 41.1807 48.4578C44.7999 45.6492 44.3682 39.0471 40.2645 36.9237C39.6478 36.6045 37.4851 35.8967 36.8611 35.8967H30.3273V50.3538H30.3288Z" fill="#AF22EF"/>
<path d="M66.0802 38.4568C66.4722 38.5426 66.6205 38.9583 66.7336 39.2926C67.0933 40.3618 67.1535 41.8482 67.1829 42.9746C69.8081 40.148 73.3246 37.9026 77.2316 37.6978C77.9408 37.6601 78.4958 37.5381 78.6235 38.3905C78.8585 39.9642 78.7791 44.5333 78.6397 46.2185C78.6162 46.4925 78.6191 46.7696 78.4518 47.0031C78.1185 47.3494 77.6853 47.0528 77.3858 47.0708C74.0411 47.2862 70.2882 47.7967 67.7687 50.277V72.4146L67.5485 72.6405H58.7389C58.714 72.6405 58.4805 72.4085 58.4482 72.3363C58.1267 62.6499 58.6141 52.8928 58.3792 43.1915C58.3454 41.812 58.1912 40.3588 58.0664 38.9793C58.0327 38.8227 58.1795 38.4537 58.2999 38.4537H66.0817L66.0802 38.4568Z" fill="#AF22EF"/>
<defs>
<linearGradient id="paint0_linear_132_305" x1="50" y1="0" x2="50" y2="100" gradientUnits="userSpaceOnUse">
<stop stop-color="#110318"/>
<stop offset="1"/>
</linearGradient>
<linearGradient id="paint1_linear_132_305" x1="50" y1="0" x2="50" y2="100" gradientUnits="userSpaceOnUse">
<stop stop-color="#AF22EF"/>
<stop offset="1"/>
</linearGradient>
</defs>
</svg>
