<svg width="100" height="100" viewBox="0 0 100 100" fill="none" xmlns="http://www.w3.org/2000/svg">
<g clip-path="url(#clip0_121_223)">
<path d="M15.0568 0.0956865L84.8214 0C92.5952 1.02576 98.9564 7.35255 99.9852 15.1185L100.004 84.0242C98.7222 93.2139 91.6202 98.825 82.5181 99.5063C61.7035 101.068 39.0231 98.3351 18.0127 99.5254C9.01814 99.0087 1.27504 92.4331 0.545649 83.2587C-1.18187 61.5034 1.8624 37.4938 0.564843 15.505C1.52841 7.68171 7.3367 1.57691 15.0568 0.0956865ZM27.4334 54.3461H39.526C51.3614 54.3461 55.9643 37.5588 47.1962 30.6235C45.891 29.5939 42.6586 27.9366 41.0616 27.9366H18.9878V70.4214H27.4334V54.3461ZM52.7703 61.6221C55.1773 75.6842 84.7293 74.2259 81.5123 58.7974C79.8884 51.0085 68.2335 52.0917 63.0317 49.2824C57.5459 46.3199 67.3352 42.657 71.3967 45.9218C72.3526 46.6912 72.4371 47.7475 73.2816 48.4901L80.0381 47.2882C81.0017 45.0147 77.8538 41.6581 75.9228 40.6438C70.1453 37.6048 56.7589 37.9339 54.4095 45.4664C50.8086 57.0138 65.1316 57.6607 72.4832 60.1485C75.8576 63.9186 70.5215 65.6256 67.1547 65.4725C63.5193 65.3041 62.0989 63.5549 60.6094 60.5312L52.7665 61.6297L52.7703 61.6221Z" fill="url(#paint0_linear_121_223)"/>
<path d="M27.4339 54.3461V70.4214H18.9883V27.9366H41.0621C42.6591 27.9366 45.8914 29.5939 47.1967 30.6235C55.9648 37.5589 51.3657 54.3461 39.5265 54.3461H27.4339ZM27.4339 47.0739H37.607C40.8855 47.0739 43.3501 42.8063 42.7013 39.6946C42.3212 37.8651 39.8835 35.2088 37.9909 35.2088H27.4339V47.0739Z" fill="#4AAEEE"/>
<path d="M52.7705 61.6221L60.6134 60.5236C62.1029 63.5511 63.5195 65.3003 67.1588 65.4649C70.5293 65.6218 75.8654 63.9147 72.4872 60.1409C65.1357 57.653 50.8088 57.0062 54.4136 45.4587C56.763 37.9263 70.1493 37.5971 75.9269 40.6361C77.8578 41.6504 81.0058 45.0071 80.0422 47.2806L73.2857 48.4824C72.4373 47.7399 72.3567 46.6835 71.4008 45.9142C67.3392 42.6494 57.55 46.3123 63.0358 49.2747C68.2375 52.0841 79.8925 51.0047 81.5163 58.7898C84.7333 74.2183 55.1813 75.6765 52.7743 61.6144L52.7705 61.6221Z" fill="#4AAEEE"/>
<path d="M27.4336 47.0739V35.2088H37.9906C39.8832 35.2088 42.3209 37.8651 42.701 39.6946C43.3498 42.8063 40.8852 47.0739 37.6067 47.0739H27.4336Z" fill="#071118"/>
</g>
<rect x="1" y="1" width="98" height="98.0024" rx="23" stroke="url(#paint1_linear_121_223)" stroke-width="2"/>
<defs>
<linearGradient id="paint0_linear_121_223" x1="50.0022" y1="0" x2="50.0022" y2="100.002" gradientUnits="userSpaceOnUse">
<stop stop-color="#071118"/>
<stop offset="1"/>
</linearGradient>
<linearGradient id="paint1_linear_121_223" x1="50" y1="0" x2="50" y2="100.002" gradientUnits="userSpaceOnUse">
<stop stop-color="#4AAEEE"/>
<stop offset="1"/>
</linearGradient>
<clipPath id="clip0_121_223">
<rect width="100" height="100.002" rx="24" fill="white"/>
</clipPath>
</defs>
</svg>
