<svg width="100" height="100" viewBox="0 0 100 100" fill="none" xmlns="http://www.w3.org/2000/svg">
<rect x="0.5" y="0.5" width="99" height="99" rx="23.5" fill="url(#paint0_linear_132_439)"/>
<rect x="0.5" y="0.5" width="99" height="99" rx="23.5" stroke="url(#paint1_linear_132_439)"/>
<path d="M49.9334 68.9409H66.5468C66.5739 68.9409 66.916 69.283 66.916 69.3101V78.6628C66.916 78.8228 65.9364 80.3881 65.6952 80.6416C62.2125 84.2818 52.626 85.2491 47.8315 84.9488C42.9164 84.6436 33.9994 82.783 33.01 76.8809C33.1822 71.2668 32.5841 65.2711 32.941 59.6989C33.2659 54.6509 35.6658 51.3799 40.9427 50.9639C47.2804 50.4643 60.9132 52.5687 65.6683 48.3698C68.6784 45.7142 69.0181 39.8712 69.1436 36.0956C69.1657 35.4483 68.8653 33.312 68.9047 33.1594C68.9367 33.0412 69.2002 32.7581 69.2568 32.7581H75.656C75.8652 32.7581 77.502 33.371 77.8392 33.5285C87.6251 38.0474 88.1983 63.6689 76.0841 66.6593L50.5514 66.7233C49.5521 66.8784 50.0271 68.1804 49.936 68.9385L49.9334 68.9409ZM61.6637 74.1931C58.3558 70.8827 54.4401 77.6364 58.2526 78.9507C59.1879 79.2731 60.9378 79.0787 61.6786 78.4733C62.6237 77.7029 62.6088 75.1382 61.6637 74.1931Z" fill="#E7B81B"/>
<path d="M30.9819 67.218H24.9518C23.891 67.218 21.5603 66.2508 20.662 65.601C12.7072 59.8442 12.5694 38.1311 22.1486 33.8953C22.375 33.7944 23.8713 33.2529 23.9673 33.2529H50.1796V31.0378H33.197V21.3159C33.197 20.6365 34.3784 19.3124 34.9175 18.8521C38.4789 15.8076 46.9728 14.8157 51.5457 15.0274C56.5593 15.2587 66.1556 17.1785 66.8891 23.3119C67.3616 27.2524 67.3123 36.9964 66.9136 41.0033C66.4804 45.3646 62.7171 48.6775 58.4346 49.0147C52.5768 49.4749 37.8243 47.5109 33.714 51.3676C32.759 52.2635 32.0158 53.9593 31.6515 55.2121C31.4964 55.7511 30.9819 57.8358 30.9819 58.2345V67.218ZM38.1959 25.7953C40.7851 28.6479 45.6018 23.814 42.3161 21.306C39.4044 19.0835 35.8085 23.1667 38.1959 25.7953Z" fill="#163447"/>
<defs>
<linearGradient id="paint0_linear_132_439" x1="50" y1="0" x2="50" y2="100" gradientUnits="userSpaceOnUse">
<stop stop-color="#071118"/>
<stop offset="1"/>
</linearGradient>
<linearGradient id="paint1_linear_132_439" x1="50" y1="0" x2="50" y2="100" gradientUnits="userSpaceOnUse">
<stop stop-color="#E7B81B"/>
<stop offset="0.5" stop-color="#163447"/>
<stop offset="1"/>
</linearGradient>
</defs>
</svg>
