<svg width="100" height="100" viewBox="0 0 100 100" fill="none" xmlns="http://www.w3.org/2000/svg">
<rect x="1" y="1" width="98" height="98" rx="23" fill="url(#paint0_linear_128_191)"/>
<rect x="1" y="1" width="98" height="98" rx="23" stroke="url(#paint1_linear_128_191)" stroke-width="2"/>
<path d="M48.4072 47.5876H51.6173C51.8059 42.7243 51.3665 37.6764 51.6093 32.8331C51.6735 31.5571 51.83 29.3943 52.2092 28.2166C53.4491 24.3504 58.7117 26.447 60.8584 28.4212C66.5844 33.6838 65.7237 46.4961 62.323 52.9063C63.2399 54.2967 64.3554 55.5747 64.8911 57.1878C69.0081 57.6513 73.2956 58.3414 77.252 59.5733C80.2254 60.4982 87.9296 63.3592 83.8187 67.4501C79.2884 71.9583 62.1445 73.6476 55.7403 73.8803C46.2464 74.2234 25.0557 73.6035 17.213 68.2506C11.6916 64.4828 17.8049 61.3369 21.4203 60.0247C25.7298 58.4618 30.5951 57.7375 35.1354 57.1878C35.6711 55.5747 36.7866 54.2987 37.7035 52.9063C37.0735 51.5781 36.4636 50.2178 36.0664 48.7954C34.3249 42.5638 34.2226 32.0687 39.8824 27.725C42.1435 25.9896 46.7961 24.7758 47.8715 28.3651C48.2367 29.5829 48.3591 31.9062 48.4193 33.2344C48.6339 37.9572 48.2427 42.8486 48.4112 47.5876H48.4072ZM45.3516 28.7743C45.0125 28.4413 43.8308 28.7061 43.3874 28.8245C39.2263 29.938 37.7838 35.4855 37.5651 39.2513C37.2902 43.9682 38.3195 49.3531 40.9377 53.3076C36.1326 57.5951 35.2979 64.3082 36.7485 70.3432C40.8474 71.1778 45.0486 71.244 49.2138 71.4647C49.1014 70.913 49.3903 69.4825 49.1676 69.0993C48.985 68.7823 45.9294 66.9947 45.8271 66.8201C45.6505 66.5172 46.0016 65.5702 46.6075 65.7247C47.6669 65.9975 48.7362 67.0268 50.1166 67.0087C51.2803 66.9947 53.0879 65.6324 53.5334 65.6424C53.9346 65.6504 54.3138 66.2824 54.1373 66.6436C53.8303 67.2776 51.0957 68.69 50.8609 69.0993C50.6382 69.4845 50.9271 70.913 50.8148 71.4647L63.2219 70.4295C64.8008 64.3704 63.8799 57.6472 59.0908 53.3096C62.1625 48.5406 63.2078 41.8475 61.992 36.3141C61.2075 32.7408 59.0287 28.1925 54.6489 28.7523C53.8142 29.4645 54.4221 48.0871 54.2255 50.599C51.3445 49.9289 48.6781 49.7925 45.801 50.599C45.5683 44.6102 46.104 38.3986 45.807 32.4339C45.7809 31.9062 45.5101 28.9348 45.3516 28.7763V28.7743Z" fill="white"/>
<path d="M42.1414 58.6604C45.0345 58.2391 44.9603 63.5639 42.4945 63.616C39.9344 63.6682 39.808 59.0015 42.1414 58.6604Z" fill="white"/>
<path d="M57.1831 58.6544C59.7612 58.1288 60.1584 62.2598 58.7139 63.2067C55.6683 65.205 54.5347 59.1941 57.1831 58.6544Z" fill="white"/>
<defs>
<linearGradient id="paint0_linear_128_191" x1="50" y1="0" x2="50" y2="100" gradientUnits="userSpaceOnUse">
<stop stop-color="#19191A"/>
<stop offset="1"/>
</linearGradient>
<linearGradient id="paint1_linear_128_191" x1="50" y1="0" x2="50" y2="100" gradientUnits="userSpaceOnUse">
<stop stop-color="white"/>
<stop offset="1"/>
</linearGradient>
</defs>
</svg>
