<svg width="100" height="100" viewBox="0 0 100 100" fill="none" xmlns="http://www.w3.org/2000/svg">
<rect x="1" y="1" width="98" height="98" rx="23" fill="url(#paint0_linear_129_245)"/>
<rect x="1" y="1" width="98" height="98" rx="23" stroke="url(#paint1_linear_129_245)" stroke-width="2"/>
<path d="M37.5504 15.0054C37.8069 15.0821 38.0651 15.1414 38.3173 15.2347C38.5487 15.3211 38.9357 15.5608 39.1507 15.5914C39.4798 15.6376 39.9505 15.3926 40.4203 15.4449C40.9782 15.5077 41.4653 16.0125 41.847 16.0657C42.0284 16.091 42.3074 15.9864 42.519 15.9785C43.127 15.9567 43.6167 16.145 44.0787 16.5252C44.2558 16.6708 44.6712 17.1931 44.8068 17.255C44.9994 17.3431 45.4545 17.2524 45.6937 17.2821C45.9002 17.3074 46.2353 17.5637 46.4132 17.6954C48.2001 19.0068 49.2891 21.1849 49.9921 23.2497C50.5682 21.6994 51.2358 20.1386 52.3292 18.8821C52.6366 18.529 53.8363 17.3614 54.2413 17.2856C54.4961 17.2376 54.9668 17.3518 55.1784 17.255C55.3269 17.187 55.8451 16.5671 56.0982 16.3927C56.5058 16.1119 56.9635 15.9628 57.4662 15.9785C57.6717 15.9846 57.9948 16.1006 58.1511 16.0788C58.4983 16.0308 59.0078 15.5068 59.5657 15.4449C60.0347 15.3926 60.5097 15.6376 60.8362 15.5914C61.1091 15.5521 61.5711 15.2653 61.87 15.1659C62.0582 15.1031 62.2646 15.0935 62.4365 15.0045C62.5402 15.0141 62.6585 14.9906 62.7587 15.0045C62.8588 15.0185 63.1171 15.1135 63.225 15.158C63.3624 15.2147 63.7588 15.4885 63.808 15.4937C63.9306 15.5068 64.4886 15.2836 64.6907 15.2461C65.2546 15.1406 65.7339 15.1528 66.2634 15.4004C66.4344 15.4806 66.6995 15.723 66.8282 15.7527C67.4716 15.9009 68.039 15.5774 68.7213 16.0657C68.8336 16.1459 68.9821 16.3726 69.0849 16.404C69.3613 16.4869 70.0194 16.3848 70.3631 16.4162C71.1188 16.4842 71.9186 16.867 72.3625 17.4948C74.0112 17.2742 75.2644 18.0973 74.7842 19.8997C74.7462 20.0435 74.5812 20.2545 74.5967 20.3949C74.6088 20.5048 74.8697 20.8239 74.9327 20.9722C75.1702 21.5285 75.1469 21.9234 74.9154 22.4736C74.8368 22.6594 74.4396 23.1869 74.4309 23.2314C74.4197 23.2907 74.5605 23.5313 74.5786 23.6621C74.6503 24.1705 74.5397 24.5646 74.304 25.0032C74.1848 25.2246 73.734 25.7243 73.6934 25.8516C73.6312 26.0486 73.7357 26.3303 73.7167 26.5796C73.6873 26.9624 73.5025 27.4019 73.2667 27.6992C73.1501 27.8466 72.5913 28.2991 72.5672 28.3488C72.5102 28.4665 72.5309 28.9165 72.4601 29.1632C72.3392 29.5844 71.9989 30.036 71.6811 30.3299C71.4798 30.5165 70.7949 30.9097 70.7094 31.0309C70.6481 31.1181 70.5782 31.5245 70.5074 31.6954C70.2275 32.3668 69.6791 32.7086 69.0452 32.9867C68.8906 33.0547 68.4829 33.1262 68.4009 33.2047C68.3422 33.2614 68.1988 33.7192 68.1003 33.8778C67.615 34.6678 66.8714 34.6827 66.1105 34.9617C66.0362 34.9887 66.0189 34.9434 66.0362 35.075C69.6411 36.9262 71.8287 39.9388 72.2174 44.0543C72.3063 44.9952 72.0982 46.0345 72.7848 46.7914C72.8729 46.889 73.1734 47.0233 73.3099 47.1297C77.7344 50.5687 78.9211 56.9025 75.7014 61.6206C75.5079 61.904 74.7816 62.6948 74.7038 62.8919C74.5389 63.3078 74.4327 64.1397 74.2867 64.641C73.9922 65.6534 73.4455 66.7581 73.2097 67.7303C73.0862 68.2404 73.0465 68.7863 72.9014 69.3181C72.0559 72.4214 69.6687 75.3189 66.8006 76.7227C66.4836 76.8779 66.0863 76.9756 65.803 77.1264C65.4429 77.3183 64.9886 77.7508 64.6241 77.9975C63.4306 78.8084 62.2189 79.6002 60.913 80.2192C60.2921 80.514 59.2462 80.8026 58.7306 81.1086C58.5155 81.2368 58.1943 81.6728 57.9749 81.8646C53.4675 85.8067 47.2898 86.1119 42.576 82.3232C42.1856 82.0093 41.6052 81.3318 41.2528 81.1086C40.872 80.8671 39.934 80.602 39.4478 80.3814C38.1964 79.812 36.9855 79.0874 35.8438 78.3228C35.3273 77.9766 34.6977 77.3967 34.1804 77.1264C33.9567 77.0096 33.6769 76.9547 33.4446 76.8378C30.3449 75.2814 27.9016 72.5208 27.0406 69.0888C26.9205 68.6127 26.8808 68.0957 26.7616 67.6344C26.5112 66.6674 26.0016 65.6237 25.7105 64.6271C25.5655 64.1301 25.4661 63.3453 25.2986 62.9268C25.1759 62.6207 24.4522 61.8491 24.2078 61.4785C21.1107 56.7909 22.3103 50.6541 26.5897 47.2038C26.7642 47.0634 27.0544 46.9396 27.1978 46.787C27.8731 46.0703 27.6874 45.1155 27.7678 44.2157C27.9275 42.4264 28.4285 40.6337 29.3785 39.1148C30.4762 37.3604 32.1586 36.0534 33.9481 35.0733C33.9653 34.9416 33.9481 34.9878 33.8738 34.9599C32.872 34.592 31.8563 34.4839 31.6257 33.1873C30.6722 32.9405 29.8941 32.5935 29.4778 31.6396C29.4001 31.4608 29.3742 31.1591 29.274 31.0318C29.1738 30.9045 28.6979 30.6438 28.5191 30.4912C28.1279 30.1572 27.6779 29.6541 27.5363 29.151C27.4715 28.92 27.4776 28.4849 27.418 28.3488C27.3921 28.2895 26.9603 27.9573 26.8523 27.8344C26.3471 27.2571 26.2097 26.6529 26.3574 25.8864C25.8643 25.3136 25.3392 24.6221 25.4005 23.8164C25.4152 23.6229 25.562 23.3386 25.5508 23.2296C25.543 23.159 25.1112 22.5591 25.0334 22.3472C24.8901 21.9575 24.8676 21.5773 24.9877 21.1762C25.0533 20.9573 25.3936 20.5013 25.4031 20.3984C25.4152 20.2694 25.2329 19.9633 25.1906 19.802C24.7415 18.0869 26.0836 17.262 27.6209 17.4922C28.4354 16.4145 29.7075 16.3465 30.9546 16.4162C31.4633 15.4893 32.5567 15.9428 33.2114 15.7527C33.2813 15.7326 33.5309 15.5138 33.6605 15.4466C34.3117 15.11 34.8221 15.1397 35.5182 15.2923C35.6952 15.3315 36.0347 15.5068 36.1763 15.4928C36.2756 15.4832 36.5157 15.274 36.6522 15.2112C36.7886 15.1484 37.1453 15.0237 37.2809 15.0045H37.5495L37.5504 15.0054ZM29.0848 26.5055C28.7826 26.5587 28.3551 26.4672 28.0364 26.5055C28.767 27.2755 29.6255 28.0218 30.5625 28.5136C30.6213 28.5895 30.154 28.7299 30.1057 28.7299H29.2723C29.2593 28.8389 29.3629 28.9095 29.4329 28.9749C30.2326 29.7248 31.4158 30.2052 32.3892 30.6839C32.3874 30.7554 32.2432 30.8051 32.1854 30.8304C31.814 30.9926 31.44 31.0248 31.0453 30.9551C31.9159 31.7695 33.2286 31.9761 34.3238 32.3659L34.2167 32.5551L33.4109 32.9614C34.5509 33.5735 35.8611 33.3442 37.0659 33.6677L36.7981 34.0749L36.1521 34.4804C37.2826 34.6033 38.5306 34.5056 39.6551 34.3016C42.0344 33.87 44.5157 32.6249 45.0486 30.0343C42.3264 27.0985 38.8173 25.0555 35.3817 23.0796L32.8737 21.7334C37.1894 23.1773 41.3107 25.2255 44.9838 27.9268C45.1661 28.0611 46.0427 28.8075 46.1342 28.8319C46.2983 28.8755 47.0885 28.3209 47.25 28.1866C49.6242 26.2021 48.3184 22.8939 46.8605 20.7716C46.4304 20.1455 45.9252 19.5884 45.4226 19.0225L45.2913 19.0547C45.2464 19.3285 45.173 19.6895 45.0339 19.9284C45.0071 19.9738 45.0477 20.0182 44.9424 19.9964C44.2039 19.2038 43.5536 18.3214 42.6839 17.6649C42.6122 18.0912 42.8653 18.6502 42.3687 18.9083C41.7633 18.1994 41.0689 17.5934 40.2648 17.1225C40.1914 17.2803 40.3702 17.4216 40.3961 17.5864C40.4531 17.9456 40.3158 18.2011 40.0498 18.4226C39.3131 17.6884 38.433 17.1234 37.4692 16.7423C37.3845 16.7894 37.4692 16.8365 37.4968 16.8775C37.7481 17.2516 38.2689 17.6649 37.7386 18.0886C36.8249 17.4512 35.7505 17.058 34.6476 16.9054C34.8152 17.2106 35.5553 17.6239 35.4448 18.0049C35.4292 18.0581 35.3662 18.1322 35.3126 18.1418C35.2349 18.1566 34.0267 17.7468 33.7883 17.6901C33.3124 17.5785 32.8253 17.4774 32.3365 17.4477C32.5256 17.6335 33.3806 18.3781 32.8763 18.6144C32.8037 18.6484 31.5765 18.2613 31.3269 18.222C30.6325 18.113 29.9623 18.1226 29.2731 18.2613L29.9994 19.0748L29.9381 19.1759L26.8549 19.2378C27.3774 19.986 27.9733 20.8126 28.0683 21.7351C27.9535 21.8938 27.0734 21.6985 26.8264 21.7325C26.7651 21.7412 26.7184 21.7098 26.7478 21.8118C26.8057 22.008 27.1157 22.4318 27.2565 22.6009C27.4664 22.8512 28.6504 23.8034 28.6789 23.9333C28.7264 24.1487 28.0459 24.1783 27.9085 24.167C27.6607 24.1469 27.418 23.9891 27.177 24.0379C27.7082 24.9726 28.5865 25.6153 29.3258 26.3713C29.3258 26.4018 29.1272 26.4994 29.0848 26.5073V26.5055ZM57.4912 18.5586C57.442 18.311 57.5266 17.9291 57.4912 17.6631L56.7925 18.2325L55.2069 19.9947C55.0506 19.9964 54.8718 19.1742 54.8571 19.019C54.7759 18.9972 54.7681 19.0408 54.7224 19.0722C54.3562 19.3277 53.7464 20.1342 53.4701 20.5205C51.9846 22.5957 50.4706 26.0225 52.7869 28.0794C52.9666 28.239 53.6955 28.7674 53.8898 28.8153C53.9468 28.8293 53.9926 28.8537 54.0479 28.811C57.708 25.8638 62.0159 23.5618 66.4395 22.001C66.6131 21.94 66.8299 21.8511 67.0018 21.8092C67.0562 21.7961 67.178 21.7377 67.165 21.8389C64.1414 23.3813 61.0754 25.0869 58.3566 27.1342C57.1846 28.0166 56.0256 28.9862 55.0825 30.1014C55.8417 33.107 59.0026 34.2345 61.7646 34.4786C62.3467 34.5301 63.2898 34.6051 63.8477 34.5196C63.8952 34.5126 64.0092 34.4961 63.9945 34.4254C63.7743 34.4158 62.9918 33.9005 63.1577 33.6625C63.2544 33.5238 65.2926 33.4026 65.6718 33.3242C65.7607 33.3058 66.8273 33.0268 66.7358 32.9065C66.3601 32.8376 66.0302 32.7016 65.822 32.3641C66.9171 31.9779 68.2359 31.7677 69.1005 30.9533C68.6643 31.0231 68.1755 31.003 67.8119 30.7083C68.7334 30.1485 69.8536 29.764 70.6602 29.0272C70.7423 28.9522 70.877 28.8511 70.8744 28.7281H70.041C70.0211 28.7281 69.6826 28.6305 69.6662 28.62L69.6644 28.511C70.5479 27.9355 71.4099 27.3016 72.1112 26.5047H71.0627C71.0325 26.5047 70.8217 26.3983 70.8217 26.3686C71.5679 25.6161 72.4635 25.0023 72.9705 24.0353C72.7287 23.9865 72.486 24.1443 72.239 24.1644C72.1017 24.1757 71.4211 24.146 71.4686 23.9307C71.4928 23.8217 72.6863 22.8416 72.891 22.5983C73.1078 22.3411 73.2823 22.0455 73.4541 21.7569C73.2322 21.6357 72.131 21.9391 72.0602 21.6967C72.0412 21.6322 72.2537 21.0314 72.2994 20.9181C72.5447 20.3077 72.9411 19.7828 73.2926 19.2361L70.2094 19.1742L70.1481 19.073L70.8744 18.2874C70.1014 18.0642 69.287 18.1296 68.5071 18.2848C68.3189 18.3223 67.3282 18.6423 67.2704 18.6144C66.7807 18.3772 67.6564 17.6413 67.8102 17.4469C66.7902 17.5358 65.7987 17.8157 64.8357 18.147C64.3953 17.6753 65.3263 17.2542 65.5526 16.9045C64.4281 17.0301 63.3425 17.4599 62.408 18.0904C61.882 17.5855 62.5047 17.1966 62.7034 16.7406C61.7249 17.1112 60.8474 17.6893 60.0969 18.4208C59.8576 18.1889 59.7082 17.991 59.7523 17.6404C59.7756 17.4538 59.938 17.2925 59.8827 17.1208C59.1374 17.6204 58.3376 18.1252 57.8609 18.9065C57.7512 18.985 57.5102 18.6571 57.4904 18.5586H57.4912ZM49.74 34.6591C46.8277 34.8448 40.4246 37.9681 44.3214 41.2894C46.8389 43.4353 52.0235 43.5512 54.9789 42.3881C57.6277 41.3461 58.7021 39.181 56.3624 37.002C54.7094 35.4622 51.9803 34.5161 49.7391 34.6591H49.74ZM30.414 45.8052C30.7966 46.1915 32.2812 45.3344 32.675 45.1024C34.0983 44.2645 35.6158 43.0429 36.8767 41.9652C38.1152 40.9057 41.0119 38.3509 41.6199 36.934C41.8332 36.437 41.7918 36.2879 41.2693 36.1789C37.5193 35.3977 33.1406 37.0613 31.3407 40.5552C30.6869 41.8248 30.1523 43.9863 30.2931 45.412C30.3069 45.5497 30.3561 45.6823 30.4131 45.8061L30.414 45.8052ZM58.3108 36.4998C58.0224 36.7919 58.7323 37.7458 58.9215 38.0004C60.6393 40.3154 65.0396 44.0474 67.5606 45.4468C68.0909 45.7416 69.5945 46.651 69.6947 45.575C69.762 44.853 69.5625 43.5565 69.3976 42.8327C68.2886 37.9743 63.6689 35.6557 58.9776 36.3315C58.7522 36.3638 58.519 36.3986 58.3108 36.4989V36.4998ZM58.0716 43.3385C49.9671 44.2313 50.3385 54.2535 56.2597 58.1005C61.7231 61.6502 68.0088 57.9436 67.0519 51.3316C66.4482 47.1646 62.7751 43.5085 58.5397 43.3237L58.0725 43.3385H58.0716ZM41.5707 43.7727C35.6685 44.2985 31.193 52.2864 34.9257 57.3358C38.4114 62.0513 45.1082 59.5933 47.6111 55.1298C50.5026 49.9714 48.0783 43.1929 41.5715 43.7718L41.5707 43.7727ZM70.2163 48.0548C69.1903 48.2284 68.9295 50.2687 68.8845 51.104C68.7533 53.5429 69.4701 59.3963 71.1965 61.1977C72.0369 62.0749 72.5913 61.5238 73.214 60.7896C76.2515 57.2129 75.3317 51.3508 71.5912 48.6478C71.2095 48.3714 70.6999 47.972 70.2163 48.054V48.0548ZM29.3655 48.2711C28.9337 48.3609 27.6002 49.4744 27.2565 49.831C24.7087 52.4756 24.314 56.7298 26.0733 59.9229C26.3212 60.3737 27.2565 61.7366 27.7436 61.8168C28.4578 61.9345 28.8871 61.3486 29.2196 60.8175C30.7128 58.4397 31.6274 52.2847 30.8588 49.6139C30.655 48.905 30.2249 48.0923 29.3655 48.2702V48.2711ZM49.7408 58.3647C44.4993 58.7754 40.6232 64.1902 43.3809 69.1446C46.6749 75.0625 56.5239 74.2089 58.3117 67.5577C59.7687 62.1368 54.8433 57.9654 49.7408 58.3647ZM67.8533 61.1306C65.3064 61.4227 61.7525 65.1555 60.5814 67.3528C59.273 69.8082 57.4679 75.4828 61.7724 75.8639C65.075 76.156 68.0995 74.0118 69.8985 71.3855C71.428 69.1516 71.7156 65.9585 70.9029 63.3933C70.4098 61.8351 69.5988 60.93 67.8533 61.1306ZM31.5169 62.2685C30.8648 62.3513 30.2292 62.7062 29.8734 63.2677C28.5304 65.3883 29.5175 69.4333 30.7975 71.4291C32.4332 73.9796 36.0252 76.2606 39.1205 75.584C42.3903 74.8698 40.9143 69.9006 39.8166 67.8594C38.4218 65.2653 34.6407 61.8726 31.5169 62.2685ZM49.3099 75.3982C47.586 75.5055 44.3715 76.1699 43.0605 77.3366C41.8764 78.3908 42.8402 79.4275 43.7298 80.2375C46.085 82.3834 49.455 83.3914 52.5572 82.5264C54.2845 82.0451 57.4239 80.2428 58.0302 78.4483C58.4516 77.2006 56.942 76.5379 56.0135 76.1943C53.9356 75.4244 51.5113 75.2596 49.3099 75.3974V75.3982Z" fill="black"/>
<path d="M57.4917 18.5588C57.5115 18.6574 57.7516 18.9852 57.8622 18.9067C58.3389 18.1255 59.1387 17.6206 59.884 17.121C59.9393 17.2928 59.7769 17.4541 59.7536 17.6407C59.7104 17.9912 59.8598 18.1891 60.0982 18.4211C60.8487 17.6895 61.7262 17.1105 62.7047 16.7408C62.506 17.1968 61.8834 17.5857 62.4093 18.0906C63.3438 17.4593 64.4294 17.0303 65.5539 16.9047C65.3267 17.2544 64.3957 17.6755 64.837 18.1473C65.8 17.8159 66.7915 17.536 67.8115 17.4471C67.6577 17.6415 66.782 18.3775 67.2717 18.6146C67.3295 18.6425 68.3202 18.3225 68.5084 18.285C69.2883 18.1298 70.1027 18.0644 70.8757 18.2876L70.1494 19.0733L70.2107 19.1744L73.2939 19.2363C72.9424 19.783 72.546 20.308 72.3007 20.9183C72.255 21.0317 72.0425 21.6333 72.0615 21.697C72.1323 21.9402 73.2335 21.6368 73.4554 21.7571C73.2827 22.0457 73.1091 22.3413 72.8923 22.5986C72.6876 22.841 71.4941 23.8219 71.4699 23.9309C71.4224 24.1463 72.103 24.1759 72.2403 24.1646C72.4881 24.1445 72.7308 23.9867 72.9718 24.0355C72.4648 25.0016 71.5692 25.6164 70.823 26.3689C70.823 26.3976 71.0338 26.5049 71.064 26.5049H72.1125C71.4112 27.3018 70.5501 27.9357 69.6657 28.5112L69.6675 28.6202C69.6847 28.6307 70.0233 28.7283 70.0423 28.7283H70.8757C70.8783 28.8513 70.7436 28.9524 70.6615 29.0274C69.8549 29.7642 68.7347 30.1487 67.8132 30.7085C68.1768 31.0033 68.6656 31.0233 69.1018 30.9536C68.2372 31.768 66.9184 31.9781 65.8233 32.3644C66.0315 32.7018 66.3614 32.8378 66.7371 32.9067C66.8295 33.027 65.762 33.3061 65.6731 33.3244C65.2939 33.4029 63.2557 33.5241 63.159 33.6627C62.9931 33.9007 63.7756 34.4169 63.9958 34.4257C64.0105 34.4963 63.8957 34.5128 63.849 34.5198C63.292 34.6053 62.348 34.5303 61.7659 34.4788C59.0039 34.2347 55.843 33.1073 55.0838 30.1017C56.0269 28.9864 57.1859 28.0177 58.3579 27.1344C61.0767 25.0871 64.1435 23.3816 67.1663 21.8391C67.1784 21.7379 67.0566 21.7964 67.0031 21.8094C66.8312 21.8513 66.6144 21.9402 66.4408 22.0013C62.0172 23.5621 57.7093 25.864 54.0492 28.8112C53.9939 28.8539 53.9481 28.8295 53.8911 28.8155C53.6959 28.7676 52.967 28.2392 52.7882 28.0796C50.4719 26.0227 51.9859 22.5959 53.4714 20.5207C53.7477 20.1344 54.3575 19.3279 54.7237 19.0724C54.7694 19.041 54.7772 18.9965 54.8584 19.0192C54.8731 19.1735 55.051 19.9958 55.2082 19.9949L56.7938 18.2327L57.4925 17.6633C57.528 17.9293 57.4433 18.3103 57.4925 18.5588H57.4917Z" fill="#92BE0B"/>
<path d="M29.0857 26.5058C29.128 26.4988 29.3266 26.4011 29.3266 26.3697C28.5882 25.6146 27.709 24.9711 27.1778 24.0364C27.4197 23.9876 27.6624 24.1454 27.9094 24.1654C28.0467 24.1768 28.7272 24.1471 28.6797 23.9318C28.6512 23.8018 27.4672 22.8497 27.2573 22.5994C27.1157 22.4311 26.8065 22.0065 26.7486 21.8103C26.7184 21.7083 26.7659 21.7397 26.8272 21.731C27.0742 21.6961 27.9543 21.8914 28.0691 21.7336C27.9733 20.8111 27.3782 19.9836 26.8557 19.2363L29.9389 19.1744L30.0003 19.0733L29.2739 18.2597C29.9631 18.122 30.6333 18.1115 31.3277 18.2205C31.5773 18.2597 32.8054 18.6469 32.8771 18.6129C33.3815 18.3766 32.5264 17.6319 32.3373 17.4462C32.8261 17.4767 33.3141 17.577 33.7891 17.6886C34.0275 17.7444 35.2349 18.1542 35.3135 18.1403C35.3679 18.1298 35.4309 18.0566 35.4456 18.0034C35.5553 17.6224 34.816 17.209 34.6484 16.9039C35.7513 17.0556 36.8257 17.4497 37.7395 18.0871C38.2697 17.6633 37.749 17.25 37.4976 16.876C37.47 16.835 37.3854 16.7879 37.47 16.7408C38.4338 17.1219 39.313 17.6869 40.0506 18.4211C40.3166 18.1987 40.4539 17.9441 40.3969 17.5849C40.371 17.4201 40.1922 17.2788 40.2656 17.121C41.0688 17.5927 41.7641 18.1978 42.3695 18.9067C42.8661 18.6486 42.613 18.0897 42.6847 17.6633C43.5553 18.3199 44.2048 19.2023 44.9432 19.9949C45.0494 20.0167 45.0088 19.9723 45.0347 19.9269C45.1738 19.6889 45.2472 19.3279 45.2921 19.0532L45.4234 19.021C45.926 19.5869 46.4313 20.144 46.8614 20.7701C48.3192 22.8924 49.625 26.2006 47.2509 28.1851C47.0902 28.3194 46.3 28.874 46.135 28.8304C46.0443 28.806 45.1669 28.0596 44.9846 27.9253C41.3115 25.224 37.1902 23.1758 32.8745 21.7318L35.3825 23.0781C38.8182 25.0531 42.3272 27.0969 45.0494 30.0328C44.5165 32.6233 42.0353 33.8685 39.6559 34.3001C38.5306 34.5041 37.2834 34.6027 36.1529 34.4788L36.7989 34.0734L37.0667 33.6662C35.8619 33.3418 34.5517 33.5711 33.4117 32.9599L34.2175 32.5536L34.3246 32.3644C33.2295 31.9746 31.9167 31.768 31.0461 30.9536C31.4408 31.0224 31.8148 30.9902 32.1862 30.8289C32.244 30.8036 32.3883 30.7539 32.39 30.6824C31.4158 30.2037 30.2326 29.7241 29.4337 28.9734C29.3638 28.908 29.2601 28.8373 29.2731 28.7283H30.1065C30.1549 28.7283 30.6221 28.588 30.5634 28.5121C29.6263 28.0203 28.7678 27.2739 28.0372 26.504C28.355 26.4656 28.7834 26.5572 29.0857 26.504V26.5058Z" fill="#92BE0B"/>
<path d="M41.5712 43.7729C48.0779 43.1939 50.5031 49.9725 47.6107 55.1309C45.1087 59.5944 38.4111 62.0524 34.9254 57.3369C31.1927 52.2875 35.6681 44.2987 41.5703 43.7738L41.5712 43.7729Z" fill="#DF1A3F"/>
<path d="M58.0713 43.3387L58.5386 43.3239C62.7739 43.5087 66.4479 47.1648 67.0507 51.3318C68.0085 57.9438 61.722 61.6505 56.2585 58.1008C50.3373 54.2537 49.9651 44.2316 58.0705 43.3387H58.0713Z" fill="#DF1A3F"/>
<path d="M49.741 58.365C54.8434 57.9656 59.7688 62.1361 58.3119 67.5579C56.5241 74.21 46.675 75.0628 43.381 69.1448C40.6234 64.1904 44.4986 58.7756 49.741 58.365Z" fill="#DF1A3F"/>
<path d="M67.8535 61.1308C69.599 60.9302 70.4099 61.8353 70.9031 63.3935C71.7149 65.9588 71.4282 69.1518 69.8987 71.3858C68.0997 74.0121 65.0743 76.1562 61.7726 75.8641C57.469 75.4839 59.2731 69.8084 60.5816 67.353C61.7527 65.1557 65.3075 61.4229 67.8535 61.1308Z" fill="#DF1A3F"/>
<path d="M31.5158 62.2687C34.6397 61.8728 38.4207 65.2656 39.8155 67.8596C40.9132 69.9008 42.3892 74.8701 39.1194 75.5842C36.0241 76.2608 32.4322 73.9798 30.7964 71.4294C29.5165 69.4335 28.5293 65.3885 29.8723 63.2679C30.2281 62.7064 30.8638 62.3515 31.5158 62.2687Z" fill="#DF1A3F"/>
<path d="M49.7407 34.6593C51.9819 34.5163 54.711 35.4624 56.364 37.0023C58.7028 39.1813 57.6293 41.3454 54.9805 42.3883C52.0251 43.5506 46.8405 43.4355 44.323 41.2896C40.4262 37.9684 46.8285 34.8451 49.7416 34.6593H49.7407Z" fill="#DF1A3F"/>
<path d="M49.3096 75.3985C51.511 75.2607 53.9353 75.4246 56.0132 76.1954C56.9417 76.5398 58.4513 77.2025 58.0299 78.4494C57.4236 80.2439 54.2842 82.0462 52.5569 82.5275C49.4547 83.3925 46.0847 82.3836 43.7295 80.2386C42.8399 79.4286 41.8761 78.3918 43.0602 77.3377C44.3712 76.171 47.5857 75.5066 49.3096 75.3993V75.3985Z" fill="#DF1A3F"/>
<path d="M70.217 48.0551C70.7007 47.9731 71.2094 48.3725 71.592 48.6489C75.3333 51.3519 76.2522 57.214 73.2148 60.7907C72.5912 61.5249 72.0367 62.0751 71.1973 61.1988C69.4708 59.3965 68.754 53.544 68.8853 51.1051C68.9302 50.2689 69.1919 48.2295 70.217 48.0559V48.0551Z" fill="#DF1A3F"/>
<path d="M29.3651 48.2713C30.2244 48.0926 30.6545 48.9061 30.8583 49.615C31.627 52.2858 30.7124 58.4408 29.2191 60.8186C28.8858 61.3497 28.4574 61.9356 27.7432 61.8179C27.2561 61.7377 26.3207 60.3739 26.0728 59.924C24.3136 56.7309 24.7083 52.4776 27.2561 49.8321C27.5998 49.4746 28.9333 48.3611 29.3651 48.2722V48.2713Z" fill="#DF1A3F"/>
<path d="M58.3112 36.5C58.5185 36.3989 58.7526 36.3649 58.978 36.3326C63.6702 35.6568 68.2899 37.9762 69.3979 42.8338C69.5629 43.5576 69.7624 44.8541 69.695 45.5761C69.594 46.6521 68.0912 45.7427 67.561 45.4479C65.0408 44.0485 60.6405 40.3165 58.9218 38.0015C58.7327 37.7469 58.0228 36.793 58.3112 36.5009V36.5Z" fill="#DF1A3F"/>
<path d="M30.4133 45.8054C30.3563 45.6816 30.3062 45.5491 30.2932 45.4113C30.1524 43.9865 30.6862 41.8241 31.3408 40.5546C33.1407 37.0607 37.5194 35.3961 41.2694 36.1782C41.7919 36.2872 41.8333 36.4363 41.62 36.9334C41.012 38.3511 38.1153 40.9051 36.8768 41.9645C35.6159 43.0422 34.0985 44.2638 32.6752 45.1018C32.2805 45.3337 30.7967 46.1908 30.4141 45.8045L30.4133 45.8054Z" fill="#DF1A3F"/>
<defs>
<linearGradient id="paint0_linear_129_245" x1="50" y1="0" x2="50" y2="100" gradientUnits="userSpaceOnUse">
<stop stop-color="#F9D1D9"/>
<stop offset="0.5" stop-color="#DF1A3F"/>
<stop offset="1"/>
</linearGradient>
<linearGradient id="paint1_linear_129_245" x1="50" y1="0" x2="50" y2="100" gradientUnits="userSpaceOnUse">
<stop stop-color="white"/>
<stop offset="0.5" stop-color="#F2A3B2"/>
<stop offset="1"/>
</linearGradient>
</defs>
</svg>
