<svg width="100" height="100" viewBox="0 0 100 100" fill="none" xmlns="http://www.w3.org/2000/svg">
<rect x="1" y="1" width="98" height="98" rx="23" fill="url(#paint0_linear_132_352)"/>
<rect x="1" y="1" width="98" height="98" rx="23" stroke="url(#paint1_linear_132_352)" stroke-width="2"/>
<path d="M69.5669 38.7078C73.8128 40.1 78.761 42.0147 81.76 45.4716C88.5988 53.3553 75.7875 59.5586 69.6847 61.3199C69.8208 62.6521 70.1795 63.9947 70.3536 65.3442C70.935 69.8484 71.0942 78.392 65.4319 79.7588C60.8124 80.8742 55.0728 76.9294 51.6817 74.1093C51.4233 73.8947 50.166 72.6478 49.9815 72.6801C46.9099 75.468 43.1473 78.5004 39.0641 79.5985C27.9253 82.5917 28.7362 68.0883 30.4709 61.3256C26.7453 60.1041 22.5976 58.5401 19.616 55.9217C10.152 47.6089 23.1201 40.7505 30.373 38.7089C30.2034 37.6074 29.9288 36.5197 29.765 35.4158C29.2621 32.0085 29.0407 27.6993 30.2887 24.4408C33.8794 15.0656 45.5142 22.9506 49.9688 27.3683C52.6055 24.9218 55.6033 22.5457 58.9322 21.1143C64.839 18.5732 69.131 20.3392 70.2486 26.8134C70.9384 30.8101 70.304 34.7734 69.5681 38.7066L69.5669 38.7078ZM42.1599 36.3582C43.8047 33.9014 45.7922 31.7017 47.7554 29.4998C45.5038 27.4109 42.882 25.2955 40.0492 24.0521C36.6799 22.5734 33.8967 22.2989 32.839 26.4524C31.9209 30.0581 32.6037 34.3258 33.3534 37.9084C36.2336 37.131 39.2002 36.71 42.1599 36.3582ZM62.8712 23.0728C60.4974 23.3277 57.3831 25.2551 55.4765 26.6658C55.0451 26.9853 52.1339 29.2945 52.1811 29.5656C54.2539 31.6614 56.0705 33.9856 57.8503 36.3305C59.4466 36.5693 61.0476 36.7596 62.6382 37.0364C63.1734 37.1298 66.3384 37.8738 66.5264 37.8127C66.6475 37.7735 66.6418 37.6893 66.6695 37.5901C67.5 34.6742 67.808 29.6959 67.1528 26.7581C66.6038 24.3001 65.6418 22.7775 62.8712 23.074V23.0728ZM46.3655 36.0168C48.7081 35.9095 51.2088 36.0168 53.5699 36.0168C53.6068 36.0168 53.7278 36.2486 53.7036 35.9729C53.331 35.4377 50.1822 31.651 49.8904 31.6994C48.6089 33.0686 47.3563 34.4723 46.2317 35.9729C46.2086 36.2475 46.3251 36.0179 46.3655 36.0168ZM49.1844 39.0157C47.3758 39.1403 45.5257 39.0584 43.7483 39.3433C41.4183 42.7414 39.3249 46.3136 37.6282 50.0738C39.3606 53.804 41.4472 57.3705 43.8002 60.7385C45.5846 60.9473 47.3689 60.9404 49.1614 60.9612C50.5028 60.9761 51.8559 60.9831 53.2146 60.9681L56.074 60.7651C56.3416 60.6878 57.1029 59.4317 57.3105 59.1191C58.5066 57.3128 59.6762 55.3173 60.6878 53.4003C60.9162 52.9666 62.3661 50.1557 62.3361 49.9527C60.6347 46.2294 58.5505 42.6802 56.1894 39.3421C53.894 39.0411 51.5167 39.0423 49.1844 39.0146V39.0157ZM39.7458 39.8001L34.162 40.7897L35.9648 46.2836L39.7458 39.8001ZM65.7698 40.7943L60.1895 39.8012L63.9267 46.1925C64.2439 45.6273 65.9567 41.01 65.7698 40.7943ZM31.1872 41.6929C27.585 42.8094 22.849 44.6134 20.3864 47.5927C17.9861 50.496 20.2538 52.7336 22.6968 54.4626C25.2055 56.2389 28.2264 57.4062 31.1388 58.344L31.2887 58.1341C32.0385 55.3473 33.1297 52.6725 34.2462 50.0219C33.0639 47.3113 31.9773 44.5488 31.1872 41.6929ZM68.7549 41.6998C68.3408 43.0032 67.9532 44.3239 67.4873 45.6111C66.9497 47.0933 66.267 48.5374 65.7676 50.0207C66.2762 51.361 66.8725 52.6644 67.3719 54.0082C67.8194 55.2124 68.2336 57.089 68.7399 58.1341C68.7768 58.2102 68.7872 58.3198 68.8887 58.3451C71.7504 57.4005 74.664 56.2816 77.1497 54.5538C78.9168 53.3253 81.3955 51.2307 80.3793 48.835C79.0817 45.7749 73.3295 43.1704 70.3237 42.1404C70.0814 42.0574 68.8806 41.611 68.7549 41.6998ZM39.7458 60.2425L35.9648 53.759L34.1989 59.1664L39.7458 60.2425ZM65.8644 59.1618L63.9278 53.7613L60.1906 60.2425L65.8644 59.1618ZM33.3523 62.1342C32.6683 65.8068 31.9751 69.7654 32.8725 73.4668C33.9002 77.708 36.5865 77.5569 40.0769 76.0205C42.9685 74.7471 45.4888 72.6098 47.8499 70.5555C45.8094 68.3743 43.9247 66.0594 42.115 63.6833C39.1772 63.2623 36.2313 62.8574 33.3523 62.1342ZM66.6741 62.1342C63.7916 62.7778 60.8838 63.3165 57.9403 63.6221C56.1167 65.9037 54.3877 68.2694 52.3069 70.3317C52.2365 70.4286 52.2607 70.499 52.3069 70.5982C52.3864 70.7712 53.6736 71.8231 53.9332 72.0388C56.3981 74.0839 60.9507 77.2593 64.2761 76.8925C67.8148 76.5038 67.6938 69.7781 67.4839 67.2232C67.3432 65.5092 66.959 63.824 66.6741 62.1342ZM53.796 63.937L46.2304 63.982L49.9791 68.3455C50.1129 68.3732 51.6436 66.6211 51.8616 66.3696C52.5398 65.5899 53.1812 64.7675 53.7971 63.9382L53.796 63.937Z" fill="#4AAEEE"/>
<path d="M49.0927 43.7875C55.6524 43.047 58.8693 51.286 53.6984 55.0578C48.779 58.645 42.1917 53.8813 44.0049 48.0668C44.6796 45.9018 46.8193 44.0447 49.0927 43.7887V43.7875Z" fill="#4AAEEE"/>
<defs>
<linearGradient id="paint0_linear_132_352" x1="50" y1="0" x2="50" y2="100" gradientUnits="userSpaceOnUse">
<stop stop-color="#071118"/>
<stop offset="1"/>
</linearGradient>
<linearGradient id="paint1_linear_132_352" x1="50" y1="0" x2="50" y2="100" gradientUnits="userSpaceOnUse">
<stop stop-color="#4AAEEE"/>
<stop offset="1"/>
</linearGradient>
</defs>
</svg>
