<svg width="100" height="100" viewBox="0 0 100 100" fill="none" xmlns="http://www.w3.org/2000/svg">
<g clip-path="url(#clip0_121_204)">
<rect width="100" height="100" rx="24" fill="black"/>
<path d="M0.100586 52.4906C0.521806 52.3852 0.58198 52.6631 0.825084 52.8477C4.52701 55.6706 10.3182 63.1929 12.5037 67.341C12.9586 68.2061 14.3089 71.784 14.6074 72.0763C16.3525 73.7873 16.882 68.4026 16.947 67.4633C17.296 62.5123 15.4065 55.4645 13.3052 50.9665C12.1884 48.5725 9.88733 46.4924 12.4941 43.8588C13.6181 42.7229 20.6874 40.4679 22.8152 39.5165C27.9492 37.216 35.6588 33.0487 39.9336 29.4804C40.8939 28.6776 42.1937 27.4483 42.4079 26.1926C43.195 21.6083 38.5905 11.4476 36.1618 7.36412L31.1505 0.011982L79.9013 0C90.6797 0.639837 98.9236 8.0375 99.9995 18.8117L99.9369 42.1358C95.4624 45.4596 91.2261 49.1117 86.5421 52.1623C82.1663 55.0116 73.1618 60.4466 67.9098 59.385C67.1275 59.2269 65.1008 58.0502 65.1057 57.1612C65.1105 56.2266 68.9039 53.2958 69.7848 52.2534C70.5671 51.3236 71.2266 50.2931 71.8283 49.2387C77.6725 50.3338 84.0798 50.3626 89.1417 46.8423C96.6129 41.6469 96.2567 28.3997 86.5108 26.3675C87.4905 25.5959 88.5351 25.3347 89.5244 24.4576C93.5681 20.8774 93.3635 14.7306 90.1141 10.6783C85.3724 4.76882 75.0801 4.36144 69.0049 8.34184C62.1547 12.8303 61.8587 23.0174 69.9003 26.2501C61.3556 28.3829 59.9331 39.1235 65.3175 45.1936C65.7411 45.6705 66.4175 45.6489 66.2923 46.2576C62.7877 47.3575 59.2206 47.7218 55.7064 46.375C50.0091 44.1919 47.9632 35.3899 44.916 30.7577C44.6945 30.4198 44.2854 29.7177 43.828 29.7608C38.8239 33.6022 33.868 36.8254 28.1827 39.5932C24.8418 41.2204 19.5658 42.258 18.9375 46.6817C17.8785 54.1393 26.5051 50.7939 30.9098 52.493C31.0398 53.315 29.8917 52.8045 29.1311 53.2359C28.0985 53.823 27.1814 55.7497 28.0166 56.8664C28.3921 57.3697 34.1616 61.1655 35.1677 61.791C37.0548 62.9652 39.6616 64.5516 40.6701 61.3668C41.0841 60.0632 40.025 59.8883 40.0563 58.7236C40.1622 58.6206 42.2996 58.8075 42.8123 58.7116C43.2841 58.623 43.609 58.2036 44.0784 58.055C55.8388 54.2927 66.4873 60.8085 72.1075 71.0243C73.0222 72.685 73.4771 74.547 74.3677 76.2125C75.5254 76.016 75.937 74.8801 76.6326 74.1756C82.3372 68.3955 88.8938 64.1035 94.6945 58.6086C96.5311 56.8688 98.086 54.8798 99.9875 53.2143V82.3305C99.9875 89.6874 90.9373 98.7793 83.6321 99.5965C62.1427 100.404 40.5209 99.7067 18.9833 99.9536C10.0293 99.7307 0.100586 90.3632 0.100586 81.3671V52.4906ZM50.8877 82.6875C51.0706 82.4886 51.8408 83.1668 52.0599 83.3154C55.1143 85.3811 57.8679 87.9237 60.3976 90.5909C62.2438 92.5391 62.6168 95.0026 65.7363 93.2748C73.5421 88.9541 75.1981 80.8375 71.9439 72.8647C67.7629 62.6225 49.5735 50.0055 42.4922 64.3815C40.776 67.8659 40.699 74.4392 34.8067 72.6922C32.6236 72.0452 25.1499 68.6974 23.8694 67.0487C22.4926 65.2777 23.5974 62.1864 23.6985 60.0488C23.7659 58.6565 23.9055 54.4293 23.0799 53.4563C22.7237 53.037 22.0979 52.8045 21.6237 53.1856C20.6369 53.9764 21.1471 58.1677 21.0364 59.5552C20.7861 62.6968 18.538 68.0216 20.7933 70.5906C23.0486 73.1595 30.7221 76.6343 34.1111 78.6592C39.2331 81.7218 44.2685 85.0839 48.8345 88.923C51.1284 90.8521 53.2922 93.3012 55.5885 95.1392C56.6572 95.9971 58.3276 97.4062 59.6202 96.3542C61.9453 94.4658 58.0942 90.1451 56.7414 88.7049C55.3261 87.1976 52.2933 85.0959 51.2367 83.6533C50.996 83.325 50.7818 83.1716 50.8877 82.6852V82.6875Z" fill="url(#paint0_linear_121_204)"/>
<path d="M19.7275 0.069458C19.9754 0.16771 20.0717 0.337854 20.0862 0.601457C20.1415 1.52886 19.4868 4.43808 19.2798 5.56439C17.6888 14.189 14.0206 23.3576 8.96114 30.518C8.0489 31.8097 5.70933 35.1742 4.65507 36.0561C3.60082 36.938 0.404361 37.1345 0.105896 35.5888C-0.052964 34.7692 -0.0313013 28.7375 0.158849 27.985C0.442872 26.8635 3.44437 22.5572 4.23385 21.0187C7.14388 15.3465 8.81191 9.59752 9.77229 3.28781C12.6053 1.19337 16.2591 0.421728 19.7275 0.069458Z" fill="#797B7E"/>
<path d="M83.9643 32.0206C85.3363 33.6142 85.7551 35.1239 85.5457 37.2711C84.6455 46.4517 69.6043 44.9635 70.9282 35.1791C71.7417 29.1617 80.2985 27.7574 83.9643 32.0206Z" fill="#505254"/>
<path d="M76.5795 12.5283C80.2934 11.9053 84.1999 13.2137 84.5827 17.3858C85.4925 27.2973 68.0131 24.853 72.5093 15.4232C73.1495 14.0812 75.1233 12.7728 76.5819 12.5283H76.5795Z" fill="#595A5C"/>
<path d="M31.5671 55.165C32.6142 55.0092 36.4846 57.6021 36.8288 58.7116C37.1995 59.9051 36.15 60.6575 34.9923 60.2909C34.6962 60.1974 30.8065 57.6285 30.6525 57.42C30.0893 56.6531 30.5923 55.3088 31.5671 55.165Z" fill="#DF1A3F"/>
<path d="M60.9277 82.7355C63.6115 81.9566 66.2784 84.5088 66.2905 87.1185C66.2977 88.4221 64.8944 92.2539 63.1638 91.1923C62.9809 91.0797 60.6798 88.3095 60.4151 87.938C59.4138 86.5265 58.9155 83.3202 60.9253 82.7355H60.9277Z" fill="#19191A"/>
</g>
<rect x="1" y="1" width="98" height="98" rx="23" stroke="url(#paint1_linear_121_204)" stroke-width="2"/>
<defs>
<linearGradient id="paint0_linear_121_204" x1="50.05" y1="0" x2="50.05" y2="100" gradientUnits="userSpaceOnUse">
<stop stop-color="#7C7E81"/>
<stop offset="1"/>
</linearGradient>
<linearGradient id="paint1_linear_121_204" x1="50" y1="0" x2="50" y2="100" gradientUnits="userSpaceOnUse">
<stop stop-color="white"/>
<stop offset="1"/>
</linearGradient>
<clipPath id="clip0_121_204">
<rect width="100" height="100" rx="24" fill="white"/>
</clipPath>
</defs>
</svg>
