<svg width="100" height="100" viewBox="0 0 100 100" fill="none" xmlns="http://www.w3.org/2000/svg">
<rect x="1" y="1" width="98" height="98" rx="23" fill="url(#paint0_linear_132_215)"/>
<rect x="1" y="1" width="98" height="98" rx="23" stroke="url(#paint1_linear_132_215)" stroke-width="2"/>
<path d="M68.4742 79.8153C61.4883 80.6976 62.5943 78.2683 60.1226 73.9716C54.1217 63.5048 48.7434 58.8757 41.1712 71.5603C38.5062 76.0323 38.5362 81.7068 31.5986 79.5132C35.1037 72.5091 41.6485 61.0271 50.671 61.6556C59.1677 62.2478 64.8242 73.2524 68.4683 79.8153H68.4742Z" fill="#4AAEEE"/>
<path d="M37.5698 20.6828C37.8719 20.8701 39.6363 25.9645 40.3615 27.2578C44.2594 34.1772 49.3358 40.7523 56.3701 32.3704C58.183 30.2069 61.8813 21.257 62.4192 20.8944C63.1202 20.417 68.4744 19.438 68.4624 20.9004C68.4563 21.4927 62.9271 29.7718 62.081 30.8233C48.7679 47.303 37.7752 34.2921 31.6172 20C32.7473 20.3384 37.0499 20.3565 37.5757 20.6828H37.5698Z" fill="#4AAEEE"/>
<path d="M20.1353 68.3333C19.5854 61.4743 21.1566 62.8944 25.3747 60.5859C32.8381 56.4946 41.6368 51.4969 31.9012 43.5743C29.2725 41.429 22.4074 39.0843 21.0598 37.4949C20.1473 36.4192 19.1986 31.8023 21.0418 32.0682C23.3322 32.3945 32.5299 39.1749 34.3489 41.1269C45.6436 53.2435 30.8015 63.952 20.1353 68.3333Z" fill="#4AAEEE"/>
<path d="M79.9564 32.0803C80.4883 38.8849 77.2251 37.9482 72.9103 40.438C62.0205 46.7108 59.5426 52.1859 71.8949 59.1839C73.2667 59.9635 79.0379 62.0604 79.2615 62.3988C79.5033 62.7614 80.1861 67.5296 79.6543 68.3454C67.1147 62.5862 53.2699 52.4397 67.562 39.3139C68.9036 38.0811 78.8628 30.926 79.9626 32.0803H79.9564Z" fill="#4AAEEE"/>
<defs>
<linearGradient id="paint0_linear_132_215" x1="50" y1="0" x2="50" y2="100" gradientUnits="userSpaceOnUse">
<stop stop-color="#0F2330"/>
<stop offset="1"/>
</linearGradient>
<linearGradient id="paint1_linear_132_215" x1="50" y1="0" x2="50" y2="100" gradientUnits="userSpaceOnUse">
<stop stop-color="#4AAEEE"/>
<stop offset="1"/>
</linearGradient>
</defs>
</svg>
