<svg width="100" height="100" viewBox="0 0 100 100" fill="none" xmlns="http://www.w3.org/2000/svg">
<g clip-path="url(#clip0_129_214)">
<g clip-path="url(#clip1_129_214)">
<path d="M99.9919 59.8462L95.0349 55.4365C80.956 41.8443 67.2401 28.431 53.8926 15.1939L52.6323 13.2759C51.9587 13.2575 51.2957 12.8154 50.6432 11.9472C49.9617 12.305 49.3961 12.3971 48.9488 12.2234C49.0409 12.697 48.7988 13.239 48.22 13.8547C46.3466 18.4065 44.8469 23.1951 43.5814 27.9837L42.8973 28.5362C42.9525 29.0256 43.2498 29.215 43.6787 29.1966L52.1666 29.1861C52.2403 28.9703 52.3166 28.8019 52.4008 28.7967C52.9638 28.7704 57.1525 28.6546 57.3183 28.8361L57.6314 29.3255C57.8655 29.3966 57.8603 29.4834 57.6314 29.5886C57.5761 29.7939 57.4893 30.0964 57.3288 30.1149C56.3132 30.2254 53.7584 30.2227 52.7454 30.1149L52.3692 29.5886C52.2955 29.8175 52.2061 29.8149 52.1061 29.5886C49.0751 29.7833 45.9125 29.8228 42.8973 29.5886L32.1019 64.0243C31.6809 64.8742 31.2468 65.674 30.7943 66.4239L31.0916 66.8817C30.1865 69.0945 29.5445 71.4072 28.9499 73.7278V99.5204L28.4263 99.8387C22.3669 99.8203 12.9923 100.604 7.36442 99.7203C3.944 99.1836 0.665665 95.8921 0.128923 92.4848L0 8.13737C0.420974 3.68556 3.80719 0.233572 8.28793 -0.153198H91.4514C95.9426 0.0704444 99.4341 3.46981 99.9893 7.88478C99.9708 25.2052 100.021 42.531 99.9893 59.8462H99.9919Z" fill="url(#paint0_linear_129_214)"/>
<path d="M52.6317 13.2759C55.9048 16.3332 59.0095 19.5273 62.1957 22.6557C74.8065 35.035 87.4358 47.4195 99.9913 59.8461C99.9729 70.4968 100.007 81.158 99.9913 91.8112C99.6256 95.6711 96.3631 99.3072 92.4717 99.815C86.6991 100.573 77.7271 99.8176 71.5756 99.8361C70.3205 99.6124 70.6599 98.3627 71.644 97.8417L70.9046 96.6577C70.5284 88.8039 70.6863 80.9764 71.3703 73.1779C71.3572 72.1912 70.3521 70.4284 69.4733 70.1258C69.2918 69.9232 68.8445 67.9683 68.9024 67.7683C69.4944 67.4342 69.6707 67.0922 69.4707 66.4212C68.9261 65.8056 68.463 65.1241 68.0789 64.3821C63.9217 53.3079 60.6855 41.8363 57.5413 30.4648L57.6308 29.586C57.6045 29.507 57.6571 29.4018 57.6308 29.3229L57.0125 28.5414C55.3733 24.2107 53.7394 19.7325 52.608 15.2176C52.5317 14.915 52.5265 14.594 52.5317 14.2678C52.537 13.9415 52.5791 13.6047 52.6317 13.2732V13.2759Z" fill="url(#paint1_linear_129_214)"/>
<path d="M41.0545 75.6327C40.7046 73.6462 41.8675 71.3388 42.8332 69.5917C49.0557 58.3307 56.5648 64.2191 58.5223 74.3014C58.5276 74.333 58.1882 73.7436 58.6828 74.3172C59.0196 74.2356 59.1064 74.5882 58.9459 75.3696L59.4722 75.5512V99.523L58.9459 99.8387C52.9865 99.8493 47.014 99.8493 41.0545 99.8387L40.5283 99.6572V75.9511L41.0545 75.6327Z" fill="url(#paint2_linear_129_214)"/>
<path d="M41.056 75.6327V99.8387C36.8515 99.8308 32.6312 99.8519 28.4268 99.8387V73.662C28.6004 72.6912 30.4159 66.4844 30.7947 66.4239C31.3473 65.9792 30.9421 66.4713 30.95 66.4397C31.6104 64.177 32.9785 62.1747 35.628 63.4008C38.5354 64.7453 40.8218 72.5228 41.056 75.6301V75.6327Z" fill="url(#paint3_linear_129_214)"/>
<path d="M58.9469 75.3696C58.897 72.207 61.6912 64.2585 64.9932 63.5639C67.6164 63.014 68.5478 64.6874 69.3766 66.8133C69.2556 66.6054 69.2871 66.4739 69.4713 66.4239C69.566 66.6475 69.9607 66.8001 70.0107 67.3579C70.0633 67.9473 69.2214 67.8684 69.2135 68.1341C69.2135 68.1709 69.5897 68.434 69.6686 68.7366C69.8686 69.4996 69.445 69.8443 70.5211 70.1074C70.6053 69.9943 69.9607 67.65 70.7842 68.5288C71.0999 68.8655 70.7974 70.1837 70.8579 70.4679C71.1289 71.7098 72.1971 71.7071 71.8235 74.4356C70.8553 81.5237 71.4946 88.825 71.2973 96.0394C71.242 96.8209 72.547 97.4287 72.0498 98.2153C71.8367 98.5521 70.8368 98.4048 71.5762 99.8387C67.3717 99.8519 63.1514 99.8308 58.9469 99.8387V75.3696Z" fill="url(#paint4_linear_129_214)"/>
<path d="M42.8973 29.5886C45.7809 29.9701 49.225 29.9175 52.1061 29.5886H52.3692L52.9164 29.6965L58.8548 71.765C59.189 72.8437 59.1311 73.6962 58.6838 74.3171L58.3891 74.4829C57.4709 71.0967 55.0634 64.7557 51.122 64.119C45.6625 63.235 42.1158 71.394 41.0555 75.6327C39.6689 72.3412 39.0795 68.3472 36.9615 65.3872C34.6725 62.1904 32.2677 63.4981 31.0363 66.6817C30.9284 66.6449 30.8179 66.4186 30.7969 66.4239L42.3921 29.6018C42.5578 29.5386 42.7315 29.5965 42.8999 29.5886H42.8973Z" fill="#F5D9D1"/>
<path d="M57.6313 29.5886C61.3148 41.1549 64.8931 55.4864 69.4712 66.4239C69.4002 66.6817 69.7264 67.4342 69.1502 66.6186C68.0583 65.0689 67.3479 63.4928 64.93 64.1217C61.8726 64.9189 59.8467 72.678 58.9469 75.3696L58.6838 74.3171L52.3691 29.5886H57.6313Z" fill="#A9B2F8"/>
<path d="M48.9487 12.2234C49.4249 11.9393 49.7143 11.9761 49.9485 12.4734C51.5035 17.6908 52.448 23.074 52.7874 28.6256C52.7138 28.9387 52.6322 29.1834 52.5348 29.1913C51.3745 29.2808 42.9945 29.4518 42.8945 28.9782L42.8998 28.5335C43.9022 24.5317 45.7045 18.6564 47.2542 14.865C47.7936 13.5416 47.7778 13.1496 48.9513 12.2208L48.9487 12.2234Z" fill="#636567"/>
<path d="M52.6319 13.2758C54.029 18.7038 55.9313 23.9922 57.631 29.3255H42.6338C42.7522 29.0624 42.8259 28.815 42.8969 28.5361C43.1469 29.0439 43.2653 29.036 43.7941 29.0808C46.5331 29.3044 49.5957 28.8782 52.3715 29.0624C51.5584 23.9133 51.4006 18.1354 49.6851 13.1995C49.5457 12.7943 49.3852 12.3997 48.951 12.2234C51.1533 10.4816 51.1454 11.8866 52.6346 13.2758H52.6319Z" fill="#0C0D0D"/>
<path d="M52.1063 29.5886C51.8326 30.0254 51.1065 29.8517 50.6618 29.857C48.4043 29.8806 46.1469 29.9122 43.8946 29.9412C43.4605 29.9464 43.1842 30.1069 42.8975 29.5886C45.8706 29.4307 49.1016 29.5886 52.1063 29.5886Z" fill="#F5D9D1"/>
</g>
</g>
<rect x="1" y="1" width="98" height="98" rx="23" stroke="url(#paint5_linear_129_214)" stroke-width="2"/>
<defs>
<linearGradient id="paint0_linear_129_214" x1="50" y1="-0.153198" x2="50" y2="100.142" gradientUnits="userSpaceOnUse">
<stop stop-color="#CB431B"/>
<stop offset="1"/>
</linearGradient>
<linearGradient id="paint1_linear_129_214" x1="76.2629" y1="13.2732" x2="76.2629" y2="100.153" gradientUnits="userSpaceOnUse">
<stop stop-color="#290D05"/>
<stop offset="1"/>
</linearGradient>
<linearGradient id="paint2_linear_129_214" x1="50.0002" y1="63.4718" x2="50.0002" y2="99.8466" gradientUnits="userSpaceOnUse">
<stop stop-color="#D56949"/>
<stop offset="1"/>
</linearGradient>
<linearGradient id="paint3_linear_129_214" x1="34.7414" y1="63.028" x2="34.7414" y2="99.8432" gradientUnits="userSpaceOnUse">
<stop stop-color="#EAB4A4"/>
<stop offset="1"/>
</linearGradient>
<linearGradient id="paint4_linear_129_214" x1="65.5546" y1="63.4583" x2="65.5546" y2="99.8432" gradientUnits="userSpaceOnUse">
<stop stop-color="#10195F"/>
<stop offset="1"/>
</linearGradient>
<linearGradient id="paint5_linear_129_214" x1="50" y1="0" x2="50" y2="100" gradientUnits="userSpaceOnUse">
<stop stop-color="#F9DAD2"/>
<stop offset="1"/>
</linearGradient>
<clipPath id="clip0_129_214">
<rect width="100" height="100" rx="24" fill="white"/>
</clipPath>
<clipPath id="clip1_129_214">
<rect width="100" height="100" rx="24" fill="white"/>
</clipPath>
</defs>
</svg>
