<svg width="100" height="100" viewBox="0 0 100 100" fill="none" xmlns="http://www.w3.org/2000/svg">
<rect x="1" y="1" width="98" height="98" rx="23" fill="url(#paint0_linear_129_236)"/>
<rect x="1" y="1" width="98" height="98" rx="23" stroke="url(#paint1_linear_129_236)" stroke-width="2"/>
<path d="M49.6805 35.0671C50.1623 34.9421 50.3626 35.3902 50.3833 35.8244L50.3713 86.6648L50.0259 87L15 72.2087L15.057 24.1178C15.1122 24.0136 15.2279 24.0014 15.3177 23.9511L16.1483 24.0153L43.0756 32.5452C45.3394 33.2173 47.5428 34.0597 49.6805 35.0671Z" fill="#CB431B"/>
<path d="M50.026 87L50.0381 35.6577L49.6807 35.0671L51.5456 34.2786C62.5538 30.843 73.3755 27.4127 84.0141 23.9841L84.7342 23.9511L84.9949 24.1178L85.0001 72.2434L50.026 87Z" fill="#430813"/>
<path d="M84.7337 23.9511C84.1 24.4165 83.1969 24.625 82.4492 24.8664C71.5671 28.361 60.6176 31.873 49.6802 35.0671C38.508 31.378 27.2615 27.9025 16.0444 24.3471C15.775 24.262 15.4866 24.2099 15.3174 23.9511L49.9444 13L84.7337 23.9511Z" fill="#D56949"/>
<path d="M40.8726 51.0447L36.92 49.8116C36.8993 47.0516 35.5006 44.3491 32.7964 43.4511C29.6105 42.3916 27.9062 44.5088 28.8732 47.571C29.9369 50.9405 36.3588 54.1364 38.7694 57.7648C42.4215 63.2637 41.6945 72.9503 32.8862 69.7614C27.9753 67.9828 24.0538 62.6246 24.299 57.2975C25.1347 57.9141 27.832 58.126 28.0582 59.1595C28.3828 60.6376 28.2429 61.4904 29.1599 62.9146C30.7709 65.4175 36.5954 68.127 36.9027 63.46C37.2101 58.7843 31.4824 56.3683 28.7023 53.4764C26.991 51.6961 25.1969 48.7868 24.9828 46.2753C24.1833 36.9048 33.0555 37.2469 37.7713 42.7911C39.783 45.155 40.6671 47.9566 40.8743 51.0447H40.8726Z" fill="white"/>
<path d="M79.5537 35.2426L74.9794 66.1591C74.8914 66.3102 72.4497 67.2794 72.0664 67.4027C71.8989 67.4566 71.9006 67.6598 71.6917 67.3784L67.8133 47.7481L63.9747 70.5482C63.7865 71.1214 61.0565 71.8769 60.3882 72.2365L55.624 43.5727C56.2146 43.4302 58.7167 42.2683 59.0724 42.3742C59.2036 42.4124 59.29 42.5201 59.3245 42.6521L62.2928 62.9424L62.6313 63.2064L66.444 39.8575C66.7686 39.3729 68.7717 39.1054 69.3657 38.7163L73.1646 59.2098L76.0949 36.3958L79.5571 35.2443L79.5537 35.2426Z" fill="white"/>
<defs>
<linearGradient id="paint0_linear_129_236" x1="50" y1="0" x2="50" y2="100" gradientUnits="userSpaceOnUse">
<stop stop-color="#431508"/>
<stop offset="1"/>
</linearGradient>
<linearGradient id="paint1_linear_129_236" x1="50" y1="0" x2="50" y2="100" gradientUnits="userSpaceOnUse">
<stop stop-color="#FCECE8"/>
<stop offset="0.3" stop-color="#E0461C"/>
<stop offset="1"/>
</linearGradient>
</defs>
</svg>
