<svg width="100" height="100" viewBox="0 0 100 100" fill="none" xmlns="http://www.w3.org/2000/svg">
<rect x="1" y="1" width="98" height="98" rx="23" fill="url(#paint0_linear_132_424)"/>
<rect x="1" y="1" width="98" height="98" rx="23" stroke="url(#paint1_linear_132_424)" stroke-width="2"/>
<path d="M61.7597 17.9644C61.845 18.0687 61.7155 18.7649 61.7637 19.0702C56.4802 18.5862 51.1521 21.8886 55.4642 27.3394C58.4489 31.111 65.6604 33.3412 64.3627 26.148C65.2526 26.5277 66.2535 26.6357 67.0432 27.2575C80.0944 37.5037 71.8153 62.7916 55.9722 66.6897C52.3423 67.5833 45.4236 66.8945 42.8764 68.4471C39.7656 70.3422 34.3004 77.1444 31.8608 80.082C31.0747 81.0277 29.0616 82.1633 29.8773 83.4851C28.1791 82.4277 28.6389 85.2983 26.5403 84.9743C26.8592 83.9058 26.9034 82.584 26.922 81.4633C27.1036 70.2342 25.9101 56.935 26.8926 46.0558C27.2597 42.0087 30.4148 37.969 34.5304 37.3435C35.094 37.2579 42.4165 36.9676 40.9965 38.4345C40.8741 38.5611 38.5386 39.1828 37.8304 39.9126C35.7912 42.0013 37.8229 44.9575 39.9957 45.9665C44.0593 47.8542 50.2435 44.9389 49.0756 39.8195C48.5157 37.3622 46.5694 36.6101 45.2495 35.1023C40.2403 29.3909 37.4188 23.2588 44.5228 17.5921C49.632 13.5152 55.008 14.796 60.399 17.6703C60.8365 17.9048 61.7152 17.9197 61.7597 17.9719V17.9644Z" fill="#CB431B"/>
<defs>
<linearGradient id="paint0_linear_132_424" x1="50" y1="0" x2="50" y2="100" gradientUnits="userSpaceOnUse">
<stop stop-color="#2D050D"/>
<stop offset="0.5" stop-color="#160703"/>
<stop offset="1"/>
</linearGradient>
<linearGradient id="paint1_linear_132_424" x1="50" y1="0" x2="50" y2="100" gradientUnits="userSpaceOnUse">
<stop stop-color="#CB431B"/>
<stop offset="0.5" stop-color="#DF1A3F"/>
<stop offset="1"/>
</linearGradient>
</defs>
</svg>
