<svg width="100" height="100" viewBox="0 0 100 100" fill="none" xmlns="http://www.w3.org/2000/svg">
<g clip-path="url(#clip0_132_331)">
<rect width="100" height="100" rx="24" fill="black"/>
<path d="M98.936 5.32428H6.38281V92.5583H98.936V5.32428Z" fill="#FEFEFE"/>
<path d="M100 2.13281H0V100.005H100V2.13281Z" fill="black"/>
<path d="M47.7074 0.0883766C47.6728 0.300768 47.6036 0.345679 47.5605 0.135159H0.293568C0.249593 0.253986 0.211231 0.228724 0.176612 0.0883766C0.389004 0.122996 0.433915 0.193176 0.223395 0.236216C0.248657 19.9774 0.233687 39.7008 0.176612 59.4083C0.202811 59.3269 0.234623 59.3279 0.270177 59.4083C0.18784 39.9806 0.18784 19.634 0.270177 0.181941C15.7935 0.0996044 32.0672 0.0996044 47.6139 0.181941C47.6719 8.54007 47.6887 16.9225 47.6644 25.3293C47.5409 25.3686 47.4614 25.407 47.4267 25.4444C46.8345 25.6774 46.4219 25.6409 45.8165 25.7522C41.5883 26.5288 37.8523 28.2158 34.4811 30.8646L25.9069 22.31V10.6612H10.7494V25.8186H22.4918L30.95 34.305C31.0024 34.5061 30.0424 35.6158 29.8544 35.8937C25.8816 41.7873 24.5474 48.5951 26.1399 55.5731C26.9707 59.2147 28.7447 62.4586 30.95 65.4302L22.3991 74.0044H10.7504V89.0683H25.9078V77.4195L34.469 68.8621C38.206 71.9179 42.8168 73.8341 47.6494 74.3001L47.7084 74.3787L47.6148 99.7347H0.0839844V-0.00518799L47.7084 0.0883766H47.7074Z" fill="url(#paint0_linear_132_331)"/>
<path d="M52.293 0.0883766L99.9174 -0.00518799V99.7347H52.3865L52.293 74.3787L52.3519 74.3001C57.1845 73.8341 61.7954 71.9189 65.5324 68.8621L74.0935 77.4195V89.0683H89.251V74.0044H77.6022L69.0513 65.4302C71.2566 62.4586 73.0297 59.2156 73.8615 55.5731C75.454 48.5951 74.1207 41.7873 70.147 35.8937C69.9589 35.6149 68.9989 34.5061 69.0513 34.305L77.5096 25.8186H89.2519V10.6612H74.0945V22.31L65.5202 30.8646C62.1491 28.2158 58.413 26.5288 54.1848 25.7522C53.5795 25.6409 53.1669 25.6774 52.5746 25.4444C52.5914 25.4257 52.5297 25.3948 52.3875 25.3508C52.2995 17.1209 52.3061 8.43808 52.3875 0.181941C67.9108 0.0996044 84.1845 0.0996044 99.7312 0.181941C99.8135 32.8266 99.8135 66.9702 99.7312 99.6411C99.7574 99.5597 99.7892 99.5607 99.8247 99.6411C99.7677 66.5277 99.7527 33.3833 99.778 0.206269C99.6591 0.162294 99.6844 0.122996 99.8247 0.0883766C99.7901 0.300768 99.7209 0.345679 99.6778 0.135159H52.4109C52.3669 0.253986 52.3285 0.228724 52.2939 0.0883766H52.293Z" fill="url(#paint1_linear_132_331)"/>
<path d="M48.9026 29.9617C58.0214 29.2123 66.867 35.918 69.2201 44.5859C73.9199 61.9 55.1153 76.2107 39.7239 66.9712C23.0282 56.9495 29.2063 31.5813 48.9035 29.9617H48.9026Z" fill="#FEFEFE"/>
<path d="M52.2908 0.0883789H99.8216V99.6411H99.7281V0.181944H52.3844V25.3508C52.3844 25.3836 53.1076 25.3312 52.5715 25.4444C52.5004 25.4163 52.317 25.5099 52.2861 25.3929L52.2908 0.0883789Z" fill="black"/>
<path d="M47.7086 0.0883789L47.7132 25.3929C47.6814 25.5099 47.498 25.4173 47.4279 25.4444L47.382 25.3508L47.6169 25.2966L47.615 0.181944H0.271299V59.4084H0.177734V0.0883789H47.7086Z" fill="black"/>
<path d="M55.7536 44.1574H44.2451V55.5723H55.7536V44.1574Z" fill="black"/>
</g>
<rect x="1" y="1" width="98" height="98" rx="23" stroke="url(#paint2_linear_132_331)" stroke-width="2"/>
<defs>
<linearGradient id="paint0_linear_132_331" x1="23.8962" y1="-0.00518799" x2="23.8962" y2="99.7347" gradientUnits="userSpaceOnUse">
<stop stop-color="#6D8E08"/>
<stop offset="0.5" stop-color="#495F06"/>
<stop offset="1"/>
</linearGradient>
<linearGradient id="paint1_linear_132_331" x1="76.1052" y1="-0.00518799" x2="76.1052" y2="99.7347" gradientUnits="userSpaceOnUse">
<stop stop-color="#6D8E08"/>
<stop offset="0.5" stop-color="#495F06"/>
<stop offset="1"/>
</linearGradient>
<linearGradient id="paint2_linear_132_331" x1="50" y1="0" x2="50" y2="100" gradientUnits="userSpaceOnUse">
<stop stop-color="#F0FBCF"/>
<stop offset="1"/>
</linearGradient>
<clipPath id="clip0_132_331">
<rect width="100" height="100" rx="24" fill="white"/>
</clipPath>
</defs>
</svg>
