<svg width="100" height="100" viewBox="0 0 100 100" fill="none" xmlns="http://www.w3.org/2000/svg">
<rect x="1" y="1" width="98" height="98" rx="23" fill="url(#paint0_linear_132_365)"/>
<rect x="1" y="1" width="98" height="98" rx="23" stroke="url(#paint1_linear_132_365)" stroke-width="2"/>
<path d="M47.4898 15V27.5391C43.8933 29.8613 40.0747 31.8534 36.3947 34.0531C35.8883 34.5488 36.2385 34.7616 36.6789 35.0417C40.8101 37.6657 45.3791 39.837 49.5224 42.4744C50.1353 42.6765 50.4491 42.4771 50.9583 42.2144C55.1999 40.0242 59.2719 37.1403 63.5337 34.9407C63.8314 34.7952 63.8974 34.4989 63.7654 34.2093C60.0948 31.8669 56.1778 29.8693 52.506 27.5404V15.0013L53.0353 15.0593C62.1786 20.462 71.3961 25.7408 80.6067 31.0277L80.9435 31.3321L81.0027 63.5102C80.965 64.0288 80.934 64.243 80.3642 64.0328L69.847 57.9028L69.7972 45.1468C69.7487 44.4854 69.6355 44.4369 68.9674 44.6471C64.9575 47.275 60.2888 49.3278 56.3139 51.9491C56.1294 52.0703 55.5986 52.3976 55.5986 52.6212V68.5749C55.5986 68.5978 55.965 68.6746 56.0539 68.6624C56.2034 68.6409 56.4688 68.4577 56.6304 68.3796C59.8201 66.84 63.0299 64.4895 66.198 62.7937C66.4998 62.632 67.0965 62.2508 67.3887 62.267L77.8952 68.3122L78.108 68.7204L49.8874 85L21.7126 68.6826C21.6197 68.5345 21.6156 68.3082 21.7719 68.2018L32.3874 62.104C36.0809 64.1177 39.7029 66.2756 43.3317 68.4078C43.6011 68.5398 44.0604 68.5129 44.1587 68.1789L44.1843 52.9364C44.1008 52.0285 43.7573 52.0138 43.0784 51.5881L30.468 44.3912C30.0356 44.5151 29.9305 44.5919 29.8807 45.0418L29.8295 57.7976L19.3931 63.9022L18.9971 63.9857V31.118L47.4898 15.004V15Z" fill="white"/>
<defs>
<linearGradient id="paint0_linear_132_365" x1="50" y1="0" x2="50" y2="100" gradientUnits="userSpaceOnUse">
<stop stop-color="#19191A"/>
<stop offset="1"/>
</linearGradient>
<linearGradient id="paint1_linear_132_365" x1="50" y1="0" x2="50" y2="100" gradientUnits="userSpaceOnUse">
<stop stop-color="white"/>
<stop offset="1"/>
</linearGradient>
</defs>
</svg>
