<svg width="100" height="100" viewBox="0 0 100 100" fill="none" xmlns="http://www.w3.org/2000/svg">
<rect x="1" y="1" width="98" height="98" rx="23" fill="url(#paint0_linear_132_262)"/>
<rect x="1" y="1" width="98" height="98" rx="23" stroke="url(#paint1_linear_132_262)" stroke-width="2"/>
<path d="M80.1572 70.6915C80.1028 70.7674 80.129 70.8789 80.1112 70.9763C79.9238 72.0247 79.2221 72.9767 78.3133 73.5126C74.1842 75.4333 70.1423 77.5582 66.001 79.4518C64.5638 80.1086 63.2961 80.2856 61.9057 79.3618C61.8645 79.3178 61.8813 79.3019 61.9375 79.33C62.0387 79.3131 62.1502 79.3375 62.2729 79.4031C62.4116 79.4134 62.5194 79.4518 62.5971 79.5192C62.7836 79.5492 62.9766 79.5483 63.163 79.5192L63.2427 79.4452C63.6606 79.3881 64.0447 79.2101 64.3436 78.9102L64.4504 78.8915L64.4607 78.7884C64.6996 78.5242 64.8907 78.2122 64.9694 77.8618L65.0472 77.7925L65.079 77.6669L65.0229 77.6051C65.0538 72.9869 65.0622 68.3604 65.0472 63.7273L65.11 63.6879C65.0191 54.5678 65.0219 45.4468 65.11 36.3267C65.0819 36.3211 65.0828 36.3099 65.11 36.2949L65.1727 36.3248C65.183 41.9661 65.1934 47.6074 65.2037 53.2496L65.1409 53.2889L65.1709 53.2261H79.9913L80.0307 53.2889C79.9726 53.2636 79.9632 53.2046 80.0016 53.1128C80.0794 45.623 80.0766 38.1331 80.0578 30.6424C80.0663 30.2011 80.0888 29.7607 80.1262 29.3213H80.1581V70.6924L80.1572 70.6915Z" fill="#6EBEF1"/>
<path d="M25.4981 34.4407C25.6208 34.4098 25.752 34.4107 25.8747 34.4407C25.916 34.4426 25.959 34.4369 26.0003 34.4407L26.1258 34.4725C26.4903 34.5494 26.836 34.7049 27.1405 34.9185C30.6044 37.5429 34.0635 40.1747 37.5283 42.7972C40.5125 44.9474 43.446 47.167 46.3243 49.4569C46.3852 49.5084 46.2643 49.6087 46.2268 49.6087C40.5518 49.6236 34.8777 49.6227 29.2036 49.5515C29.1737 49.5609 29.1634 49.5506 29.1718 49.5196C29.1587 49.4812 29.1268 49.4606 29.0772 49.4569C28.976 49.5328 28.7783 49.306 28.8261 49.2058L28.7005 49.1111C28.6096 49.1599 28.4316 48.9828 28.4804 48.891L28.3548 48.7963C28.2302 48.8094 28.0953 48.668 28.1037 48.5452L28.0091 48.4825C27.9013 48.5143 27.7243 48.3391 27.758 48.2314L27.6324 48.1367C27.5134 48.1545 27.3663 48.0028 27.3813 47.8856L27.2867 47.8229C26.7864 47.5015 26.3329 47.0668 25.9675 46.5974L25.8729 46.5346C25.7979 46.4887 25.7239 46.4409 25.6517 46.3903C25.5796 46.3397 25.5093 46.2882 25.4447 46.231C24.6614 45.5377 23.8828 44.8387 23.107 44.1379C22.2413 43.3574 21.3624 42.5601 20.5473 41.7534C20.0966 41.3074 19.8755 40.7968 19.8418 40.1887V39.7175C19.9261 39.5469 19.9317 39.3436 19.9898 39.1591C20.1088 38.7796 20.3374 38.4573 20.5941 38.1612C21.7925 37.1999 22.8737 35.9548 24.0674 35.0066C24.4122 34.733 24.8085 34.5437 25.2442 34.4716L25.3697 34.4397C25.4109 34.436 25.454 34.4426 25.4952 34.4397L25.4981 34.4407Z" fill="#3B8BBE"/>
<path d="M35.7388 58.5657C32.7884 60.804 29.8643 63.0798 26.8811 65.2732C25.783 65.8354 24.7983 65.6002 23.896 64.8328C22.7248 63.8369 21.6417 62.7229 20.4874 61.7073C20.36 61.5339 20.2148 61.3568 20.1211 61.1629C19.9871 60.8846 19.9431 60.582 19.8438 60.2934V59.7912C19.8765 59.2075 20.1145 58.6922 20.5212 58.2537C23.1521 55.8177 25.8158 53.4192 28.5142 51.0581C28.754 50.9653 28.9957 51.282 29.0519 51.5013L30.8368 53.1165C30.8827 53.1962 30.9061 53.2861 30.908 53.3845L31.6847 54.0572C31.7316 54.1331 31.7597 54.2184 31.77 54.3121L33.5239 55.9329C33.5773 56.0126 33.5455 56.0894 33.4293 56.1634C33.9643 56.7068 34.5293 57.225 35.1242 57.7178C35.2404 57.9558 35.4062 58.1507 35.6217 58.3024C35.751 58.3989 35.7904 58.4861 35.7398 58.5648L35.7388 58.5657Z" fill="#1E465F"/>
<path d="M80.1245 29.3194C80.0852 37.2477 80.2041 45.206 80.0636 53.1165L80.0308 53.288H65.1411L65.1092 36.293C65.0436 31.7226 65.023 27.1523 65.0474 22.5819C65.0324 22.4086 64.9958 22.239 64.948 22.0723L64.9827 21.9683L64.8946 21.9017C64.4449 20.6612 63.0835 20.2509 61.9311 20.6987L61.8721 20.6491C63.2971 19.7103 64.5611 19.8883 66.0302 20.5591C69.9381 22.3449 73.7458 24.3621 77.6528 26.1507C78.9599 26.682 80.042 27.8662 80.1236 29.3194H80.1245Z" fill="#6EBEF1"/>
<path d="M64.9846 21.9692C64.7794 22.1547 64.5733 22.2662 64.2903 22.329C63.8622 23.0766 63.7385 24.0698 63.7638 24.9318C63.7516 25.0114 63.6992 25.0658 63.6064 25.0929L63.5717 25.1688L63.5389 26.7653C63.4359 27.0399 63.4302 27.2853 63.4509 27.5739C63.4518 27.7547 63.4434 27.9112 63.2391 27.9581C63.2326 28.8219 63.2157 29.6951 63.1876 30.5758C63.0583 30.8073 63.0217 31.0696 63.078 31.3619C63.0873 31.5109 63.0424 31.6177 62.9449 31.7255C62.9571 32.0974 62.9337 32.4666 62.8737 32.832L62.8475 34.3695C62.7931 34.4903 62.6685 34.5391 62.4736 34.5147L62.4765 36.0344C62.4202 36.3567 62.3874 36.6575 62.4221 36.9882C62.4521 37.259 62.2778 37.3986 62.0323 37.3152C62.0567 37.3217 62.0905 37.3311 62.0951 37.3517C62.1298 37.5185 62.1101 38.1997 62.0951 38.4002L62.0323 38.4461C62.1035 38.4798 62.0726 38.5576 61.9377 38.6812C60.5501 39.8533 59.1044 40.958 57.6025 41.9792C57.1528 42.2725 56.7162 42.5864 56.2908 42.9208C52.7192 42.9855 49.1467 42.9602 45.5742 42.9171C44.7946 42.3737 44.031 41.8078 43.2833 41.2203C42.8982 41.0104 42.5366 40.7565 42.1984 40.4595C41.7505 40.14 41.6119 40.1044 41.0263 40.1522C40.7461 40.1194 40.5756 40.0979 40.8286 39.844C40.8942 39.739 40.9944 39.6763 41.0797 39.5929L41.1743 39.5301C41.3851 39.3296 41.5875 39.115 41.802 38.9173C48.4449 32.7786 55.1974 26.7475 61.8759 20.6509L62.5861 20.4664C63.6467 20.3492 64.6726 20.9395 64.9855 21.9701L64.9846 21.9692Z" fill="#1E465F"/>
<path d="M40.8271 39.843C40.8112 39.8683 40.8084 39.9854 40.7325 40.0313C41.0473 40.1485 41.4071 40.0529 41.7191 40.0969C41.9421 40.1288 42.7075 40.794 42.953 40.9683C43.0748 41.0545 43.2069 41.0873 43.3184 41.1678C44.0829 41.7188 44.7988 42.3418 45.5867 42.8571C49.1471 42.9002 52.7206 42.9058 56.28 42.873C56.7447 42.6107 57.0923 42.1582 57.601 41.9792C55.0076 44.062 52.3589 46.0755 49.6531 48.0102C49.5453 48.0702 49.4788 48.029 49.3879 47.9653C48.8276 47.5212 48.2486 47.1164 47.6489 46.7519C47.1889 46.7979 46.9088 46.6067 46.5499 46.291C45.8556 45.6754 45.1164 45.1432 44.3303 44.6954L43.6998 44.2044C43.3334 43.9477 43.0579 43.8662 42.6354 43.7969C41.9205 43.2469 41.171 42.7222 40.3896 42.2228C39.9539 41.9558 39.5688 41.6494 39.2334 41.3056L39.2877 41.2241C39.758 40.7893 40.2275 40.3508 40.7006 39.9198C40.74 39.8842 40.7662 39.8458 40.8271 39.8421V39.843Z" fill="#1E465F"/>
<path d="M49.654 48.0112C49.2202 48.4619 48.6974 48.8451 48.1465 49.1421L48.0762 49.1458C47.4176 48.6614 46.7551 48.193 46.088 47.7395C45.6158 47.7058 45.2588 47.4481 44.885 47.1427C44.3004 46.6114 43.6745 46.142 43.0083 45.7345C42.5792 45.34 42.107 45.0402 41.5926 44.8359L40.8459 44.2672C39.9258 43.6891 39.0554 43.0511 38.2365 42.3531C38.1925 42.2903 38.2187 42.2182 38.3152 42.1366C38.4595 41.9005 39.0535 41.4443 39.2887 41.226C39.2803 41.2934 39.3065 41.3243 39.3496 41.3684C39.5201 41.5426 39.937 41.8218 40.1525 41.9792C40.6622 42.3512 41.215 42.6819 41.736 43.0352C41.9908 43.2085 42.4274 43.6301 42.6635 43.7416C42.7928 43.8025 42.9315 43.7847 43.0599 43.8166C43.6258 43.9562 43.9078 44.3338 44.3669 44.6457C44.543 44.7657 44.7229 44.8322 44.8897 44.939C45.6327 45.4159 46.3307 46.0933 47.0681 46.5927C47.2517 46.7276 47.4644 46.6686 47.6602 46.692C47.9198 46.7229 49.1265 47.7517 49.5003 47.9615C49.5491 47.9887 49.5997 48.0028 49.654 48.0121V48.0112Z" fill="#1E465F"/>
<path d="M38.3144 42.1367C38.2245 42.2837 38.247 42.28 38.3631 42.3868C39.2945 43.2516 40.638 43.9496 41.6227 44.7816C42.3151 44.9521 42.7648 45.5892 43.4001 45.8937C44.1197 46.335 44.8458 47.1286 45.5607 47.5343C45.7696 47.6533 45.9064 47.6243 46.1069 47.6786C46.2727 47.7236 47.3183 48.5359 47.5601 48.7073C47.7587 48.8479 47.9424 49.009 48.1466 49.1421L48.0979 49.232C47.7737 49.5328 47.4346 49.7961 47.0785 50.0219C46.7778 49.9029 46.522 49.7136 46.3243 49.456C43.3935 47.2345 40.46 45.0158 37.5283 42.7962L38.3135 42.1367H38.3144Z" fill="#1E465F"/>
<path d="M25.8747 34.4407C25.7576 34.4351 25.6142 34.4332 25.498 34.4407C25.5814 34.3882 25.7848 34.3873 25.8747 34.4407Z" fill="#3B8BBE"/>
<path d="M41.1727 39.5292C41.1577 39.5732 41.125 39.5929 41.0781 39.5919C41.1259 39.546 41.1671 39.5348 41.1727 39.5292Z" fill="#1E465F"/>
<path d="M26.1255 34.4716L26 34.4397C26.0693 34.4463 26.0909 34.4641 26.1255 34.4716Z" fill="#3B8BBE"/>
<path d="M25.3716 34.4407C25.3585 34.4416 25.2901 34.465 25.2461 34.4725L25.3716 34.4407Z" fill="#3B8BBE"/>
<path d="M47.0781 50.0209C51.8949 53.5484 56.6461 57.1687 61.3401 60.8584L61.4347 60.9211C61.4779 60.8771 61.4956 60.8958 61.4666 60.953L61.6278 61.1404C61.7027 61.2912 61.6943 62.2113 61.6661 62.408C61.6315 62.6498 61.6193 62.7004 61.371 62.765L61.3457 64.3765C61.2773 64.6988 61.2577 65.0286 61.2867 65.3659C61.2839 65.5009 61.2445 65.5486 61.1677 65.5084C61.1612 65.5327 61.1509 65.5693 61.1321 65.5711C61.074 65.5777 60.5774 65.5852 60.5521 65.5711C60.5287 65.558 60.5156 65.5336 60.5081 65.5084C60.4781 66.0527 60.4763 66.6083 60.5016 67.1723C60.3919 67.475 60.3854 67.7317 60.4013 68.0474C60.4182 68.2348 60.3797 68.3201 60.2879 68.3041C60.2814 68.3285 60.2711 68.3651 60.2523 68.3669C60.1942 68.3735 59.6977 68.381 59.6724 68.3669C59.6489 68.3538 59.6358 68.3294 59.6283 68.3041C59.6564 68.3772 59.588 68.4269 59.5187 68.4138C59.5431 68.4203 59.5787 68.4306 59.5815 68.4503C59.5946 68.5384 59.5974 69.0425 59.5815 69.1221L59.5187 69.168L59.4897 69.2308C56.6348 69.257 53.779 69.2823 50.9204 69.3067L50.7864 69.2458C46.3829 65.231 41.969 61.2247 37.5616 57.2146L37.3265 57.0572C35.2006 55.1965 33.0859 53.3179 31.0162 51.3935C30.5177 50.9625 30.0605 50.494 29.6455 49.989C29.4974 49.8429 29.3363 49.7136 29.2061 49.5496C34.8754 49.5496 40.5458 49.5496 46.2161 49.5496L46.3267 49.4559C46.5768 49.6452 46.8307 49.8316 47.0809 50.0218L47.0781 50.0209Z" fill="#3B8BBE"/>
<path d="M63.1619 62.2413L63.2566 62.3041C63.2997 62.26 63.3175 62.2788 63.2884 62.3359C63.443 62.513 63.4112 62.6638 63.2079 62.7697C63.1751 63.2335 63.1741 63.701 63.2041 64.1723C63.2491 64.4393 63.1713 64.6211 62.9708 64.7185V66.3235C62.9258 66.4275 62.864 66.5249 62.7853 66.614L62.7834 69.1755C62.7169 69.2514 62.6626 69.3292 62.6204 69.4069L62.6288 70.059C62.5623 70.3214 62.5426 70.5903 62.5707 70.8667C62.5754 71.0597 62.5604 71.1852 62.3833 71.2902C62.3468 71.6968 62.3515 72.1072 62.3983 72.5204C62.3983 72.8502 62.3937 72.9701 62.1594 73.2118C62.1651 73.4404 62.1594 73.669 62.1444 73.8958C62.0582 73.9679 61.9889 74.0438 61.9364 74.1253C61.9514 74.3802 61.9411 74.6275 61.9055 74.8664L61.8081 74.9517C61.706 75.5288 61.7013 76.1379 61.7134 76.745C61.6956 76.8752 61.5888 76.9099 61.4708 76.9099C61.4605 77.1179 61.4745 77.3278 61.5139 77.5395C61.5411 77.7484 61.4071 77.7794 61.2403 77.8018C61.2965 78.0567 61.378 78.3069 61.4858 78.5514C61.4877 78.7416 61.4745 78.9412 61.2431 78.7941C57.7024 75.6759 54.2686 72.4229 50.7822 69.2448L59.5154 69.1662V68.4119C59.5154 68.3791 59.5922 68.3023 59.625 68.3023H60.2846C60.3718 68.3023 60.3165 67.6099 60.3333 67.5031C60.3474 67.4132 60.413 67.3569 60.4261 67.2511C60.487 66.7629 60.3587 66.1286 60.4242 65.647C60.4299 65.6058 60.4645 65.5074 60.5039 65.5074H61.1635C61.1859 65.5074 61.2056 65.455 61.2103 65.4287C61.2459 65.2348 61.1953 64.9219 61.2103 64.7064C61.2169 64.6174 61.2684 64.5443 61.274 64.4553C61.3087 63.9053 61.2778 63.3131 61.305 62.7585C61.3321 62.6217 61.5579 62.7482 61.5898 62.5093C61.6216 62.2675 61.6188 61.4946 61.5898 61.25C61.5757 61.1367 61.5064 61.0523 61.4633 60.9521C62.0807 61.2969 62.6607 61.7382 63.1601 62.2404L63.1619 62.2413Z" fill="#3B8BBE"/>
<path d="M63.2886 62.335C63.6793 62.5083 64.0503 62.7922 64.3248 63.1201C64.5722 63.2654 64.4775 63.5643 64.3838 63.7779L64.3239 66.3797C64.3042 66.4631 64.2414 66.5118 64.1346 66.5259L64.1046 68.2377C63.9641 68.4447 63.9322 68.6209 63.9528 68.8804L63.9913 69.6234C64.0091 69.882 64.0006 70.1078 63.8816 70.3355C63.9069 70.6877 63.8863 71.0269 63.8189 71.3539C63.8479 71.9086 63.8442 72.4595 63.8076 73.0085L63.697 73.1772C63.6727 73.5791 63.6765 73.982 63.7102 74.3867C63.7645 74.6987 63.6877 74.918 63.4788 75.0417C63.4198 75.5654 63.4834 76.091 63.5715 76.612L63.5387 76.9717C63.6624 77.2659 63.7177 77.5545 63.7064 77.8375C63.846 78.0548 64.0034 78.26 64.1786 78.453C64.2761 78.4914 64.308 78.5823 64.2733 78.7266C64.337 78.781 64.396 78.8353 64.4494 78.8896C64.0803 79.2747 63.6924 79.4518 63.1611 79.5183C62.9747 79.5474 62.7826 79.5483 62.5952 79.5183C62.3423 79.5033 62.1577 79.449 61.9356 79.33C61.87 79.3019 61.8176 79.2803 61.7782 79.2672C61.5693 79.1145 61.4288 78.958 61.2442 78.7959C61.2826 78.7856 61.3847 78.8212 61.4016 78.7763C61.4053 78.7678 61.4287 78.6057 61.4287 78.5907C61.4259 78.4989 61.2283 78.0951 61.1955 77.9508C61.1861 77.9087 61.1683 77.7419 61.1814 77.7288C61.1983 77.7129 61.4269 77.7691 61.4503 77.637C61.4746 77.5002 61.3294 76.9315 61.4306 76.8631C61.4934 76.8209 61.6227 76.8902 61.6508 76.7384C61.6723 76.358 61.6255 75.9542 61.6508 75.5767C61.6564 75.4933 61.7023 75.4295 61.7117 75.3546C61.7257 75.2356 61.6958 75.0988 61.7211 74.9873C61.7473 74.873 61.855 74.8786 61.8719 74.7924C61.9075 74.6069 61.8166 74.175 61.901 74.0363C61.9375 73.9754 62.0631 73.9492 62.0855 73.8752C62.1361 73.7093 62.0556 73.387 62.0977 73.1968C62.1268 73.0704 62.2898 73.0141 62.3104 72.9064C62.3947 72.4651 62.228 71.7474 62.3123 71.3061C62.3338 71.1927 62.4397 71.1937 62.4706 71.1421C62.5381 71.0297 62.4894 70.5078 62.4997 70.3317C62.5053 70.2427 62.5568 70.1706 62.5634 70.0806C62.5784 69.867 62.5269 69.5484 62.5634 69.3582C62.5849 69.2458 62.7021 69.2674 62.7199 69.169V66.5934L62.9072 66.3404V64.7073C62.9288 64.6014 63.0993 64.6352 63.1274 64.4871C63.1752 64.2135 63.0553 62.8672 63.1574 62.7266C63.1902 62.6817 63.2895 62.6686 63.3111 62.5973C63.3382 62.5093 63.2895 62.4221 63.2848 62.3369L63.2886 62.335Z" fill="#3B8BBE"/>
<path d="M37.5597 57.2146C36.9516 57.6625 36.3389 58.1094 35.7374 58.5657C35.6615 58.3568 35.3879 58.2293 35.2642 58.0794C35.1846 57.9829 35.2174 57.9014 35.0628 57.7487C34.5746 57.269 33.8588 56.7696 33.4278 56.274C33.2966 56.1241 33.4007 56.1297 33.5065 56.006L31.7142 54.3429L31.6561 54.119L30.8522 53.4144L30.8072 53.1774L28.9961 51.5322C28.9258 51.2839 28.7619 51.1218 28.5117 51.0581C28.894 50.7095 29.2837 50.361 29.6426 49.99C32.1545 52.4681 34.94 54.832 37.5588 57.2146H37.5597Z" fill="#1E465F"/>
<path d="M61.9377 79.33L61.9059 79.3618C61.8609 79.3318 61.8224 79.2991 61.7803 79.2672L61.7953 79.2363C61.8468 79.255 61.8955 79.3075 61.9367 79.33H61.9377Z" fill="#3B8BBE"/>
<path d="M64.9844 21.9692C65.0462 22.1725 65.0931 22.3655 65.1109 22.5801C65.11 27.1514 65.1081 31.7226 65.1099 36.293C65.1099 36.3033 65.1099 36.3136 65.1099 36.3248C65.049 36.3333 65.0031 36.3717 64.9553 36.4064C63.9472 37.1578 62.9344 37.9242 61.9365 38.6812C61.9581 38.6297 62.0312 38.4882 62.0312 38.4461V37.3152C62.0312 37.2262 62.3104 37.3405 62.3441 37.1568C62.3797 36.9648 62.3319 36.65 62.3451 36.4354C62.3516 36.3305 62.4041 36.2349 62.4087 36.1225C62.4322 35.5818 62.39 35.0347 62.406 34.4931C62.4294 34.3919 62.7807 34.5091 62.7845 34.362C62.8042 33.8214 62.7845 33.2667 62.8144 32.727C62.821 32.6146 62.8716 32.5181 62.8782 32.4141C62.8913 32.2089 62.8444 31.9063 62.8791 31.7236C62.8941 31.6467 62.9784 31.613 62.9972 31.5278C63.044 31.3254 62.9719 31.0256 63.0056 30.8138C63.0224 30.7061 63.1143 30.6611 63.1302 30.5299C63.192 30.0137 63.1414 29.2641 63.162 28.7085C63.1677 28.5596 63.1293 27.9946 63.1892 27.9187C63.2201 27.8793 63.2988 27.8765 63.3354 27.8447C63.4281 27.765 63.3635 27.2619 63.3804 27.1045C63.3935 26.9836 63.4628 26.8806 63.475 26.7597L63.5087 25.1594C63.5359 24.9861 63.667 25.032 63.6914 24.9646C63.7289 24.8577 63.6839 24.4652 63.6961 24.3087C63.7289 23.8637 63.8385 23.3446 63.9707 22.9183C64.0138 22.7787 64.1074 22.4498 64.1852 22.3477C64.3117 22.18 64.4466 22.24 64.6077 22.1734C64.7445 22.1163 64.8026 21.9355 64.9844 21.9692Z" fill="#1E465F"/>
<path d="M65.1094 63.686L65.1113 77.3989C65.1076 77.4889 65.0869 77.5751 65.0785 77.665L65.0467 77.7906C64.9764 78.2103 64.7384 78.5889 64.4498 78.8896C64.3477 78.899 64.2175 78.81 64.2044 78.7106C64.1969 78.6554 64.2456 78.5832 64.2269 78.5495C64.2222 78.5411 64.1631 78.5289 64.136 78.4989C64.0385 78.3874 63.6778 77.962 63.6459 77.8543C63.6188 77.7615 63.6694 77.7063 63.6638 77.6219C63.6525 77.4477 63.4839 77.1685 63.4745 76.9567C63.4698 76.8527 63.512 76.7571 63.5092 76.6438C63.5045 76.4395 63.4239 76.1734 63.4117 75.9542C63.4005 75.7546 63.3808 75.214 63.4136 75.0426C63.4436 74.8889 63.6085 74.9845 63.6329 74.7596C63.6863 74.2724 63.5691 73.6625 63.631 73.1865C63.6478 73.0581 63.7434 73.0666 63.7603 72.9382C63.824 72.4557 63.7275 71.813 63.7584 71.3033C63.764 71.2143 63.8156 71.1412 63.8221 71.0522C63.8371 70.8198 63.7884 70.5153 63.823 70.2998C63.8371 70.2117 63.9045 70.1761 63.9167 70.0796C63.9776 69.6027 63.8305 68.8907 63.9167 68.4456C63.9336 68.3585 64.0573 68.3042 64.0423 68.1945L64.0723 66.5287C64.0807 66.4087 64.2531 66.4921 64.2615 66.3722L64.3233 63.7638C64.4152 63.5417 64.4807 63.3356 64.3233 63.1201C64.3327 63.1276 64.3712 63.1276 64.4021 63.1501C64.6391 63.3262 64.8593 63.5267 65.1094 63.6851V63.686Z" fill="#3B8BBE"/>
<path d="M63.1626 79.5183C63.1486 79.5202 63.113 79.5474 63.0567 79.552C62.9274 79.5633 62.7195 79.5661 62.5977 79.5183C62.7841 79.5296 62.9762 79.5099 63.1636 79.5183H63.1626Z" fill="#3B8BBE"/>
<path d="M65.0469 77.7906C65.0535 77.7522 65.0272 77.6875 65.0788 77.6651C65.075 77.7053 65.0966 77.7681 65.0469 77.7906Z" fill="#3B8BBE"/>
<path d="M28.482 48.89C28.4024 48.8975 28.3902 48.8272 28.3564 48.7954C28.4351 48.7945 28.4455 48.8488 28.482 48.89Z" fill="#3B8BBE"/>
<path d="M28.8277 49.2048C28.748 49.2123 28.7359 49.1411 28.7021 49.1102C28.7809 49.1093 28.7911 49.1636 28.8277 49.2048Z" fill="#3B8BBE"/>
<path d="M27.7593 48.2304C27.6797 48.2379 27.6675 48.1677 27.6338 48.1358C27.7125 48.1349 27.7228 48.1892 27.7593 48.2304Z" fill="#3B8BBE"/>
<path d="M29.079 49.4559C29.0968 49.4644 29.1512 49.4428 29.1699 49.4597C29.184 49.4719 29.168 49.5121 29.1727 49.5187L29.0781 49.4559H29.079Z" fill="#3B8BBE"/>
<path d="M25.9687 46.5974L25.874 46.5346C25.8806 46.5411 25.9237 46.5561 25.9687 46.5974Z" fill="#3B8BBE"/>
<path d="M28.1044 48.5452L28.0098 48.4825C28.0098 48.4825 28.0585 48.5021 28.1044 48.5452Z" fill="#3B8BBE"/>
<path d="M27.3827 47.8847L27.2881 47.8219C27.2956 47.8285 27.3368 47.8425 27.3827 47.8847Z" fill="#3B8BBE"/>
<path d="M61.4345 60.9211L61.3398 60.8584C61.3595 60.8734 61.396 60.8921 61.4345 60.9211Z" fill="#3B8BBE"/>
<path d="M63.2568 62.3041L63.1621 62.2413C63.1818 62.2563 63.2183 62.275 63.2568 62.3041Z" fill="#3B8BBE"/>
<defs>
<linearGradient id="paint0_linear_132_262" x1="50" y1="0" x2="50" y2="100" gradientUnits="userSpaceOnUse">
<stop stop-color="#0F2330"/>
<stop offset="1"/>
</linearGradient>
<linearGradient id="paint1_linear_132_262" x1="50" y1="0" x2="50" y2="100" gradientUnits="userSpaceOnUse">
<stop stop-color="#EDF7FD"/>
<stop offset="0.5" stop-color="#4AAEEE"/>
<stop offset="1"/>
</linearGradient>
</defs>
</svg>
