<svg width="24" height="24" viewBox="0 0 24 24" fill="none" xmlns="http://www.w3.org/2000/svg">
<path d="M20 19C20.5523 19 21 18.5523 21 18C21 17.4477 20.5523 17 20 17H4C3.44772 17 3 17.4477 3 18C3 18.5523 3.44772 19 4 19H20Z" fill="#DBEFFC"/>
<path d="M18 13C18.5523 13 19 12.5523 19 12C19 11.4477 18.5523 11 18 11H6C5.44772 11 5 11.4477 5 12C5 12.5523 5.44772 13 6 13H18Z" fill="#92CEF5"/>
<path d="M15 7C15.5523 7 16 6.55228 16 6C16 5.44772 15.5523 5 15 5H9C8.44772 5 8 5.44772 8 6C8 6.55228 8.44772 7 9 7H15Z" fill="#4AAEEE"/>
</svg>
