<svg width="24" height="24" viewBox="0 0 24 24" fill="none" xmlns="http://www.w3.org/2000/svg">
<path d="M22 12C22 15.5929 21.5752 18.2392 19.9072 19.9072C18.2392 21.5752 15.5929 22 12 22C8.40715 22 5.76078 21.5752 4.09277 19.9072C2.42477 18.2392 2 15.5929 2 12C2 8.40715 2.42477 5.76078 4.09277 4.09277C5.76078 2.42477 8.40715 2 12 2C15.5929 2 18.2392 2.42477 19.9072 4.09277C21.5752 5.76078 22 8.40715 22 12Z" fill="url(#paint0_linear_137_2500)"/>
<path d="M17 20.8333V20C17 19.2044 16.5626 21.3959 16 20.8333C15.4374 20.2707 14.2956 21.0498 13.5 21.0498L10 20.8333C9.20435 20.8333 8.56261 20.2707 8 20.8333C7.43739 21.3959 7 19.2044 7 20V20.0498C7 20.6021 6.55228 21.0498 6 21.0498C5.44772 21.0498 5 20.6021 5 20.0498V20C5 18.6739 5.52716 17.4025 6.46484 16.4648C7.40253 15.5272 8.67392 15 10 15H14C15.3261 15 16.5975 15.5272 17.5352 16.4648C18.4728 17.4025 19 18.6739 19 20V20.0498C19 20.6021 18.5523 21.0498 18 21.0498C17.4477 21.0498 17 21.3856 17 20.8333Z" fill="url(#paint1_linear_137_2500)"/>
<path d="M16 10C16 11.0609 15.5783 12.078 14.8281 12.8281C14.078 13.5783 13.0609 14 12 14C10.9391 14 9.92202 13.5783 9.17188 12.8281C8.42173 12.078 8 11.0609 8 10C8 8.93913 8.42173 7.92202 9.17188 7.17188C9.92202 6.42173 10.9391 6 12 6C13.0609 6 14.078 6.42173 14.8281 7.17188C15.5783 7.92202 16 8.93913 16 10Z" fill="#F9DAD2"/>
<path d="M12 3C15.5992 3 17.8499 3.44954 19.2002 4.7998C20.5505 6.15007 21 8.40085 21 12C21 15.5992 20.5505 17.8499 19.2002 19.2002C17.8499 20.5505 15.5992 21 12 21C8.40085 21 6.15007 20.5505 4.7998 19.2002C3.44954 17.8499 3 15.5992 3 12C3 8.40085 3.44954 6.15007 4.7998 4.7998C6.15007 3.44954 8.40085 3 12 3Z" stroke="url(#paint2_linear_137_2500)" stroke-width="2" stroke-linecap="round" stroke-linejoin="round"/>
<defs>
<linearGradient id="paint0_linear_137_2500" x1="12" y1="2" x2="12" y2="22" gradientUnits="userSpaceOnUse">
<stop stop-color="#163447"/>
<stop offset="1"/>
</linearGradient>
<linearGradient id="paint1_linear_137_2500" x1="12" y1="2.33331" x2="12" y2="21.8333" gradientUnits="userSpaceOnUse">
<stop stop-color="#F3B5A4"/>
<stop offset="1" stop-color="#4AAEEE"/>
</linearGradient>
<linearGradient id="paint2_linear_137_2500" x1="12" y1="2" x2="12" y2="22" gradientUnits="userSpaceOnUse">
<stop stop-color="#F3B5A4"/>
<stop offset="1" stop-color="#4AAEEE"/>
</linearGradient>
</defs>
</svg>
