<svg width="24" height="24" viewBox="0 0 24 24" fill="none" xmlns="http://www.w3.org/2000/svg">
<path fill-rule="evenodd" clip-rule="evenodd" d="M14.0564 2.25C15.8942 2.24998 17.3498 2.24997 18.489 2.40314C19.6614 2.56076 20.6104 2.89288 21.3588 3.64124C22.1071 4.38961 22.4392 5.33856 22.5969 6.51098C22.75 7.65019 22.75 9.10582 22.75 10.9436V13.0564C22.75 14.8942 22.75 16.3498 22.5969 17.489C22.4392 18.6614 22.1071 19.6104 21.3588 20.3588C20.6104 21.1071 19.6614 21.4392 18.489 21.5969C17.3498 21.75 15.8942 21.75 14.0565 21.75H9.9436C9.6294 21.75 9.3262 21.75 9.034 21.7492C9.0227 21.7497 9.0114 21.75 9 21.75C8.9871 21.75 8.9743 21.7497 8.9616 21.749C7.5776 21.7448 6.4393 21.7217 5.511 21.5969C4.3386 21.4392 3.3896 21.1071 2.6412 20.3588C1.8929 19.6104 1.5608 18.6614 1.4031 17.489C1.25 16.3498 1.25 14.8942 1.25 13.0565V10.9436C1.25 9.10585 1.25 7.65018 1.4031 6.51098C1.5608 5.33856 1.8929 4.38961 2.6412 3.64124C3.3896 2.89288 4.3386 2.56076 5.511 2.40314C6.4393 2.27833 7.5776 2.25523 8.9616 2.25096C8.9743 2.25032 8.9871 2.25 9 2.25C9.0114 2.25 9.0227 2.25025 9.034 2.25076C9.3263 2.25 9.6293 2.25 9.9436 2.25H14.0564ZM9.75 3.75002C9.8323 3.75 9.9156 3.75 10 3.75H14C15.9068 3.75 17.2615 3.75159 18.2891 3.88976C19.2952 4.02503 19.8749 4.27869 20.2981 4.7019C20.7213 5.12511 20.975 5.70476 21.1102 6.71085C21.2484 7.73851 21.25 9.09318 21.25 11V13C21.25 14.9068 21.2484 16.2615 21.1102 17.2892C20.975 18.2952 20.7213 18.8749 20.2981 19.2981C19.8749 19.7213 19.2952 19.975 18.2891 20.1102C17.2615 20.2484 15.9068 20.25 14 20.25H10C9.9156 20.25 9.8323 20.25 9.75 20.25V3.75002ZM8.25 20.2443C7.2164 20.2334 6.3918 20.2018 5.7108 20.1102C4.7048 19.975 4.1251 19.7213 3.7019 19.2981C3.2787 18.8749 3.025 18.2952 2.8898 17.2892C2.7516 16.2615 2.75 14.9068 2.75 13V11C2.75 9.09318 2.7516 7.73851 2.8898 6.71085C3.025 5.70476 3.2787 5.12511 3.7019 4.7019C4.1251 4.27869 4.7048 4.02503 5.7108 3.88976C6.3918 3.79821 7.2164 3.76662 8.25 3.75573V20.2443Z" fill="#4AAEEE" stroke="#4AAEEE" stroke-width="0.8"/>
</svg>
