<svg width="24" height="24" viewBox="0 0 24 24" fill="none" xmlns="http://www.w3.org/2000/svg">
<path d="M12 3C15.5992 3 17.8499 3.44954 19.2002 4.7998C20.5505 6.15007 21 8.40085 21 12C21 15.5992 20.5505 17.8499 19.2002 19.2002C17.8499 20.5505 15.5992 21 12 21C8.40085 21 6.15007 20.5505 4.7998 19.2002C3.44954 17.8499 3 15.5992 3 12C3 8.40085 3.44954 6.15007 4.7998 4.7998C6.15007 3.44954 8.40085 3 12 3Z" fill="url(#paint0_linear_137_2530)" stroke="url(#paint1_linear_137_2530)" stroke-width="2" stroke-linecap="round" stroke-linejoin="round"/>
<path d="M14.2929 9.29295C14.6834 8.90243 15.3164 8.90243 15.707 9.29295C16.0975 9.68348 16.0975 10.3165 15.707 10.707L11.707 14.707C11.3164 15.0975 10.6834 15.0975 10.2929 14.707L8.29289 12.707C7.90237 12.3165 7.90237 11.6835 8.29289 11.293C8.68342 10.9024 9.31643 10.9024 9.70696 11.293L10.9999 12.5859L14.2929 9.29295Z" fill="#4AAEEE"/>
<defs>
<linearGradient id="paint0_linear_137_2530" x1="12" y1="2" x2="12" y2="22" gradientUnits="userSpaceOnUse">
<stop stop-color="#163447"/>
<stop offset="1"/>
</linearGradient>
<linearGradient id="paint1_linear_137_2530" x1="12" y1="2" x2="12" y2="22" gradientUnits="userSpaceOnUse">
<stop stop-color="#4AAEEE"/>
<stop offset="1" stop-color="#163447"/>
</linearGradient>
</defs>
</svg>
