<svg width="24" height="24" viewBox="0 0 24 24" fill="none" xmlns="http://www.w3.org/2000/svg">
<path d="M9.07312 2.53713C11.0303 2.48796 12.9694 2.48795 14.9266 2.53713C16.4706 2.57592 17.7377 2.60499 18.7557 2.78224C19.8189 2.9674 20.7098 3.32817 21.4637 4.08498C22.2136 4.8378 22.5729 5.71515 22.7548 6.76271C22.9284 7.76266 22.9523 9.00063 22.9843 10.5029C23.0057 11.5029 23.0057 12.4971 22.9843 13.4971C22.9523 14.9994 22.9284 16.2374 22.7548 17.2373C22.5729 18.2849 22.2136 19.1622 21.4637 19.9151C20.7097 20.6719 19.8189 21.0327 18.7557 21.2178C17.7377 21.395 16.4706 21.4241 14.9266 21.4629C12.9694 21.5121 11.0303 21.5121 9.07312 21.4629C7.52915 21.4241 6.26207 21.395 5.24402 21.2178C4.18087 21.0327 3.28998 20.6719 2.53601 19.9151C1.78618 19.1622 1.42691 18.2849 1.245 17.2373C1.07137 16.2374 1.04754 14.9994 1.0155 13.4971C0.994181 12.4972 0.994181 11.5029 1.0155 10.5029C1.04754 9.00063 1.07136 7.76266 1.245 6.76271C1.42691 5.71517 1.78615 4.8378 2.53601 4.08498C3.28998 3.32814 4.18086 2.9674 5.24402 2.78224C6.26208 2.60499 7.52915 2.57591 9.07312 2.53713Z" fill="url(#paint0_linear_141_374)" stroke="#CF7AF5" stroke-width="2" stroke-linejoin="round"/>
<path d="M22.4932 6.87012L15.5801 10.7871C14.2805 11.5235 13.1812 12 12 12C10.8188 12 9.71953 11.5235 8.41992 10.7871L1.50684 6.87012L2.49316 5.12988L9.40625 9.04688C10.6551 9.75446 11.3685 10 12 10C12.6315 10 13.3449 9.75446 14.5938 9.04688L21.5068 5.12988L22.4932 6.87012Z" fill="#CF7AF5"/>
<defs>
<linearGradient id="paint0_linear_141_374" x1="11.9999" y1="2.50024" x2="11.9999" y2="21.4998" gradientUnits="userSpaceOnUse">
<stop stop-color="#460E60"/>
<stop offset="1"/>
</linearGradient>
</defs>
</svg>
