<svg width="24" height="24" viewBox="0 0 24 24" fill="none" xmlns="http://www.w3.org/2000/svg">
<path d="M21 4C21.5523 4 22 4.44772 22 5C22 5.55228 21.5523 6 21 6H13C12.4477 6 12 5.55228 12 5C12 4.44772 12.4477 4 13 4H21Z" fill="#4AAEEE"/>
<path d="M18 8C18.5523 8 19 8.44772 19 9C19 9.55228 18.5523 10 18 10H13C12.4477 10 12 9.55228 12 9C12 8.44772 12.4477 8 13 8H18Z" fill="#4AAEEE"/>
<path d="M21 14C21.5523 14 22 14.4477 22 15C22 15.5523 21.5523 16 21 16H13C12.4477 16 12 15.5523 12 15C12 14.4477 12.4477 14 13 14H21Z" fill="#4AAEEE"/>
<path d="M18 18C18.5523 18 19 18.4477 19 19C19 19.5523 18.5523 20 18 20H13C12.4477 20 12 19.5523 12 19C12 18.4477 12.4477 18 13 18H18Z" fill="#4AAEEE"/>
<path d="M4 3.75H8C8.33132 3.75 8.64922 3.88165 8.88379 4.11621C9.11835 4.35078 9.25 4.66868 9.25 5V9C9.25 9.33132 9.11835 9.64922 8.88379 9.88379C8.64922 10.1184 8.33132 10.25 8 10.25H4C3.66868 10.25 3.35078 10.1184 3.11621 9.88379C2.88165 9.64922 2.75 9.33132 2.75 9V5C2.75 4.66868 2.88165 4.35078 3.11621 4.11621C3.35078 3.88165 3.66868 3.75 4 3.75Z" stroke="#4AAEEE" stroke-width="1.5" stroke-miterlimit="16" stroke-linecap="round" stroke-linejoin="round"/>
<path d="M4 13.75H8C8.33132 13.75 8.64922 13.8816 8.88379 14.1162C9.11835 14.3508 9.25 14.6687 9.25 15V19C9.25 19.3313 9.11835 19.6492 8.88379 19.8838C8.64922 20.1184 8.33131 20.25 8 20.25H4C3.66869 20.25 3.35078 20.1184 3.11621 19.8838C2.88164 19.6492 2.75 19.3313 2.75 19V15C2.75 14.6687 2.88165 14.3508 3.11621 14.1162C3.35078 13.8816 3.66868 13.75 4 13.75Z" stroke="#4AAEEE" stroke-width="1.5" stroke-linecap="round" stroke-linejoin="round"/>
</svg>
