<svg width="24" height="24" viewBox="0 0 24 24" fill="none" xmlns="http://www.w3.org/2000/svg">
<path d="M12 3C15.5992 3 17.8499 3.44954 19.2002 4.7998C20.5505 6.15007 21 8.40085 21 12C21 15.5992 20.5505 17.8499 19.2002 19.2002C17.8499 20.5505 15.5992 21 12 21C8.40085 21 6.15007 20.5505 4.7998 19.2002C3.44954 17.8499 3 15.5992 3 12C3 8.40085 3.44954 6.15007 4.7998 4.7998C6.15007 3.44954 8.40085 3 12 3Z" fill="url(#paint0_linear_141_306)" stroke="#4AAEEE" stroke-width="2" stroke-linecap="round" stroke-linejoin="round"/>
<path d="M11.2929 7.29295C11.6834 6.90243 12.3164 6.90243 12.707 7.29295L16.707 11.293C17.0975 11.6835 17.0975 12.3165 16.707 12.707L12.707 16.707C12.3164 17.0975 11.6834 17.0975 11.2929 16.707C10.9024 16.3165 10.9024 15.6835 11.2929 15.293L14.5859 12L11.2929 8.70702C10.9024 8.31649 10.9024 7.68348 11.2929 7.29295Z" fill="#00AEEF"/>
<path d="M16 11C16.5523 11 17 11.4477 17 12C17 12.5523 16.5523 13 16 13H8C7.44772 13 7 12.5523 7 12C7 11.4477 7.44772 11 8 11H16Z" fill="#00AEEF"/>
<defs>
<linearGradient id="paint0_linear_141_306" x1="12" y1="2" x2="12" y2="22" gradientUnits="userSpaceOnUse">
<stop stop-color="#163447"/>
<stop offset="1"/>
</linearGradient>
</defs>
</svg>
