<svg width="24" height="24" viewBox="0 0 24 24" fill="none" xmlns="http://www.w3.org/2000/svg">
<path d="M4 12V5C4 4.20435 4.3163 3.44152 4.87891 2.87891C5.44152 2.3163 6.20435 2 7 2H14C14.2652 2 14.5195 2.10543 14.707 2.29297L19.707 7.29297C19.8946 7.4805 20 7.73478 20 8V12C20 12.5523 19.5523 13 19 13C18.4477 13 18 12.5523 18 12V8.41406L13.5859 4H7C6.73478 4 6.4805 4.10543 6.29297 4.29297C6.10543 4.4805 6 4.73478 6 5V12C6 12.5523 5.55228 13 5 13C4.44772 13 4 12.5523 4 12Z" fill="#FCE8EC"/>
<path d="M13 7V3C13 2.44772 13.4477 2 14 2C14.5523 2 15 2.5 15.5 3L17 4.5L19 6.5C19.5 7 20 7.44772 20 8C20 8.55228 19.5523 9 19 9H15C14.4696 9 13.961 8.78913 13.5859 8.41406C13.2109 8.03899 13 7.53043 13 7Z" fill="url(#paint0_linear_141_363)"/>
<path d="M7 16.5C7 16.3674 6.94728 16.2403 6.85352 16.1465C6.75975 16.0527 6.63261 16 6.5 16H6V17H6.5C6.63261 17 6.75975 16.9473 6.85352 16.8535C6.94728 16.7597 7 16.6326 7 16.5ZM9 16.5C9 17.163 8.73642 17.7987 8.26758 18.2676C7.79874 18.7364 7.16304 19 6.5 19H6V21C6 21.5523 5.55228 22 5 22C4.44772 22 4 21.5523 4 21V15C4 14.4477 4.44772 14 5 14H6.5C7.16304 14 7.79874 14.2636 8.26758 14.7324C8.73642 15.2013 9 15.837 9 16.5Z" fill="url(#paint1_linear_141_363)"/>
<path d="M19 17C19.5523 17 20 17.4477 20 18C20 18.5523 19.5523 19 19 19H17C16.4477 19 16 18.5523 16 18C16 17.4477 16.4477 17 17 17H19Z" fill="url(#paint2_linear_141_363)"/>
<path d="M16 21V15C16 14.4477 16.4477 14 17 14H20C20.5523 14 21 14.4477 21 15C21 15.5523 20.5523 16 20 16H18V21C18 21.5523 17.5523 22 17 22C16.4477 22 16 21.5523 16 21Z" fill="url(#paint3_linear_141_363)"/>
<path d="M13 17C13 16.7348 12.8946 16.4805 12.707 16.293C12.5195 16.1054 12.2652 16 12 16V20C12.2652 20 12.5195 19.8946 12.707 19.707C12.8946 19.5195 13 19.2652 13 19V17ZM15 19C15 19.7957 14.6837 20.5585 14.1211 21.1211C13.5585 21.6837 12.7957 22 12 22H11C10.4477 22 10 21.5523 10 21V15C10 14.4477 10.4477 14 11 14H12C12.7957 14 13.5585 14.3163 14.1211 14.8789C14.6837 15.4415 15 16.2043 15 17V19Z" fill="url(#paint4_linear_141_363)"/>
<defs>
<linearGradient id="paint0_linear_141_363" x1="16.5" y1="2" x2="16.5" y2="9" gradientUnits="userSpaceOnUse">
<stop stop-color="#430813"/>
<stop offset="1" stop-color="#DF1A3F"/>
</linearGradient>
<linearGradient id="paint1_linear_141_363" x1="6.5" y1="14" x2="6.5" y2="22" gradientUnits="userSpaceOnUse">
<stop offset="1" stop-color="#DF1A3F"/>
</linearGradient>
<linearGradient id="paint2_linear_141_363" x1="18" y1="17" x2="18" y2="19" gradientUnits="userSpaceOnUse">
<stop offset="1" stop-color="#DF1A3F"/>
</linearGradient>
<linearGradient id="paint3_linear_141_363" x1="18.5" y1="14" x2="18.5" y2="22" gradientUnits="userSpaceOnUse">
<stop offset="1" stop-color="#DF1A3F"/>
</linearGradient>
<linearGradient id="paint4_linear_141_363" x1="12.5" y1="14" x2="12.5" y2="22" gradientUnits="userSpaceOnUse">
<stop offset="1" stop-color="#DF1A3F"/>
</linearGradient>
</defs>
</svg>
