<svg width="24" height="24" viewBox="0 0 24 24" fill="none" xmlns="http://www.w3.org/2000/svg">
<path d="M16 8C16 6.93913 15.5783 5.92202 14.8281 5.17188C14.078 4.42173 13.0609 4 12 4C10.9391 4 9.92202 4.42173 9.17188 5.17188C8.42173 5.92202 8 6.93913 8 8C8 9.06087 8.42173 10.078 9.17188 10.8281C9.92202 11.5783 10.9391 12 12 12C13.0609 12 14.078 11.5783 14.8281 10.8281C15.5783 10.078 16 9.06087 16 8ZM18 8C18 9.5913 17.3674 11.117 16.2422 12.2422C15.117 13.3674 13.5913 14 12 14C10.4087 14 8.88303 13.3674 7.75781 12.2422C6.63259 11.117 6 9.5913 6 8C6 6.4087 6.63259 4.88303 7.75781 3.75781C8.88303 2.63259 10.4087 2 12 2C13.5913 2 15.117 2.63259 16.2422 3.75781C17.3674 4.88303 18 6.4087 18 8Z" fill="#00AEEF"/>
<path d="M8.00021 10C8.55236 10.0001 9.00019 10.4478 9.00021 11C9.00021 11.5522 8.55239 11.9999 8.00021 12C7.09902 12 6.22438 12.3049 5.51779 12.8643C4.81122 13.4236 4.31351 14.2049 4.10666 15.082C3.89988 15.9591 3.99597 16.8802 4.37814 17.6963C4.76035 18.5124 5.4069 19.1754 6.2131 19.5781C7.01926 19.9808 7.93754 20.0996 8.81955 19.915C9.70151 19.7304 10.4955 19.2536 11.0725 18.5615C11.6495 17.8694 11.9764 17.0024 11.9992 16.1016C12.0221 15.2007 11.7397 14.3182 11.1985 13.5977C10.8668 13.1561 10.9561 12.529 11.3977 12.1973C11.8392 11.8659 12.4654 11.9551 12.7971 12.3965C13.609 13.4773 14.0325 14.801 13.9983 16.1523C13.9639 17.5036 13.4741 18.8036 12.6086 19.8418C11.7431 20.88 10.5527 21.5961 9.22971 21.873C7.90665 22.15 6.52883 21.9712 5.31955 21.3672C4.11031 20.7632 3.13994 19.769 2.56662 18.5449C1.99335 17.3208 1.85016 15.9387 2.16037 14.623C2.47061 13.3075 3.21593 12.1349 4.2756 11.2959C5.33549 10.4568 6.64842 10.0001 8.00021 10Z" fill="#00AEEF"/>
<path d="M16.0001 10C17.0226 10.0001 18.0279 10.2619 18.921 10.7598C19.8142 11.2577 20.5659 11.975 21.1036 12.8447C21.6413 13.7144 21.947 14.7072 21.9933 15.7285C22.0395 16.75 21.8243 17.7669 21.3673 18.6816C20.9104 19.5962 20.2272 20.3786 19.3829 20.9551C18.5385 21.5316 17.5604 21.8832 16.5421 21.9756C15.5238 22.068 14.4981 21.8985 13.5636 21.4834C12.6293 21.0683 11.8163 20.421 11.2023 19.6035C10.8707 19.1619 10.96 18.5348 11.4015 18.2031C11.8431 17.8716 12.4702 17.9608 12.8019 18.4023C13.2113 18.9473 13.7532 19.3785 14.3761 19.6553C14.9991 19.932 15.6826 20.045 16.3615 19.9834C17.0402 19.9218 17.6921 19.688 18.255 19.3037C18.8179 18.9194 19.2736 18.3978 19.5783 17.7881C19.8829 17.1783 20.027 16.5003 19.9962 15.8193C19.9654 15.1384 19.7609 14.4763 19.4025 13.8965C19.044 13.3167 18.5428 12.8378 17.9474 12.5059C17.3521 12.174 16.6817 12.0001 16.0001 12C15.4479 12 15.0001 11.5523 15.0001 11C15.0002 10.4477 15.4478 9.99997 16.0001 10Z" fill="#00AEEF"/>
</svg>
