<svg width="24" height="24" viewBox="0 0 24 24" fill="none" xmlns="http://www.w3.org/2000/svg">
<path d="M7 3H17C18.0606 3 19.0778 3.42154 19.8281 4.17188C20.5785 4.92221 21 5.93941 21 7V17C21 18.0606 20.5785 19.0778 19.8281 19.8281C19.0778 20.5785 18.0606 21 17 21H7C5.93941 21 4.92221 20.5785 4.17188 19.8281C3.42154 19.0778 3 18.0606 3 17V7C3 5.93941 3.42154 4.92221 4.17188 4.17188C4.92221 3.42154 5.93941 3 7 3Z" fill="url(#paint0_linear_141_341)" stroke="white" stroke-width="2" stroke-linecap="round" stroke-linejoin="round"/>
<path d="M7 16V11C7 10.4477 7.44772 10 8 10C8.55228 10 9 10.4477 9 11V16C9 16.5523 8.55228 17 8 17C7.44772 17 7 16.5523 7 16Z" fill="white"/>
<path d="M7 8.00977V8C7 7.44772 7.44772 7 8 7C8.55228 7 9 7.44772 9 8V8.00977C9 8.56205 8.55228 9.00977 8 9.00977C7.44772 9.00977 7 8.56205 7 8.00977Z" fill="white"/>
<path d="M11 16V11C11 10.4477 11.4477 10 12 10C12.5523 10 13 10.4477 13 11V16C13 16.5523 12.5523 17 12 17C11.4477 17 11 16.5523 11 16Z" fill="white"/>
<path d="M15 16V13C15 12.7348 14.8946 12.4805 14.707 12.293C14.5195 12.1054 14.2652 12 14 12C13.7348 12 13.4805 12.1054 13.293 12.293C13.1054 12.4805 13 12.7348 13 13C13 13.5523 12.5523 14 12 14C11.4477 14 11 13.5523 11 13C11 12.2043 11.3163 11.4415 11.8789 10.8789C12.4415 10.3163 13.2043 10 14 10C14.7957 10 15.5585 10.3163 16.1211 10.8789C16.6837 11.4415 17 12.2043 17 13V16C17 16.5523 16.5523 17 16 17C15.4477 17 15 16.5523 15 16Z" fill="white"/>
<defs>
<linearGradient id="paint0_linear_141_341" x1="12" y1="2" x2="12" y2="22" gradientUnits="userSpaceOnUse">
<stop stop-color="#293EEE"/>
<stop offset="1"/>
</linearGradient>
</defs>
</svg>
