<svg width="24" height="24" viewBox="0 0 24 24" fill="none" xmlns="http://www.w3.org/2000/svg">
<path d="M22.4932 6.87012L15.5801 10.7871C14.2805 11.5235 13.1812 12 12 12C10.8188 12 9.71953 11.5235 8.41992 10.7871L1.50684 6.87012L2.49316 5.12988L9.40625 9.04688C10.6551 9.75446 11.3685 10 12 10C12.6315 10 13.3449 9.75446 14.5938 9.04688L21.5068 5.12988L22.4932 6.87012Z" fill="#4AAEEE"/>
<path d="M9.07312 2.53713C11.0303 2.48796 12.9694 2.48795 14.9266 2.53713C16.4706 2.57592 17.7377 2.60499 18.7557 2.78224C19.8189 2.9674 20.7098 3.32817 21.4637 4.08498C22.2136 4.8378 22.5729 5.71515 22.7548 6.76271C22.9284 7.76266 22.9523 9.00063 22.9843 10.5029C23.0057 11.5029 23.0057 12.4971 22.9843 13.4971C22.9523 14.9994 22.9284 16.2374 22.7548 17.2373C22.5729 18.2849 22.2136 19.1622 21.4637 19.9151C20.7097 20.6719 19.8189 21.0327 18.7557 21.2178C17.7377 21.395 16.4706 21.4241 14.9266 21.4629C12.9694 21.5121 11.0303 21.5121 9.07312 21.4629C7.52915 21.4241 6.26207 21.395 5.24402 21.2178C4.18087 21.0327 3.28998 20.6719 2.53601 19.9151C1.78618 19.1622 1.42691 18.2849 1.245 17.2373C1.07137 16.2374 1.04754 14.9994 1.0155 13.4971C0.994181 12.4972 0.994181 11.5029 1.0155 10.5029C1.04754 9.00063 1.07136 7.76266 1.245 6.76271C1.42691 5.71517 1.78615 4.8378 2.53601 4.08498C3.28998 3.32814 4.18086 2.9674 5.24402 2.78224C6.26208 2.60499 7.52915 2.57591 9.07312 2.53713ZM14.8759 4.53615C12.9522 4.48781 11.0476 4.48782 9.1239 4.53615C7.51977 4.57645 6.4256 4.60686 5.58679 4.75295C4.79299 4.8912 4.33015 5.11753 3.953 5.49611C3.57194 5.87862 3.34924 6.3357 3.2157 7.10451C3.07389 7.92114 3.04884 8.9828 3.0155 10.5459C2.99479 11.5173 2.99479 12.4827 3.0155 13.4541C3.04884 15.0173 3.07389 16.0789 3.2157 16.8955C3.34924 17.6643 3.57193 18.1214 3.953 18.5039C4.33014 18.8825 4.79295 19.1088 5.58679 19.2471C6.42561 19.3932 7.51975 19.4236 9.1239 19.4639C11.0476 19.5123 12.9522 19.5123 14.8759 19.4639C16.48 19.4236 17.5742 19.3932 18.413 19.2471C19.2068 19.1089 19.6696 18.8825 20.0468 18.5039C20.4278 18.1214 20.6505 17.6643 20.7841 16.8955C20.9259 16.0789 20.951 15.0172 20.9843 13.4541C21.005 12.4827 21.005 11.5173 20.9843 10.5459C20.951 8.98281 20.9259 7.92113 20.7841 7.10451C20.6505 6.33571 20.4278 5.87862 20.0468 5.49611C19.6696 5.11755 19.2067 4.89119 18.413 4.75295C17.5742 4.60686 16.48 4.57646 14.8759 4.53615Z" fill="#4AAEEE"/>
</svg>
