<svg width="24" height="24" viewBox="0 0 24 24" fill="none" xmlns="http://www.w3.org/2000/svg">
<path d="M12 3C8.40085 3 6.15007 3.44954 4.7998 4.7998C3.44954 6.15007 3 8.40085 3 12C3 15.5992 3.44954 17.8499 4.7998 19.2002C6.15007 20.5505 8.40085 21 12 21C15.5992 21 17.8499 20.5505 19.2002 19.2002C20.5505 17.8499 21 15.5992 21 12C21 8.40085 20.5505 6.15007 19.2002 4.7998C17.8499 3.44954 15.5992 3 12 3Z" stroke="#0F2330" stroke-width="2" stroke-linecap="round" stroke-linejoin="round"/>
<path d="M12.7071 7.29295C12.3166 6.90243 11.6836 6.90243 11.293 7.29295L7.29304 11.293C6.90252 11.6835 6.90252 12.3165 7.29304 12.707L11.293 16.707C11.6836 17.0975 12.3166 17.0975 12.7071 16.707C13.0976 16.3165 13.0976 15.6835 12.7071 15.293L9.41414 12L12.7071 8.70702C13.0976 8.31649 13.0976 7.68348 12.7071 7.29295Z" fill="#0F2330"/>
<path d="M8 11C7.44771 11 7 11.4477 7 12C7 12.5523 7.44771 13 8 13H16C16.5523 13 17 12.5523 17 12C17 11.4477 16.5523 11 16 11H8Z" fill="#0F2330"/>
</svg>
