<svg width="24" height="24" viewBox="0 0 24 24" fill="none" xmlns="http://www.w3.org/2000/svg">
<path fill-rule="evenodd" clip-rule="evenodd" d="M14.0564 2.65625C15.8942 2.65623 17.3498 2.65622 18.489 2.80939C19.6614 2.96701 20.6104 3.29913 21.3588 4.04749C22.1071 4.79586 22.4392 5.74481 22.5969 6.91723C22.75 8.05644 22.75 9.51207 22.75 11.3498V13.4627C22.75 15.3005 22.75 16.7561 22.5969 17.8953C22.4392 19.0676 22.1071 20.0167 21.3588 20.7651C20.6104 21.5133 19.6614 21.8454 18.489 22.0031C17.3498 22.1562 15.8942 22.1562 14.0565 22.1562H9.9436C9.6294 22.1562 9.3262 22.1562 9.034 22.1554C9.0227 22.156 9.0114 22.1562 9 22.1562C8.9871 22.1562 8.9743 22.156 8.9616 22.1553C7.5776 22.1511 6.4393 22.128 5.511 22.0031C4.3386 21.8454 3.3896 21.5133 2.6412 20.7651C1.8929 20.0167 1.5608 19.0676 1.4031 17.8953C1.25 16.7561 1.25 15.3005 1.25 13.4628V11.3498C1.25 9.5121 1.25 8.05643 1.4031 6.91723C1.5608 5.74481 1.8929 4.79586 2.6412 4.04749C3.3896 3.29913 4.3386 2.96701 5.511 2.80939C6.4393 2.68458 7.5776 2.66148 8.9616 2.65721C8.9743 2.65657 8.9871 2.65625 9 2.65625C9.0114 2.65625 9.0227 2.6565 9.034 2.65701C9.3263 2.65625 9.6293 2.65625 9.9436 2.65625H14.0564ZM9.75 4.15627C9.8323 4.15625 9.9156 4.15625 10 4.15625H14C15.9068 4.15625 17.2615 4.15784 18.2891 4.29601C19.2952 4.43128 19.8749 4.68494 20.2981 5.10815C20.7213 5.53136 20.975 6.11101 21.1102 7.1171C21.2484 8.14476 21.25 9.49943 21.25 11.4062V13.4062C21.25 15.313 21.2484 16.6677 21.1102 17.6954C20.975 18.7014 20.7213 19.2811 20.2981 19.7043C19.8749 20.1275 19.2952 20.3813 18.2891 20.5165C17.2615 20.6547 15.9068 20.6562 14 20.6562H10C9.9156 20.6562 9.8323 20.6562 9.75 20.6562V4.15627Z" fill="url(#paint0_linear_143_643)" stroke="#4AAEEE" stroke-width="0.8"/>
<path fill-rule="evenodd" clip-rule="evenodd" d="M14.0564 2.65625C15.8942 2.65623 17.3498 2.65622 18.489 2.80939C19.6614 2.96701 20.6104 3.29913 21.3588 4.04749C22.1071 4.79586 22.4392 5.74481 22.5969 6.91723C22.75 8.05644 22.75 9.51207 22.75 11.3498V13.4627C22.75 15.3005 22.75 16.7561 22.5969 17.8953C22.4392 19.0676 22.1071 20.0167 21.3588 20.7651C20.6104 21.5134 19.6614 21.8455 18.489 22.0032C17.3498 22.1562 15.8942 22.1562 14.0565 22.1562H9.9436C9.6294 22.1562 9.3262 22.1562 9.034 22.1555C9.0227 22.156 9.0114 22.1562 9 22.1562C8.9871 22.1562 8.9743 22.156 8.9616 22.1553C7.5776 22.1511 6.4393 22.128 5.511 22.0032C4.3386 21.8455 3.3896 21.5134 2.6412 20.7651C1.8929 20.0167 1.5608 19.0676 1.4031 17.8953C1.25 16.7561 1.25 15.3005 1.25 13.4628V11.3498C1.25 9.5121 1.25 8.05643 1.4031 6.91723C1.5608 5.74481 1.8929 4.79586 2.6412 4.04749C3.3896 3.29913 4.3386 2.96701 5.511 2.80939C6.4393 2.68458 7.5776 2.66148 8.9616 2.65721C8.9743 2.65657 8.9871 2.65625 9 2.65625C9.0114 2.65625 9.0227 2.6565 9.034 2.65701C9.3263 2.65625 9.6293 2.65625 9.9436 2.65625H14.0564ZM9.75 4.15627C9.8323 4.15625 9.9156 4.15625 10 4.15625H14C15.9068 4.15625 17.2615 4.15784 18.2891 4.29601C19.2952 4.43128 19.8749 4.68494 20.2981 5.10815C20.7213 5.53136 20.975 6.11101 21.1102 7.1171C21.2484 8.14476 21.25 9.49943 21.25 11.4062V13.4062C21.25 15.3131 21.2484 16.6677 21.1102 17.6954C20.975 18.7015 20.7213 19.2811 20.2981 19.7043C19.8749 20.1276 19.2952 20.3813 18.2891 20.5165C17.2615 20.6547 15.9068 20.6562 14 20.6562H10C9.9156 20.6562 9.8323 20.6562 9.75 20.6562V4.15627ZM8.25 20.6506C7.2164 20.6397 6.3918 20.6081 5.7108 20.5165C4.7048 20.3813 4.1251 20.1276 3.7019 19.7043C3.2787 19.2811 3.025 18.7015 2.8898 17.6954C2.7516 16.6677 2.75 15.3131 2.75 13.4062V11.4062C2.75 9.49943 2.7516 8.14476 2.8898 7.1171C3.025 6.11101 3.2787 5.53136 3.7019 5.10815C4.1251 4.68494 4.7048 4.43128 5.7108 4.29601C6.3918 4.20446 7.2164 4.17287 8.25 4.16198V20.6506Z" fill="#EDF7FD" stroke="#EDF7FD" stroke-width="0.8"/>
<defs>
<linearGradient id="paint0_linear_143_643" x1="22.75" y1="12.4062" x2="1.25" y2="12.4062" gradientUnits="userSpaceOnUse">
<stop offset="0.5" stop-color="#163447"/>
<stop offset="1" stop-color="#4AAEEE"/>
</linearGradient>
</defs>
</svg>
