<svg width="24" height="24" viewBox="0 0 24 24" fill="none" xmlns="http://www.w3.org/2000/svg">
<path d="M20 7.5C20 5.567 18.433 4 16.5 4H7.5C5.567 4 4 5.567 4 7.5V16.5C4 18.433 5.567 20 7.5 20H16.5C18.433 20 20 18.433 20 16.5V7.5ZM22 16.5C22 19.5376 19.5376 22 16.5 22H7.5C4.46243 22 2 19.5376 2 16.5V7.5C2 4.46243 4.46243 2 7.5 2H16.5C19.5376 2 22 4.46243 22 7.5V16.5Z" fill="#00AEEF"/>
<path d="M9.74064 7.51823C10.6741 7.03396 11.7366 6.85619 12.7768 7.01042C13.8379 7.16777 14.82 7.663 15.5785 8.42155C16.3371 9.18011 16.8323 10.1622 16.9897 11.2233C17.1439 12.2635 16.9661 13.326 16.4818 14.2594C15.9975 15.1929 15.2307 15.9497 14.2914 16.4225C13.3521 16.8953 12.2876 17.0602 11.2494 16.8932C10.2111 16.7262 9.25187 16.2355 8.50822 15.4919C7.76457 14.7482 7.27393 13.789 7.10685 12.7507C6.93988 11.7125 7.10479 10.6479 7.57755 9.70866C8.05039 8.76936 8.80721 8.00257 9.74064 7.51823ZM12.4838 8.98893C11.8596 8.89638 11.2216 9.003 10.6615 9.29362C10.1014 9.58425 9.64738 10.0444 9.36368 10.6081C9.08004 11.1717 8.98123 11.8103 9.08146 12.4333C9.18171 13.0563 9.47609 13.6316 9.92228 14.0778C10.3685 14.524 10.9438 14.8184 11.5668 14.9186C12.1898 15.0189 12.8284 14.92 13.392 14.6364C13.9556 14.3527 14.4158 13.8986 14.7065 13.3385C14.9971 12.7784 15.1037 12.1405 15.0111 11.5163C14.9167 10.8797 14.6195 10.2907 14.1645 9.83561C13.7094 9.38056 13.1204 9.0834 12.4838 8.98893Z" fill="#00AEEF"/>
<path d="M17.5098 5.5C18.0621 5.5 18.5098 5.94772 18.5098 6.5C18.5098 7.05228 18.0621 7.5 17.5098 7.5H17.5C16.9477 7.5 16.5 7.05228 16.5 6.5C16.5 5.94772 16.9477 5.5 17.5 5.5H17.5098Z" fill="#00AEEF"/>
</svg>
