<svg width="24" height="24" viewBox="0 0 24 24" fill="none" xmlns="http://www.w3.org/2000/svg">
<path d="M16 10C16 9.21209 15.8445 8.43204 15.543 7.7041C15.2414 6.97615 14.7993 6.31496 14.2422 5.75781C13.685 5.20066 13.0239 4.75856 12.2959 4.45703C11.568 4.15552 10.7879 4 10 4C9.21209 4 8.43204 4.15552 7.7041 4.45703C6.97615 4.75856 6.31496 5.20066 5.75781 5.75781C5.20066 6.31496 4.75856 6.97615 4.45703 7.7041C4.15552 8.43204 4 9.21209 4 10C4 10.7879 4.15552 11.568 4.45703 12.2959C4.75856 13.0239 5.20066 13.685 5.75781 14.2422C6.31496 14.7993 6.97615 15.2414 7.7041 15.543C8.43204 15.8445 9.21209 16 10 16C10.7879 16 11.568 15.8445 12.2959 15.543C13.0239 15.2414 13.685 14.7993 14.2422 14.2422C14.7993 13.685 15.2414 13.0239 15.543 12.2959C15.8445 11.568 16 10.7879 16 10ZM18 10C18 11.0506 17.7927 12.0909 17.3906 13.0615C16.9886 14.0321 16.4 14.9144 15.6572 15.6572C14.9144 16.4 14.0321 16.9886 13.0615 17.3906C12.0909 17.7927 11.0506 18 10 18C8.94943 18 7.90908 17.7927 6.93848 17.3906C5.96795 16.9886 5.08559 16.4 4.34277 15.6572C3.59995 14.9144 3.01141 14.0321 2.60938 13.0615C2.20734 12.0909 2 11.0506 2 10C2 8.94942 2.20734 7.90908 2.60938 6.93848C3.01141 5.96795 3.59995 5.08559 4.34277 4.34277C5.08559 3.59995 5.96795 3.01141 6.93848 2.60938C7.90908 2.20734 8.94943 2 10 2C11.0506 2 12.0909 2.20734 13.0615 2.60938C14.0321 3.01141 14.9144 3.59995 15.6572 4.34277C16.4 5.08559 16.9886 5.96795 17.3906 6.93848C17.7927 7.90908 18 8.94943 18 10Z" fill="#00AEEF"/>
<path d="M14.2929 14.293C14.6834 13.9024 15.3164 13.9024 15.707 14.293L21.707 20.293C22.0975 20.6835 22.0975 21.3165 21.707 21.707C21.3164 22.0975 20.6834 22.0975 20.2929 21.707L14.2929 15.707C13.9024 15.3165 13.9024 14.6835 14.2929 14.293Z" fill="#00AEEF"/>
</svg>
