<svg width="24" height="24" viewBox="0 0 24 24" fill="none" xmlns="http://www.w3.org/2000/svg">
<path d="M7 16V11C7 10.4477 7.44772 10 8 10C8.55228 10 9 10.4477 9 11V16C9 16.5523 8.55228 17 8 17C7.44772 17 7 16.5523 7 16Z" fill="#00AEEF"/>
<path d="M7 8.00977V8C7 7.44772 7.44772 7 8 7C8.55228 7 9 7.44772 9 8V8.00977C9 8.56205 8.55228 9.00977 8 9.00977C7.44772 9.00977 7 8.56205 7 8.00977Z" fill="#00AEEF"/>
<path d="M11 16V11C11 10.4477 11.4477 10 12 10C12.5523 10 13 10.4477 13 11V16C13 16.5523 12.5523 17 12 17C11.4477 17 11 16.5523 11 16Z" fill="#00AEEF"/>
<path d="M15 16V13C15 12.7348 14.8946 12.4805 14.707 12.293C14.5195 12.1054 14.2652 12 14 12C13.7348 12 13.4805 12.1054 13.293 12.293C13.1054 12.4805 13 12.7348 13 13C13 13.5523 12.5523 14 12 14C11.4477 14 11 13.5523 11 13C11 12.2043 11.3163 11.4415 11.8789 10.8789C12.4415 10.3163 13.2043 10 14 10C14.7957 10 15.5585 10.3163 16.1211 10.8789C16.6837 11.4415 17 12.2043 17 13V16C17 16.5523 16.5523 17 16 17C15.4477 17 15 16.5523 15 16Z" fill="#00AEEF"/>
<path d="M20 7C20 6.20435 19.6837 5.44152 19.1211 4.87891C18.5585 4.3163 17.7956 4 17 4H7C6.20435 4 5.44152 4.3163 4.87891 4.87891C4.3163 5.44152 4 6.20435 4 7V17C4 17.7956 4.3163 18.5585 4.87891 19.1211C5.44152 19.6837 6.20435 20 7 20H17C17.7956 20 18.5585 19.6837 19.1211 19.1211C19.6837 18.5585 20 17.7956 20 17V7ZM22 17C22 18.3261 21.4728 19.5975 20.5352 20.5352C19.5975 21.4728 18.3261 22 17 22H7C5.67392 22 4.40253 21.4728 3.46484 20.5352C2.52716 19.5975 2 18.3261 2 17V7C2 5.67392 2.52716 4.40253 3.46484 3.46484C4.40253 2.52716 5.67392 2 7 2H17C18.3261 2 19.5975 2.52716 20.5352 3.46484C21.4728 4.40253 22 5.67392 22 7V17Z" fill="#00AEEF"/>
</svg>
