<svg width="24" height="24" viewBox="0 0 24 24" fill="none" xmlns="http://www.w3.org/2000/svg">
<path d="M14 10C14 9.46957 13.7891 8.96101 13.4141 8.58594C13.039 8.21087 12.5304 8 12 8C11.4696 8 10.961 8.21087 10.5859 8.58594C10.2109 8.96101 10 9.46957 10 10C10 10.5304 10.2109 11.039 10.5859 11.4141C10.961 11.7891 11.4696 12 12 12C12.5304 12 13.039 11.7891 13.4141 11.4141C13.7891 11.039 14 10.5304 14 10ZM16 10C16 11.0609 15.5783 12.078 14.8281 12.8281C14.078 13.5783 13.0609 14 12 14C10.9391 14 9.92202 13.5783 9.17188 12.8281C8.42173 12.078 8 11.0609 8 10C8 8.93913 8.42173 7.92202 9.17188 7.17188C9.92202 6.42173 10.9391 6 12 6C13.0609 6 14.078 6.42173 14.8281 7.17188C15.5783 7.92202 16 8.93913 16 10Z" fill="#00AEEF"/>
<path d="M20 12C20 8.39285 19.5252 6.53883 18.4932 5.50684C17.4612 4.47484 15.6071 4 12 4C8.39285 4 6.53883 4.47484 5.50684 5.50684C4.47484 6.53883 4 8.39285 4 12C4 15.6071 4.47484 17.4612 5.50684 18.4932C6.53883 19.5252 8.39285 20 12 20C15.6071 20 17.4612 19.5252 18.4932 18.4932C19.5252 17.4612 20 15.6071 20 12ZM22 12C22 15.5929 21.5752 18.2392 19.9072 19.9072C18.2392 21.5752 15.5929 22 12 22C8.40715 22 5.76078 21.5752 4.09277 19.9072C2.42477 18.2392 2 15.5929 2 12C2 8.40715 2.42477 5.76078 4.09277 4.09277C5.76078 2.42477 8.40715 2 12 2C15.5929 2 18.2392 2.42477 19.9072 4.09277C21.5752 5.76078 22 8.40715 22 12Z" fill="#00AEEF"/>
<path d="M17 20.0498V20C17 19.2044 16.6837 18.4415 16.1211 17.8789C15.5585 17.3163 14.7956 17 14 17H10C9.20435 17 8.44152 17.3163 7.87891 17.8789C7.3163 18.4415 7 19.2044 7 20V20.0498C7 20.6021 6.55228 21.0498 6 21.0498C5.44772 21.0498 5 20.6021 5 20.0498V20C5 18.6739 5.52716 17.4025 6.46484 16.4648C7.40253 15.5272 8.67392 15 10 15H14C15.3261 15 16.5975 15.5272 17.5352 16.4648C18.4728 17.4025 19 18.6739 19 20V20.0498C19 20.6021 18.5523 21.0498 18 21.0498C17.4477 21.0498 17 20.6021 17 20.0498Z" fill="#00AEEF"/>
</svg>
