<svg width="24" height="24" viewBox="0 0 24 24" fill="none" xmlns="http://www.w3.org/2000/svg">
<path d="M11.2929 7.29295C11.6834 6.90243 12.3164 6.90243 12.707 7.29295L16.707 11.293C17.0975 11.6835 17.0975 12.3165 16.707 12.707L12.707 16.707C12.3164 17.0975 11.6834 17.0975 11.2929 16.707C10.9024 16.3165 10.9024 15.6835 11.2929 15.293L14.5859 12L11.2929 8.70702C10.9024 8.31649 10.9024 7.68348 11.2929 7.29295Z" fill="#00AEEF"/>
<path d="M16 11C16.5523 11 17 11.4477 17 12C17 12.5523 16.5523 13 16 13H8C7.44772 13 7 12.5523 7 12C7 11.4477 7.44772 11 8 11H16Z" fill="#00AEEF"/>
<path d="M20 12C20 8.39285 19.5252 6.53883 18.4932 5.50684C17.4612 4.47484 15.6071 4 12 4C8.39285 4 6.53883 4.47484 5.50684 5.50684C4.47484 6.53883 4 8.39285 4 12C4 15.6071 4.47484 17.4612 5.50684 18.4932C6.53883 19.5252 8.39285 20 12 20C15.6071 20 17.4612 19.5252 18.4932 18.4932C19.5252 17.4612 20 15.6071 20 12ZM22 12C22 15.5929 21.5752 18.2392 19.9072 19.9072C18.2392 21.5752 15.5929 22 12 22C8.40715 22 5.76078 21.5752 4.09277 19.9072C2.42477 18.2392 2 15.5929 2 12C2 8.40715 2.42477 5.76078 4.09277 4.09277C5.76078 2.42477 8.40715 2 12 2C15.5929 2 18.2392 2.42477 19.9072 4.09277C21.5752 5.76078 22 8.40715 22 12Z" fill="#00AEEF"/>
</svg>
