<svg width="24" height="24" viewBox="0 0 24 24" fill="none" xmlns="http://www.w3.org/2000/svg">
<path d="M14.2929 9.29295C14.6834 8.90243 15.3164 8.90243 15.707 9.29295C16.0975 9.68348 16.0975 10.3165 15.707 10.707L11.707 14.707C11.3164 15.0975 10.6834 15.0975 10.2929 14.707L8.29289 12.707C7.90237 12.3165 7.90237 11.6835 8.29289 11.293C8.68342 10.9024 9.31643 10.9024 9.70696 11.293L10.9999 12.5859L14.2929 9.29295Z" fill="#00AEEF"/>
<path d="M20 12C20 8.39285 19.5252 6.53883 18.4932 5.50684C17.4612 4.47484 15.6071 4 12 4C8.39285 4 6.53883 4.47484 5.50684 5.50684C4.47484 6.53883 4 8.39285 4 12C4 15.6071 4.47484 17.4612 5.50684 18.4932C6.53883 19.5252 8.39285 20 12 20C15.6071 20 17.4612 19.5252 18.4932 18.4932C19.5252 17.4612 20 15.6071 20 12ZM22 12C22 15.5929 21.5752 18.2392 19.9072 19.9072C18.2392 21.5752 15.5929 22 12 22C8.40715 22 5.76078 21.5752 4.09277 19.9072C2.42477 18.2392 2 15.5929 2 12C2 8.40715 2.42477 5.76078 4.09277 4.09277C5.76078 2.42477 8.40715 2 12 2C15.5929 2 18.2392 2.42477 19.9072 4.09277C21.5752 5.76078 22 8.40715 22 12Z" fill="#00AEEF"/>
</svg>
